{"glyphs":{"0":{"ha":782,"x_min":47,"x_max":733,"o":"m 47 502 q 71 696 47 605 q 137 858 94 788 q 245 968 180 927 q 390 1008 311 1008 q 510 982 455 1008 q 606 909 566 956 q 676 799 647 862 q 719 660 705 735 q 733 502 733 585 q 710 307 733 399 q 644 146 686 216 q 535 36 601 77 q 390 -5 469 -5 q 247 36 312 -5 q 138 146 181 77 q 71 307 95 216 q 47 502 47 399 m 186 503 q 211 278 186 380 q 281 114 235 175 q 384 54 327 54 q 476 90 435 54 q 543 190 517 127 q 582 335 568 254 q 595 511 595 417 q 581 684 595 603 q 541 824 566 765 q 479 916 515 882 q 399 950 442 950 q 311 915 351 950 q 243 820 270 880 q 201 677 216 759 q 186 503 186 596 z "},"1":{"ha":782,"x_min":192,"x_max":589,"o":"m 192 873 q 192 876 192 873 q 192 879 192 878 q 193 881 192 880 q 195 883 193 882 q 319 940 250 907 q 428 991 389 973 q 469 1010 467 1010 l 472 1010 q 488 985 483 1010 q 475 832 475 928 l 475 182 q 483 66 475 92 q 524 48 486 55 q 584 41 561 41 q 589 18 589 35 q 584 -5 589 1 q 527 -2 564 -4 q 464 2 491 1 q 409 3 437 3 q 356 2 382 3 q 296 -1 330 1 q 241 -5 262 -3 q 236 18 235 1 q 241 41 236 35 q 301 48 264 41 q 341 66 338 55 q 351 182 351 96 l 351 818 q 343 865 351 851 q 318 878 335 878 q 208 846 292 878 q 192 873 192 859 z "},"2":{"ha":782,"x_min":69,"x_max":714,"o":"m 69 22 q 444 481 319 298 q 504 601 488 548 q 519 718 519 654 q 470 854 519 800 q 346 908 421 908 q 276 897 311 908 q 217 869 242 885 q 171 833 193 854 q 138 799 150 813 q 119 772 127 785 q 101 782 111 772 q 92 798 92 792 q 109 835 94 811 q 150 889 123 859 q 209 947 176 920 q 288 991 242 973 q 380 1010 334 1010 q 453 1000 418 1010 q 518 971 488 989 q 573 929 548 954 q 615 875 597 904 q 642 813 632 846 q 651 747 651 781 q 564 510 651 621 q 492 425 531 471 q 412 333 453 379 q 340 250 372 286 q 270 171 308 214 q 220 115 233 129 l 532 115 q 607 143 577 115 q 664 236 637 172 q 683 245 668 245 q 692 244 686 245 q 705 240 699 243 q 714 236 711 238 q 629 0 680 152 l 85 0 q 75 10 80 3 q 69 22 69 18 z "},"3":{"ha":782,"x_min":94,"x_max":686,"o":"m 94 88 q 114 142 94 121 q 161 163 134 163 q 190 156 176 163 q 211 139 203 148 q 231 115 219 130 q 249 94 242 101 q 365 55 290 55 q 417 63 392 55 q 467 89 442 71 q 510 135 492 107 q 539 204 528 162 q 551 299 551 247 q 534 387 551 345 q 489 458 517 429 q 425 504 461 487 q 349 521 388 521 q 317 517 335 521 q 278 507 300 513 q 255 500 257 500 q 245 532 245 512 q 249 547 245 543 q 311 565 281 555 q 368 590 340 576 q 418 624 396 605 q 458 666 441 643 q 485 718 475 689 q 494 781 494 747 q 451 885 494 844 q 340 926 408 926 q 273 911 307 926 q 221 879 240 897 q 184 843 202 862 q 163 823 166 825 q 151 834 157 823 q 144 857 144 846 q 190 912 165 887 q 248 960 215 937 q 321 997 280 983 q 406 1010 362 1010 q 459 1002 431 1010 q 514 976 487 994 q 564 936 542 959 q 600 879 586 912 q 614 808 614 846 q 599 738 614 772 q 561 676 585 703 q 513 630 536 649 q 466 596 490 610 q 524 580 494 593 q 583 546 553 568 q 635 495 612 524 q 672 427 658 467 q 686 343 686 387 q 664 224 686 280 q 602 126 641 168 q 513 54 564 84 q 404 7 462 23 q 286 -8 346 -8 q 206 1 252 -8 q 126 28 161 11 q 105 53 117 35 q 94 88 94 71 z "},"4":{"ha":782,"x_min":41,"x_max":739,"o":"m 41 304 l 554 974 q 578 1000 563 986 q 601 1013 593 1013 q 619 1004 612 1013 q 626 985 626 996 l 626 363 l 718 363 q 723 360 720 363 q 729 350 726 357 q 734 336 732 344 q 738 318 736 328 q 739 299 739 309 q 733 274 739 283 l 626 274 l 626 -1 q 557 -9 620 -9 q 513 -7 526 -9 q 500 3 500 -5 l 500 274 l 57 274 q 45 287 50 278 q 41 304 41 296 m 148 363 l 500 363 l 500 825 l 148 363 z "},"5":{"ha":782,"x_min":94,"x_max":686,"o":"m 94 88 q 114 142 94 121 q 161 163 134 163 q 190 156 176 163 q 211 139 203 148 q 231 115 219 130 q 249 94 242 101 q 365 55 290 55 q 417 63 392 55 q 467 89 442 71 q 510 134 492 107 q 539 204 528 161 q 551 299 551 246 q 542 361 551 330 q 514 424 534 392 q 467 479 495 455 q 395 518 438 503 q 299 533 351 533 q 229 526 273 533 q 167 510 184 519 q 161 513 163 510 q 156 521 158 516 q 154 532 154 526 q 188 700 165 589 q 224 884 210 812 q 245 999 239 956 l 478 999 q 507 1000 492 999 q 536 1002 522 1001 q 563 1005 549 1003 q 587 1008 576 1006 q 606 1010 597 1009 q 618 1013 614 1012 l 623 1013 q 630 1009 625 1012 q 636 1005 634 1006 q 640 1001 638 1004 q 642 996 642 999 q 628 945 642 985 q 595 884 613 906 q 412 875 507 875 l 280 875 q 223 591 223 591 q 306 613 255 604 q 390 621 357 621 q 514 597 457 621 q 608 532 572 572 q 666 443 645 492 q 686 343 686 394 q 664 224 686 280 q 602 126 641 168 q 513 54 564 84 q 404 7 462 23 q 286 -8 346 -8 q 206 1 252 -8 q 126 28 161 11 q 105 53 117 35 q 94 88 94 71 z "},"6":{"ha":782,"x_min":77,"x_max":705,"o":"m 77 346 q 116 575 77 467 q 228 763 155 682 q 357 875 282 822 q 507 964 432 928 q 650 1018 583 1000 q 664 1001 659 1018 q 669 972 669 985 q 231 551 309 857 q 323 602 271 583 q 417 621 375 621 q 502 610 463 621 q 571 581 542 600 q 623 538 600 563 q 661 486 646 513 q 686 429 676 458 q 701 372 696 399 q 705 319 705 345 q 680 194 705 254 q 613 89 655 134 q 511 17 570 44 q 385 -9 451 -9 q 281 11 330 -9 q 195 67 231 32 q 131 148 158 102 q 91 244 104 193 q 77 346 77 295 m 212 374 q 219 286 212 331 q 242 196 227 240 q 278 118 257 153 q 331 63 300 84 q 398 43 361 43 q 522 113 473 43 q 571 290 571 183 q 566 355 571 323 q 551 415 562 386 q 525 467 541 444 q 487 508 509 490 q 437 535 466 526 q 373 545 408 545 q 336 543 353 545 q 299 534 319 541 q 258 515 278 528 q 218 481 237 502 q 212 374 212 437 z "},"7":{"ha":782,"x_min":60,"x_max":721,"o":"m 60 760 q 126 996 110 909 l 604 996 q 669 999 629 996 q 711 1001 710 1001 q 718 999 715 1001 q 721 994 720 996 q 721 987 721 991 q 720 978 721 983 q 717 968 718 972 q 712 956 715 963 q 707 943 709 948 q 700 928 705 937 q 693 913 696 919 q 685 897 690 908 q 677 881 679 886 l 261 -3 q 245 -8 256 -8 q 201 1 227 -8 q 176 20 176 11 q 285 203 222 89 q 405 430 348 317 q 512 648 462 544 q 593 817 563 751 l 623 881 l 223 881 q 154 853 178 881 q 110 760 130 826 q 92 751 110 751 q 82 752 88 751 q 70 755 76 753 q 60 760 63 758 z "},"8":{"ha":782,"x_min":94,"x_max":688,"o":"m 94 242 q 102 295 94 269 q 120 341 110 321 q 149 382 131 361 q 182 416 168 403 q 219 447 197 430 q 254 472 242 464 q 286 492 265 479 q 291 495 289 494 q 295 497 292 496 q 299 500 297 499 q 302 506 302 503 q 299 510 302 509 q 246 549 272 526 q 195 603 220 572 q 154 674 170 634 q 138 755 138 714 q 160 851 138 804 q 217 934 182 899 q 300 990 252 969 q 399 1012 349 1012 q 529 985 471 1012 q 622 905 587 958 q 658 781 658 851 q 646 712 658 745 q 617 656 633 680 q 574 609 601 633 q 528 572 547 585 q 481 541 509 559 q 477 537 477 540 q 481 532 477 534 q 554 483 519 511 q 620 420 589 454 q 669 345 650 386 q 688 262 688 303 q 672 174 688 216 q 627 97 656 131 q 561 38 598 64 q 478 -1 524 13 q 387 -14 433 -14 q 176 57 257 -14 q 94 242 94 128 m 218 247 q 234 161 218 200 q 273 96 249 121 q 328 57 298 71 q 390 43 359 43 q 514 90 468 43 q 560 217 560 137 q 550 272 560 244 q 525 321 540 299 q 488 366 509 343 q 448 403 466 388 q 408 433 429 418 q 377 453 387 448 q 359 464 368 459 q 349 467 353 467 q 343 466 345 467 q 248 373 277 424 q 218 247 218 322 m 255 783 q 261 737 255 760 q 275 698 267 715 q 298 664 283 681 q 324 636 313 647 q 354 612 336 625 q 383 593 373 600 q 412 576 393 587 q 418 572 416 574 q 428 570 425 570 q 437 572 433 570 q 545 765 545 643 q 526 854 545 811 q 472 927 508 898 q 390 957 435 957 q 322 933 353 957 q 273 870 291 909 q 255 783 255 830 z "},"9":{"ha":782,"x_min":79,"x_max":705,"o":"m 79 689 q 103 814 79 754 q 170 920 128 875 q 272 991 212 964 q 397 1018 331 1018 q 501 997 452 1018 q 587 942 550 977 q 650 861 623 907 q 691 765 677 816 q 705 663 705 713 q 666 434 705 542 q 554 245 627 327 q 354 87 472 157 q 132 -9 236 18 q 118 7 122 -9 q 113 36 113 23 q 551 458 471 151 q 458 406 510 425 q 365 387 407 387 q 280 398 319 387 q 212 427 241 409 q 160 470 183 446 q 122 523 137 495 q 97 580 107 550 q 83 637 87 610 q 79 689 79 664 m 211 719 q 216 654 211 685 q 231 594 220 623 q 257 542 241 565 q 295 500 273 518 q 345 473 316 483 q 409 464 374 464 q 490 476 452 464 q 564 527 528 489 q 570 634 570 593 q 563 723 570 677 q 540 812 555 768 q 504 890 525 856 q 452 945 483 924 q 384 966 420 966 q 260 896 309 966 q 211 719 211 825 z "},"\u0000":{"ha":1389,"x_min":0,"x_max":0,"o":""},"\r":{"ha":1389,"x_min":0,"x_max":0,"o":""}," ":{"ha":341,"x_min":0,"x_max":0,"o":""},"!":{"ha":379,"x_min":102,"x_max":275,"o":"m 102 71 q 129 131 102 106 q 191 156 155 156 q 251 131 226 156 q 275 71 275 106 q 250 9 275 35 q 191 -18 225 -18 q 129 9 155 -18 q 102 71 102 35 m 118 919 q 127 962 118 941 q 154 996 136 983 q 197 1010 173 1010 q 236 995 220 1010 q 259 961 252 981 q 266 919 266 941 q 260 829 266 899 q 239 593 254 760 q 211 271 224 426 q 205 260 208 264 q 197 254 202 256 q 186 250 193 251 q 165 267 171 256 q 118 919 118 810 z "},"\"":{"ha":440,"x_min":61,"x_max":373,"o":"m 61 989 q 67 1025 61 1006 q 83 1061 73 1044 q 110 1089 94 1078 q 143 1100 125 1100 q 166 1096 157 1100 q 184 1080 175 1091 q 176 940 184 1044 q 162 774 169 835 q 149 758 159 767 q 131 744 140 749 q 117 753 121 744 q 74 906 87 853 q 61 989 61 960 m 250 989 q 256 1025 250 1006 q 272 1061 262 1044 q 298 1089 282 1078 q 332 1100 314 1100 q 355 1096 346 1100 q 373 1080 363 1091 q 366 940 373 1044 q 351 774 358 835 q 338 758 347 767 q 319 744 328 749 q 305 753 310 744 q 263 906 276 853 q 250 989 250 960 z "},"#":{"ha":755,"x_min":81,"x_max":674,"o":"m 90 280 q 81 299 81 283 q 88 334 81 315 q 105 357 96 354 l 206 357 l 242 581 l 134 581 q 124 598 125 581 q 131 635 124 616 q 148 658 138 654 l 255 658 l 280 815 q 281 818 280 816 q 284 826 283 823 q 289 831 286 828 q 298 834 292 833 q 315 836 304 836 q 335 831 328 836 l 307 658 l 508 658 l 533 815 q 538 827 536 825 q 547 833 540 830 q 568 836 553 836 q 589 831 581 836 l 560 658 l 661 658 q 673 641 671 658 q 668 604 674 623 q 651 581 661 585 l 549 581 l 513 357 l 618 357 q 629 326 633 357 q 610 282 625 293 q 608 280 609 281 l 500 280 l 475 121 q 463 107 473 115 q 437 100 453 100 q 426 102 431 100 q 421 105 422 104 l 420 107 l 448 280 l 245 280 l 220 121 q 209 107 218 115 q 184 100 199 100 q 176 101 180 100 q 171 103 173 102 q 169 105 170 104 q 167 106 168 106 l 167 107 l 195 280 l 90 280 m 258 357 l 459 357 l 496 581 l 294 581 l 258 357 z "},"$":{"ha":783,"x_min":80,"x_max":705,"o":"m 80 260 q 98 268 85 264 q 119 272 111 272 q 137 264 133 272 q 143 239 140 251 q 154 205 146 227 q 174 164 162 184 q 201 124 185 145 q 240 85 216 103 q 291 57 263 68 l 355 447 q 306 476 324 465 q 258 508 287 488 q 210 544 229 528 q 171 584 192 560 q 137 629 149 607 q 117 680 125 652 q 109 739 109 709 q 134 848 109 798 q 200 933 159 899 q 295 986 241 967 q 404 1005 348 1005 q 448 1004 436 1005 l 459 1075 q 515 1063 515 1075 l 503 996 q 562 981 522 992 q 633 963 603 970 q 642 915 638 940 q 647 864 645 889 q 649 820 648 838 q 651 778 650 801 q 651 749 651 755 q 623 743 641 743 q 601 751 609 743 q 566 843 596 793 q 491 924 536 893 l 431 559 q 435 557 433 558 q 439 554 437 555 q 442 552 441 553 q 481 528 454 545 q 526 501 509 511 q 569 472 543 490 q 611 439 595 454 q 647 402 628 424 q 678 361 667 381 q 697 314 690 340 q 705 261 705 288 q 688 169 705 212 q 640 92 671 125 q 570 34 610 58 q 484 -3 530 9 q 389 -16 437 -16 q 336 -14 354 -16 l 326 -82 q 290 -78 309 -82 q 271 -68 271 -75 l 280 -6 q 185 13 244 -1 q 117 28 127 26 q 92 167 104 90 q 80 260 80 244 m 234 832 q 232 821 234 832 q 230 787 230 810 q 235 743 230 764 q 251 704 240 722 q 275 671 262 686 q 306 641 287 656 q 340 615 324 626 q 379 590 357 604 l 439 947 q 395 954 411 954 q 327 943 357 954 q 280 916 298 932 q 250 877 262 899 q 234 832 238 854 m 346 41 q 392 38 374 38 q 480 58 440 38 q 547 121 521 79 q 572 220 572 163 q 568 262 572 243 q 557 297 564 282 q 537 326 551 311 q 514 351 524 341 q 484 373 504 360 q 452 393 464 386 q 415 413 439 399 q 408 417 410 416 l 346 41 z "},"%":{"ha":1049,"x_min":63,"x_max":983,"o":"m 63 762 q 80 860 63 814 q 128 941 98 907 q 203 995 159 975 q 299 1015 248 1015 q 419 980 366 1015 q 502 888 473 945 q 530 762 530 830 q 514 669 530 714 q 469 589 498 625 q 395 533 439 554 q 299 511 351 511 q 180 545 235 511 q 95 636 126 578 q 63 762 63 693 m 100 -1 l 859 982 q 874 995 865 989 q 890 1001 884 1001 q 916 1000 907 1001 q 927 997 924 998 q 934 990 930 996 q 941 982 938 985 l 181 0 q 159 -13 176 -6 q 129 -19 142 -19 q 112 -15 119 -19 q 104 -8 105 -10 q 100 -1 103 -6 m 163 781 q 183 673 163 726 q 237 586 203 621 q 309 551 271 551 q 365 568 341 551 q 402 616 389 586 q 420 679 414 646 q 427 749 427 712 q 411 854 427 803 q 364 942 395 906 q 293 977 332 977 q 233 960 259 977 q 193 913 208 942 q 171 850 178 884 q 163 781 163 817 m 516 239 q 527 319 516 281 q 559 389 538 357 q 609 444 581 420 q 675 479 638 467 q 753 492 712 492 q 873 458 821 492 q 955 366 926 423 q 983 239 983 308 q 974 165 983 201 q 944 97 964 128 q 896 41 924 65 q 831 3 869 17 q 752 -11 794 -11 q 633 22 688 -11 q 548 113 579 56 q 516 239 516 171 m 616 258 q 624 193 616 226 q 646 130 632 159 q 677 78 660 101 q 718 42 695 55 q 763 28 740 28 q 819 46 795 28 q 856 94 843 64 q 874 156 868 123 q 880 227 880 189 q 864 332 880 281 q 818 419 849 384 q 747 454 787 454 q 688 437 714 454 q 647 391 662 420 q 624 328 632 362 q 616 258 616 294 z "},"&":{"ha":1074,"x_min":83,"x_max":1032,"o":"m 83 249 q 99 332 83 292 q 137 400 114 371 q 196 459 159 430 q 266 508 233 488 q 345 551 299 528 q 311 611 323 588 q 283 669 299 633 q 261 742 268 705 q 254 817 254 778 q 320 969 254 907 q 485 1032 386 1032 q 651 986 590 1032 q 713 856 713 940 q 706 798 713 826 q 687 747 699 770 q 658 701 676 724 q 621 660 640 678 q 577 623 602 642 q 529 588 551 603 q 478 555 507 573 q 711 242 570 400 q 776 357 751 302 q 801 427 801 412 q 787 446 801 440 q 752 453 772 452 q 730 454 731 454 q 727 474 726 462 q 732 491 727 486 l 856 491 q 897 492 875 491 q 936 493 918 492 q 980 496 953 494 q 1029 498 1006 498 q 1031 475 1032 496 q 1027 454 1031 454 q 969 445 1007 454 q 919 428 932 436 q 897 392 917 427 q 837 300 876 358 q 755 193 798 242 q 761 188 757 191 q 809 138 793 154 q 845 104 824 123 q 881 78 867 85 q 909 71 896 71 q 958 97 932 71 q 991 143 983 123 q 1016 133 1004 143 q 1027 115 1027 123 q 1019 97 1023 106 q 999 69 1015 88 q 967 36 984 50 q 920 11 949 22 q 856 0 890 0 q 802 12 830 0 q 752 40 774 23 q 712 74 730 57 q 684 102 694 90 l 675 113 q 539 28 615 61 q 389 -5 463 -5 q 166 63 249 -5 q 83 249 83 130 m 218 271 q 237 176 218 217 q 288 111 256 135 q 358 75 319 87 q 442 63 397 63 q 510 73 474 63 q 580 103 545 83 q 639 149 614 123 q 529 281 593 195 q 422 431 465 368 l 380 494 q 345 469 356 477 q 312 445 333 461 q 281 417 291 428 q 256 388 271 406 q 235 354 242 370 q 223 316 229 338 q 218 271 218 294 m 368 854 q 389 739 368 800 q 450 606 410 679 q 516 649 490 629 q 564 695 542 668 q 596 755 586 722 q 606 834 606 789 q 592 902 606 870 q 553 955 579 934 q 492 975 526 975 q 405 941 441 975 q 368 854 368 907 z "},"'":{"ha":252,"x_min":61,"x_max":184,"o":"m 61 989 q 67 1025 61 1006 q 83 1061 73 1044 q 110 1089 94 1078 q 143 1100 125 1100 q 166 1096 157 1100 q 184 1080 175 1091 q 176 940 184 1044 q 162 774 169 835 q 149 758 159 767 q 131 744 140 749 q 117 753 121 744 q 74 906 87 853 q 61 989 61 960 z "},"(":{"ha":412,"x_min":58,"x_max":404,"o":"m 58 448 q 81 664 58 561 q 147 851 104 766 q 246 1006 189 936 q 373 1131 302 1076 q 386 1121 378 1128 q 398 1106 393 1113 q 403 1100 404 1100 q 305 978 349 1052 q 232 818 261 904 q 188 637 203 732 q 173 448 173 542 q 199 199 173 323 q 278 -33 225 75 q 403 -205 331 -141 q 398 -211 404 -205 q 386 -225 393 -218 q 373 -236 378 -233 q 246 -110 302 -180 q 147 45 189 -40 q 81 234 104 131 q 58 448 58 336 z "},")":{"ha":412,"x_min":9,"x_max":354,"o":"m 9 -205 q 134 -33 81 -141 q 213 199 187 75 q 239 448 239 323 q 213 698 239 574 q 134 929 187 821 q 9 1100 81 1036 q 14 1106 9 1100 q 27 1121 19 1113 q 39 1131 35 1128 q 166 1006 110 1076 q 266 851 223 936 q 331 664 308 766 q 354 448 354 561 q 331 234 354 336 q 266 45 308 131 q 166 -110 223 -40 q 39 -236 110 -180 q 27 -225 35 -233 q 14 -211 19 -218 q 9 -205 9 -205 z "},"*":{"ha":696,"x_min":52,"x_max":633,"o":"m 57 719 q 69 763 52 745 q 117 785 86 781 q 168 787 142 788 q 213 782 195 785 q 255 777 231 779 q 299 777 279 774 q 316 790 313 782 q 313 812 320 800 q 282 854 301 833 q 241 899 262 875 q 205 950 220 922 q 192 1001 190 976 q 214 1038 193 1027 q 259 1040 238 1050 q 294 1002 281 1029 q 314 941 307 973 q 326 879 321 908 q 343 826 332 849 q 359 808 351 810 q 379 818 368 807 q 404 852 393 833 q 424 887 416 871 q 445 924 431 903 q 475 964 458 945 q 520 994 496 988 q 564 983 545 1000 q 579 940 582 964 q 554 895 576 916 q 474 842 526 869 q 401 795 422 815 q 399 790 400 793 q 395 782 397 788 q 393 772 393 776 q 409 757 395 762 q 488 735 435 745 q 577 709 541 726 q 620 676 606 697 q 623 633 633 654 q 587 604 612 609 q 536 614 562 599 q 494 643 515 626 q 460 673 473 659 q 429 702 447 687 q 393 727 411 718 q 390 729 392 728 q 381 732 387 730 q 372 732 374 734 q 366 727 368 730 q 363 723 364 725 q 362 717 363 721 q 362 711 362 713 q 366 630 359 683 q 368 536 372 576 q 348 486 364 505 q 309 471 332 467 q 271 495 283 474 q 264 546 258 516 q 298 637 272 585 q 329 719 323 690 q 324 739 330 733 q 304 744 318 747 q 254 727 280 739 q 199 702 229 715 q 138 683 170 690 q 84 686 109 677 q 57 719 60 695 z "},"+":{"ha":852,"x_min":49,"x_max":804,"o":"m 49 359 q 56 396 49 369 q 73 431 62 423 l 380 431 l 380 746 q 448 763 427 763 q 457 762 453 763 q 463 760 460 761 q 466 757 465 758 q 469 755 468 755 l 469 753 l 469 431 l 790 431 q 797 429 793 431 q 802 423 800 427 q 804 412 804 418 q 797 373 804 394 q 779 343 789 353 l 469 343 l 469 25 q 401 8 446 8 q 387 13 393 8 q 380 22 380 17 l 380 343 l 58 343 q 49 359 49 343 z "},",":{"ha":316,"x_min":26,"x_max":236,"o":"m 26 -186 q 50 -168 41 -175 q 75 -143 58 -161 q 101 -109 91 -126 q 118 -66 111 -92 q 126 -11 126 -39 q 121 16 126 3 q 107 39 115 28 q 92 60 100 49 q 79 85 85 71 q 74 117 74 100 q 85 151 74 134 q 118 181 96 168 q 167 193 140 193 q 208 182 189 193 q 236 73 236 134 q 218 -4 236 40 q 173 -90 200 -49 q 113 -167 146 -132 q 50 -218 80 -203 q 40 -212 45 -218 q 30 -198 34 -206 q 26 -186 26 -191 z "},"-":{"ha":593,"x_min":92,"x_max":502,"o":"m 92 330 q 112 411 92 367 q 491 429 439 428 q 499 427 496 429 q 502 415 502 424 q 481 330 502 374 q 102 313 449 328 q 96 315 98 313 q 93 320 94 316 q 92 330 92 323 z "},".":{"ha":326,"x_min":75,"x_max":249,"o":"m 75 71 q 87 113 75 94 q 120 144 100 133 q 163 156 140 156 q 224 131 199 156 q 249 71 249 106 q 224 9 249 35 q 163 -18 199 -18 q 102 9 128 -18 q 75 71 75 35 z "},"/":{"ha":650,"x_min":47,"x_max":601,"o":"m 47 -44 l 517 1174 q 523 1180 518 1176 q 535 1187 528 1183 q 555 1195 543 1192 q 581 1198 568 1198 q 594 1193 589 1198 q 601 1183 600 1188 l 137 -19 q 116 -43 132 -31 q 75 -55 100 -55 q 58 -52 65 -55 q 49 -47 51 -50 l 47 -44 z "},":":{"ha":355,"x_min":92,"x_max":264,"o":"m 92 71 q 118 131 92 106 q 179 156 144 156 q 240 131 215 156 q 264 71 264 106 q 239 9 264 35 q 179 -18 214 -18 q 118 9 144 -18 q 92 71 92 35 m 92 593 q 118 653 92 628 q 179 678 144 678 q 240 653 215 678 q 264 593 264 629 q 239 531 264 557 q 179 505 214 505 q 118 531 144 505 q 92 593 92 557 z "},";":{"ha":365,"x_min":60,"x_max":269,"o":"m 60 -186 q 83 -168 74 -175 q 108 -143 92 -161 q 134 -109 124 -126 q 151 -66 143 -92 q 159 -11 159 -39 q 154 16 159 3 q 141 39 149 28 q 125 60 133 49 q 113 85 118 71 q 107 117 107 100 q 118 151 107 134 q 151 181 129 168 q 200 193 173 193 q 241 182 222 193 q 269 73 269 134 q 240 -32 269 29 q 166 -145 210 -93 q 83 -218 123 -197 q 75 -215 79 -218 q 67 -206 71 -211 q 62 -195 64 -201 q 60 -186 60 -189 m 96 593 q 122 653 96 628 q 184 678 149 678 q 244 653 220 678 q 269 593 269 629 q 244 531 269 557 q 184 505 219 505 q 122 531 149 505 q 96 593 96 557 z "},"<":{"ha":774,"x_min":47,"x_max":699,"o":"m 47 341 q 75 379 47 365 l 656 673 q 664 677 663 677 q 670 671 667 677 q 680 647 674 665 q 690 603 686 629 q 690 595 692 598 q 688 590 689 591 l 686 589 l 173 329 l 694 64 q 699 55 699 63 q 689 10 699 44 q 673 -24 680 -24 q 665 -20 672 -24 l 75 279 q 47 341 47 294 z "},"=":{"ha":888,"x_min":102,"x_max":784,"o":"m 111 224 q 137 273 120 262 l 140 275 l 774 275 q 784 255 784 273 q 774 216 783 238 q 753 189 764 194 l 115 189 q 111 224 102 189 m 111 451 q 137 500 120 489 q 140 502 138 501 l 774 502 q 784 482 784 499 q 774 443 783 465 q 753 415 764 420 l 115 415 q 111 451 102 415 z "},">":{"ha":775,"x_min":75,"x_max":727,"o":"m 75 55 q 77 60 75 58 q 79 64 78 62 l 80 64 l 601 329 l 90 589 q 85 601 85 590 q 90 633 85 614 q 101 664 95 651 q 110 677 107 677 q 118 673 112 677 l 700 379 q 727 341 727 366 q 722 302 727 318 q 700 279 716 287 l 110 -20 q 102 -24 104 -24 q 85 10 96 -24 q 75 55 75 43 z "},"?":{"ha":559,"x_min":88,"x_max":488,"o":"m 88 941 q 102 999 88 979 q 178 1010 124 1010 q 250 998 210 1010 q 332 960 290 985 q 409 901 374 935 q 466 820 444 867 q 488 719 488 772 q 452 583 488 638 q 329 478 416 528 q 254 426 296 459 q 206 380 213 393 q 199 357 201 372 q 196 331 196 342 q 196 298 196 321 q 197 271 197 276 q 193 264 195 267 q 189 258 191 261 q 185 254 187 256 q 179 252 182 253 q 172 250 176 251 q 151 267 157 256 q 144 310 147 283 q 140 362 141 336 q 138 411 138 389 q 143 454 138 433 q 153 489 147 474 q 170 519 159 505 q 189 544 180 534 q 213 565 197 553 q 237 583 228 577 q 262 599 245 589 q 272 606 269 604 q 298 622 292 618 q 320 637 304 626 q 342 652 336 648 q 360 668 348 657 q 378 685 373 678 q 390 702 382 691 q 401 721 398 712 q 407 742 404 730 q 409 766 409 754 q 374 860 409 825 q 293 895 340 895 q 242 890 264 895 q 209 879 220 885 q 184 867 198 873 q 157 862 170 862 q 112 884 136 862 q 88 941 88 906 m 99 71 q 125 131 99 106 q 187 156 151 156 q 247 131 222 156 q 272 71 272 106 q 261 27 272 47 q 230 -5 250 7 q 187 -18 210 -18 q 125 9 152 -18 q 99 71 99 35 z "},"@":{"ha":1177,"x_min":77,"x_max":1120,"o":"m 77 267 q 95 422 77 345 q 146 571 113 500 q 231 704 180 642 q 345 811 282 766 q 488 883 408 857 q 658 909 569 909 q 780 896 722 909 q 884 856 838 882 q 969 796 930 831 q 1036 719 1008 761 q 1082 628 1063 676 q 1111 529 1101 580 q 1120 425 1120 477 q 1095 255 1120 336 q 1027 116 1070 175 q 924 23 985 58 q 796 -11 864 -11 q 700 22 735 -11 q 665 124 665 55 q 669 163 665 138 q 677 197 673 187 q 651 153 667 177 q 612 100 635 129 q 564 47 588 71 q 510 8 539 24 q 454 -8 481 -8 q 373 22 408 -8 q 322 100 338 53 q 305 205 305 148 q 324 319 305 260 q 374 431 342 378 q 450 530 406 484 q 543 611 494 577 q 647 665 592 645 q 755 684 703 684 q 870 664 814 684 l 774 167 q 769 127 769 148 q 790 74 769 92 q 845 57 811 57 q 920 86 882 57 q 988 164 958 116 q 1038 281 1019 213 q 1057 420 1057 349 q 1042 546 1057 485 q 995 662 1027 607 q 917 758 963 717 q 804 822 871 798 q 658 846 737 846 q 508 823 580 846 q 381 757 437 799 q 279 660 325 715 q 202 539 233 604 q 156 405 172 475 q 140 267 140 336 q 156 139 140 201 q 202 28 173 77 q 269 -59 231 -21 q 349 -123 306 -98 q 413 -154 387 -145 q 467 -167 439 -162 q 457 -180 467 -173 q 433 -191 447 -186 q 411 -195 420 -195 q 349 -186 374 -195 q 246 -123 295 -165 q 159 -23 197 -81 q 99 111 121 35 q 77 267 77 186 m 422 237 q 502 83 422 83 q 587 139 540 83 q 670 275 633 194 q 722 431 707 356 l 753 591 q 689 612 735 612 q 615 591 654 612 q 543 532 576 570 q 481 448 509 494 q 438 346 454 401 q 422 237 422 290 z "},"A":{"ha":986,"x_min":-22,"x_max":995,"o":"m -19 -5 q -22 16 -22 -1 q -19 41 -22 33 q 33 49 1 41 q 75 71 65 57 q 113 132 97 98 q 149 218 129 166 q 453 998 357 753 q 464 1011 456 1003 q 480 1026 471 1019 q 499 1038 490 1034 q 513 1043 508 1043 q 518 1041 515 1043 q 522 1038 520 1039 l 844 198 q 883 94 882 95 q 915 64 890 77 q 960 46 939 51 q 989 41 981 41 q 995 18 995 34 q 993 -5 995 1 q 939 -2 973 -4 q 878 2 905 1 q 820 3 850 3 q 760 2 787 3 q 697 -1 732 1 q 637 -5 663 -3 q 632 18 631 1 q 639 41 633 35 q 687 47 656 41 q 727 61 718 53 q 733 83 733 68 q 706 181 733 104 q 653 324 680 258 l 626 390 q 616 397 621 397 q 461 398 596 398 q 291 393 362 398 q 288 392 290 393 q 284 390 286 391 l 283 389 q 212 197 239 272 q 191 85 191 132 q 201 66 191 75 q 225 53 211 58 q 255 46 239 49 q 283 42 272 43 q 299 41 294 41 q 303 20 302 37 q 302 -5 304 2 q 253 -1 279 -3 q 203 2 226 1 q 149 3 180 3 q 93 2 117 3 q 38 -1 68 1 q -19 -5 8 -3 m 313 469 q 316 463 313 463 q 459 459 398 459 q 591 464 518 459 q 594 466 593 464 q 596 470 595 468 l 596 472 l 458 852 l 313 469 z "},"B":{"ha":937,"x_min":65,"x_max":869,"o":"m 71 41 q 136 48 95 41 q 179 66 176 55 q 187 182 187 92 l 187 854 q 179 970 187 945 q 136 989 176 982 q 71 996 95 996 q 65 1019 65 1002 q 65 1021 65 1019 q 71 1042 65 1036 q 129 1039 87 1041 q 200 1035 172 1036 q 256 1034 229 1034 q 356 1035 283 1034 q 480 1037 429 1037 q 553 1032 517 1037 q 626 1016 589 1027 q 692 987 662 1006 q 746 943 722 968 q 783 882 770 918 q 796 802 796 846 q 779 719 796 760 q 737 650 762 679 q 686 602 711 621 q 637 574 660 583 q 637 566 631 571 q 681 557 657 566 q 731 534 705 549 q 782 497 758 519 q 826 447 806 474 q 857 386 845 420 q 869 313 869 351 q 763 80 869 168 q 433 -5 665 -2 l 71 -5 q 65 16 65 1 q 71 41 65 34 m 324 181 q 328 118 324 154 q 338 74 331 81 q 359 59 347 65 q 388 50 371 53 q 421 46 405 47 q 463 45 438 45 q 534 51 501 45 q 601 72 567 56 q 659 112 635 87 q 698 179 683 137 q 713 277 713 222 q 420 522 713 522 l 324 522 l 324 181 m 324 582 l 456 582 q 546 598 507 582 q 608 641 585 614 q 642 699 631 667 q 653 766 653 731 q 587 928 653 870 q 411 987 522 987 q 332 970 339 987 q 324 852 324 952 l 324 582 z "},"C":{"ha":1060,"x_min":75,"x_max":994,"o":"m 75 507 q 89 629 75 569 q 127 743 102 690 q 187 844 152 796 q 268 929 222 891 q 367 994 314 966 q 480 1035 419 1021 q 608 1049 542 1049 q 941 1017 788 1049 q 977 783 977 800 q 975 776 978 780 q 966 770 971 772 q 955 765 961 767 q 943 763 948 763 q 924 768 930 763 q 919 789 921 780 q 911 816 917 798 q 898 849 905 835 q 878 884 890 864 q 849 918 865 903 q 810 949 833 933 q 759 975 787 964 q 695 991 732 985 q 615 998 658 998 q 486 971 547 998 q 379 900 425 945 q 300 796 334 854 q 249 672 266 738 q 231 540 231 606 q 247 394 231 465 q 297 258 263 322 q 378 147 330 195 q 493 71 425 99 q 640 43 561 43 q 848 118 764 43 q 944 300 919 182 q 952 301 948 301 q 994 288 975 301 q 974 166 994 258 q 939 61 954 74 q 601 -9 814 -9 q 427 17 509 -9 q 281 92 345 44 q 171 204 218 140 q 100 346 124 269 q 75 507 75 424 z "},"D":{"ha":1117,"x_min":65,"x_max":1037,"o":"m 71 41 q 136 48 95 41 q 179 66 176 55 q 187 182 187 92 l 187 854 q 179 970 187 945 q 136 989 176 982 q 71 996 95 996 q 65 1019 65 1002 q 65 1021 65 1019 q 71 1042 65 1036 q 129 1039 87 1041 q 200 1035 172 1036 q 256 1034 229 1034 q 368 1035 286 1034 q 485 1036 449 1036 q 716 997 611 1036 q 890 889 821 958 q 999 728 960 821 q 1037 526 1037 634 q 1028 412 1037 466 q 1001 303 1020 357 q 951 204 981 250 q 876 120 922 159 q 772 54 830 81 q 635 11 714 26 q 464 -5 557 -5 l 71 -5 q 65 16 65 1 q 71 41 65 34 m 326 181 q 328 113 326 151 q 335 68 330 74 q 464 45 351 45 q 593 62 532 45 q 707 115 654 79 q 799 202 760 151 q 859 329 837 254 q 881 492 881 403 q 857 680 881 596 q 792 820 833 764 q 694 913 751 876 q 575 968 637 951 q 442 985 512 985 q 417 984 431 985 q 383 982 403 984 q 349 977 363 981 q 334 968 335 973 q 326 851 326 943 l 326 181 z "},"E":{"ha":923,"x_min":65,"x_max":880,"o":"m 71 41 q 136 48 95 41 q 179 66 176 55 q 187 182 187 92 l 187 854 q 179 970 187 945 q 136 989 176 982 q 71 996 95 996 q 65 1019 65 1002 q 65 1021 65 1019 q 71 1042 65 1036 q 129 1039 87 1041 q 200 1035 172 1036 q 256 1034 229 1034 q 501 1039 328 1034 q 763 1044 674 1044 q 787 924 770 999 q 808 831 805 849 q 781 823 801 823 q 758 834 760 823 q 728 910 746 880 q 685 955 709 940 q 635 976 661 970 q 576 982 610 982 l 441 982 q 416 981 430 982 q 381 979 401 981 q 348 974 361 977 q 332 964 334 970 q 324 852 324 939 l 324 559 q 392 549 324 549 l 475 549 q 523 549 505 549 q 559 552 541 549 q 586 556 577 555 q 605 565 595 558 q 619 577 615 572 q 629 595 623 581 q 637 618 634 609 q 645 649 640 627 q 648 663 647 658 q 672 673 650 673 q 699 665 690 673 l 699 368 q 673 362 692 362 q 648 374 653 362 q 629 439 637 418 q 617 467 621 461 q 604 478 612 473 q 437 491 585 491 q 324 477 324 491 l 324 178 q 324 151 324 163 q 325 119 324 139 q 328 85 326 98 q 334 69 330 72 q 369 56 348 58 q 446 54 389 54 l 521 54 q 632 65 578 54 q 719 96 686 77 q 747 118 734 104 q 768 145 760 132 q 787 179 777 158 q 803 215 797 200 q 818 255 808 229 q 840 264 821 264 q 856 263 848 264 q 871 259 865 262 q 880 255 877 257 q 856 190 872 235 q 829 117 840 144 q 809 53 819 89 q 795 -6 798 18 q 541 -3 713 -6 q 258 0 368 0 q 160 -2 220 0 q 71 -5 100 -5 q 65 16 65 1 q 71 41 65 34 z "},"F":{"ha":842,"x_min":65,"x_max":808,"o":"m 71 41 q 136 48 95 41 q 179 66 176 55 q 187 182 187 92 l 187 854 q 179 970 187 945 q 136 989 176 982 q 71 996 95 996 q 65 1019 65 1002 q 65 1021 65 1019 q 71 1042 65 1036 q 129 1039 87 1041 q 200 1035 172 1036 q 256 1034 229 1034 q 501 1039 328 1034 q 763 1044 674 1044 q 787 924 770 999 q 808 831 805 849 q 781 823 801 823 q 758 834 760 823 q 728 910 746 880 q 685 955 709 940 q 635 976 661 970 q 576 982 610 982 l 441 982 q 416 981 430 982 q 381 979 401 981 q 348 974 361 977 q 332 964 334 970 q 324 852 324 939 l 324 559 q 392 549 324 549 l 475 549 q 523 549 505 549 q 559 552 541 549 q 586 556 577 555 q 605 565 595 558 q 619 577 615 572 q 629 595 623 581 q 637 618 634 609 q 645 649 640 627 q 648 663 647 658 q 672 673 650 673 q 699 665 690 673 l 699 368 q 673 362 692 362 q 648 374 653 362 q 629 439 637 418 q 617 467 621 461 q 604 478 612 473 q 437 491 585 491 q 324 477 324 491 l 324 182 q 332 66 324 92 q 383 48 335 55 q 456 41 431 41 q 461 18 461 35 q 456 -5 462 1 q 256 3 295 3 q 159 -1 218 3 q 71 -5 100 -5 q 65 16 65 1 q 71 41 65 34 z "},"G":{"ha":1133,"x_min":75,"x_max":1093,"o":"m 75 507 q 89 629 75 569 q 127 743 102 690 q 187 844 152 796 q 268 929 222 891 q 367 994 314 966 q 480 1035 419 1021 q 608 1049 542 1049 q 941 1017 788 1049 q 977 783 977 800 q 975 776 978 780 q 966 770 971 772 q 955 765 961 767 q 943 763 948 763 q 924 768 930 763 q 919 789 921 780 q 911 816 917 798 q 898 849 905 835 q 878 884 890 864 q 849 918 865 903 q 810 949 833 933 q 759 975 787 964 q 695 991 732 985 q 615 998 658 998 q 486 971 547 998 q 379 900 425 945 q 300 796 334 854 q 249 672 266 738 q 231 540 231 606 q 239 435 231 487 q 264 334 248 383 q 306 241 281 284 q 364 161 330 197 q 439 98 398 124 q 531 57 479 72 q 640 43 583 43 q 740 56 695 43 q 831 93 785 70 q 842 117 842 98 l 842 275 q 834 392 842 367 q 791 410 831 403 q 727 417 751 417 q 722 440 722 423 q 727 463 721 456 q 785 459 744 462 q 855 456 827 457 q 911 454 884 454 q 966 456 939 454 q 1030 459 993 457 q 1087 463 1067 462 q 1093 441 1093 457 q 1087 417 1093 424 q 1026 410 1064 417 q 985 392 988 403 q 977 275 977 367 l 977 163 q 981 137 977 149 q 989 116 985 125 q 993 100 993 106 q 990 92 993 96 q 982 84 988 89 q 962 73 975 79 q 917 50 933 58 q 866 28 901 41 q 798 8 831 16 q 712 -4 764 1 q 601 -9 661 -9 q 427 17 509 -9 q 281 92 345 44 q 171 204 218 140 q 100 346 124 269 q 75 507 75 424 z "},"H":{"ha":1142,"x_min":65,"x_max":1077,"o":"m 71 45 q 136 53 95 45 q 179 71 176 60 q 187 187 187 96 l 187 850 q 179 966 187 941 q 136 984 176 977 q 71 991 95 991 q 65 1017 65 998 q 65 1019 65 1018 q 71 1042 65 1036 q 129 1039 87 1041 q 200 1035 172 1036 q 256 1034 229 1034 q 303 1035 278 1034 q 347 1037 328 1036 q 394 1039 366 1038 q 441 1042 422 1041 q 446 1017 446 1036 q 441 991 446 998 q 376 984 416 991 q 332 966 335 977 q 324 850 324 941 l 324 574 q 325 572 324 573 q 326 570 326 570 l 328 570 q 574 565 559 565 q 815 570 603 565 q 818 576 818 572 l 818 850 q 810 966 818 941 q 766 984 807 977 q 702 991 726 991 q 696 1017 696 998 q 702 1042 696 1036 q 760 1039 718 1041 q 831 1035 802 1036 q 887 1034 860 1034 q 934 1035 909 1034 q 978 1037 959 1036 q 1025 1039 996 1038 q 1072 1042 1054 1041 q 1077 1019 1077 1036 q 1077 1017 1077 1017 q 1072 991 1077 998 q 1007 984 1048 991 q 963 966 966 977 q 955 850 955 941 l 955 187 q 963 71 955 96 q 1007 53 966 60 q 1072 45 1048 45 q 1077 20 1077 39 q 1077 18 1077 19 q 1072 -5 1077 1 q 1013 -2 1055 -4 q 943 2 972 1 q 887 3 915 3 q 831 2 860 3 q 760 -2 802 1 q 702 -5 718 -4 q 696 20 696 1 q 702 45 696 39 q 737 48 714 45 q 784 57 760 51 q 810 71 808 63 q 818 187 818 96 l 818 498 q 817 502 818 500 q 816 504 817 503 l 815 505 q 709 508 796 505 q 574 511 621 511 q 326 502 345 511 l 324 498 l 324 187 q 332 71 324 96 q 376 53 335 60 q 441 45 416 45 q 446 20 446 39 q 441 -5 446 1 q 382 -2 424 -4 q 313 2 341 1 q 256 3 284 3 q 200 2 229 3 q 129 -2 172 1 q 71 -5 87 -4 q 65 18 65 1 q 71 45 65 39 z "},"I":{"ha":509,"x_min":65,"x_max":446,"o":"m 71 41 q 136 48 95 41 q 179 66 176 55 q 187 182 187 92 l 187 854 q 179 970 187 945 q 136 989 176 982 q 71 996 95 996 q 65 1019 65 1002 q 65 1021 65 1019 q 71 1042 65 1036 q 129 1039 87 1041 q 200 1035 172 1036 q 256 1034 229 1034 q 303 1035 278 1034 q 347 1037 328 1036 q 394 1039 366 1038 q 441 1042 422 1041 q 446 1021 446 1036 q 446 1019 446 1020 q 441 996 446 1002 q 376 989 416 996 q 332 970 335 982 q 324 854 324 945 l 324 182 q 332 66 324 92 q 376 48 335 55 q 441 41 416 41 q 446 18 446 34 q 446 16 446 17 q 441 -5 446 1 q 382 -2 424 -4 q 313 2 341 1 q 256 3 284 3 q 200 2 229 3 q 129 -2 172 1 q 71 -5 87 -4 q 65 16 65 1 q 71 41 65 34 z "},"J":{"ha":492,"x_min":-163,"x_max":438,"o":"m -163 -293 q -144 -230 -163 -254 q -88 -205 -124 -205 q -60 -213 -75 -205 q -37 -228 -44 -222 q -13 -250 -30 -234 q 58 -283 24 -283 q 96 -272 79 -283 q 129 -229 113 -260 q 156 -146 145 -197 q 173 -12 167 -95 q 179 182 179 71 l 179 854 q 172 970 179 945 q 127 989 168 982 q 63 996 87 996 q 57 1019 58 1002 q 63 1042 57 1036 q 121 1039 79 1041 q 192 1035 163 1036 q 249 1034 221 1034 q 304 1035 276 1034 q 374 1039 333 1036 q 433 1042 416 1041 q 438 1021 438 1036 q 433 996 438 1003 q 368 989 409 996 q 324 970 327 982 q 316 854 316 945 l 316 191 q 298 -17 316 75 q 248 -172 280 -109 q 169 -277 216 -235 q 68 -338 123 -319 q -52 -357 13 -357 q -104 -348 -71 -357 q -151 -329 -138 -339 q -160 -313 -157 -323 q -163 -293 -163 -302 z "},"K":{"ha":1034,"x_min":65,"x_max":1042,"o":"m 71 45 q 136 53 95 45 q 179 71 176 60 q 187 187 187 96 l 187 850 q 179 966 187 941 q 136 984 176 977 q 71 991 95 991 q 65 1017 65 998 q 65 1019 65 1018 q 71 1042 65 1036 q 129 1039 87 1041 q 200 1035 172 1036 q 256 1034 229 1034 q 303 1035 278 1034 q 347 1037 328 1036 q 394 1039 366 1038 q 441 1042 422 1041 q 446 1017 446 1036 q 441 991 446 998 q 376 984 416 991 q 332 966 335 977 q 324 850 324 941 l 324 536 q 502 695 365 562 q 631 826 595 788 q 702 909 667 864 q 724 958 724 939 q 721 970 724 964 q 714 979 719 975 q 704 985 709 982 q 692 989 699 987 q 679 991 684 990 q 665 992 673 992 q 652 993 656 993 q 642 993 648 993 q 635 993 636 993 q 632 1015 632 1000 q 635 1042 632 1031 q 692 1038 654 1040 q 760 1034 730 1036 q 817 1032 791 1032 q 874 1034 847 1032 q 933 1038 902 1036 q 987 1042 964 1040 q 989 1014 989 1034 q 983 993 989 993 q 971 991 983 993 q 948 990 958 991 q 920 985 938 989 q 888 975 903 981 q 857 959 873 970 q 827 935 840 948 q 730 831 780 882 q 650 751 680 780 q 556 661 620 722 q 464 572 493 601 q 464 560 460 566 q 526 489 473 551 q 591 412 578 427 q 646 349 603 398 q 707 280 688 300 q 759 224 726 260 q 817 162 791 188 q 867 113 842 137 q 940 64 901 82 q 1038 41 979 45 q 1042 25 1042 35 q 1041 16 1042 21 q 1037 -5 1039 0 q 813 13 863 -5 q 707 80 752 35 q 353 478 663 123 q 338 483 349 483 q 324 480 330 483 l 324 187 q 332 71 324 96 q 376 53 335 60 q 441 45 416 45 q 446 20 446 39 q 441 -5 446 1 q 382 -2 424 -4 q 313 2 341 1 q 256 3 284 3 q 200 2 229 3 q 129 -2 172 1 q 71 -5 87 -4 q 65 18 65 1 q 71 45 65 39 z "},"L":{"ha":887,"x_min":65,"x_max":880,"o":"m 71 41 q 136 48 95 41 q 179 66 176 55 q 187 182 187 92 l 187 854 q 179 970 187 945 q 136 989 176 982 q 71 996 95 996 q 65 1019 65 1002 q 65 1021 65 1019 q 71 1042 65 1036 q 129 1039 87 1041 q 200 1035 172 1036 q 256 1034 229 1034 q 303 1035 278 1034 q 347 1037 328 1036 q 394 1039 366 1038 q 441 1042 422 1041 q 446 1019 446 1036 q 441 996 446 1002 q 376 989 416 996 q 332 970 335 982 q 324 854 324 945 l 324 182 q 324 155 324 167 q 325 121 324 142 q 328 86 326 100 q 334 69 330 72 q 369 56 348 58 q 446 54 389 54 l 535 54 q 636 65 585 54 q 719 96 688 75 q 818 255 783 140 q 840 264 821 264 q 856 263 848 264 q 871 259 865 262 q 880 255 877 257 q 856 190 872 235 q 829 117 840 144 q 809 53 819 89 q 795 -6 798 18 q 541 -3 713 -6 q 258 0 368 0 q 160 -2 220 0 q 71 -5 100 -5 q 65 16 65 1 q 71 41 65 34 z "},"M":{"ha":1427,"x_min":37,"x_max":1375,"o":"m 37 15 q 37 19 37 18 q 41 41 37 33 q 113 48 66 41 q 168 69 159 56 q 187 148 184 93 q 199 499 194 319 q 207 781 205 680 q 210 900 210 882 q 203 963 210 945 q 156 986 199 975 q 93 996 114 996 q 90 1018 90 996 q 93 1042 90 1039 q 164 1037 115 1040 q 255 1034 213 1034 q 382 1042 296 1034 q 454 861 396 999 q 591 532 511 722 q 716 230 671 341 q 722 227 718 227 q 730 233 728 227 q 970 852 960 825 q 1001 932 983 885 q 1029 1010 1018 979 l 1040 1042 q 1164 1036 1141 1036 q 1341 1042 1262 1036 l 1345 996 q 1281 987 1323 996 q 1234 968 1239 978 q 1225 908 1225 950 q 1230 739 1227 860 q 1236 454 1233 617 q 1241 220 1240 291 q 1260 68 1244 111 q 1306 47 1265 54 q 1371 41 1346 41 q 1375 17 1375 32 q 1373 -5 1375 1 q 1317 -2 1359 -4 q 1246 2 1276 1 q 1186 3 1217 3 q 1125 2 1154 3 q 1059 -1 1096 1 q 998 -5 1022 -3 q 994 15 995 -2 q 998 41 994 31 q 1052 46 1017 41 q 1100 58 1087 51 q 1114 124 1114 66 q 1113 169 1114 135 q 1111 216 1111 203 q 1090 889 1097 700 q 1087 909 1090 897 q 1076 920 1083 920 q 1068 909 1073 920 q 736 77 1032 819 q 708 29 728 60 q 677 -3 688 -1 q 663 0 674 -4 l 279 919 q 274 707 277 823 q 269 492 271 590 q 263 309 266 394 q 259 173 260 224 q 258 118 258 122 q 264 69 258 86 q 316 47 271 54 q 389 41 361 41 q 394 18 394 35 q 392 -5 394 1 q 339 -1 371 -3 q 281 2 307 1 q 225 3 256 3 q 164 2 193 3 q 101 -1 136 1 q 41 -5 66 -3 q 37 15 38 -1 z "},"N":{"ha":1221,"x_min":60,"x_max":1177,"o":"m 60 18 q 64 41 60 29 q 133 51 87 41 q 187 73 180 60 q 200 111 197 90 q 203 179 203 132 l 203 862 q 202 912 203 895 q 197 943 201 929 q 187 969 194 958 q 155 986 182 978 q 102 997 128 994 q 64 1001 76 1001 q 60 1024 60 1013 q 60 1027 60 1025 q 64 1046 60 1039 q 142 1042 90 1045 q 225 1038 195 1038 q 345 1042 300 1038 q 494 847 378 989 q 749 534 610 705 q 962 261 888 363 l 962 353 l 962 857 q 961 907 962 892 q 957 938 960 922 q 945 966 954 954 q 894 987 939 977 q 826 998 849 998 q 820 1021 821 1005 q 823 1043 820 1037 q 878 1040 840 1042 q 944 1037 916 1038 q 1004 1036 972 1036 q 1060 1037 1036 1036 q 1115 1040 1085 1038 q 1172 1043 1145 1042 q 1177 1024 1176 1036 q 1177 1021 1177 1023 q 1172 998 1177 1009 q 1103 988 1150 998 q 1049 966 1057 979 q 1037 928 1040 949 q 1034 859 1034 907 l 1034 218 q 1037 1 1034 83 q 1017 -8 1035 -8 q 992 1 1008 -8 q 962 28 976 9 l 275 895 l 275 181 q 276 132 275 146 q 280 101 277 117 q 291 73 283 85 q 320 57 296 65 q 370 45 344 50 q 409 41 395 41 q 415 17 414 33 q 412 -5 415 1 q 357 -2 395 -4 q 292 2 320 1 q 233 3 264 3 q 176 2 201 3 q 121 -1 151 1 q 64 -5 92 -3 q 60 18 60 3 z "},"O":{"ha":1177,"x_min":77,"x_max":1100,"o":"m 77 516 q 118 723 77 624 q 228 893 159 822 q 391 1007 296 965 q 587 1049 485 1049 q 702 1036 646 1049 q 810 998 759 1023 q 905 938 861 973 q 985 858 949 903 q 1046 759 1021 812 q 1086 644 1072 706 q 1100 516 1100 582 q 1058 309 1100 408 q 947 139 1017 210 q 784 26 878 68 q 587 -16 689 -16 q 391 24 484 -16 q 228 133 297 64 q 118 302 159 202 q 77 516 77 402 m 233 551 q 249 404 233 477 q 296 265 264 331 q 373 148 328 199 q 479 68 417 98 q 612 38 541 38 q 737 64 680 38 q 831 134 793 90 q 895 237 869 178 q 932 358 921 295 q 944 486 944 420 q 928 633 944 560 q 880 771 912 705 q 803 886 848 836 q 696 966 758 937 q 564 996 634 996 q 439 970 495 996 q 345 900 382 943 q 281 798 307 857 q 244 678 256 740 q 233 551 233 616 z "},"P":{"ha":862,"x_min":65,"x_max":815,"o":"m 71 41 q 136 48 95 41 q 179 66 176 55 q 187 182 187 92 l 187 854 q 179 970 187 945 q 136 989 176 982 q 71 996 95 996 q 65 1019 65 1002 q 65 1021 65 1019 q 71 1042 65 1036 q 129 1039 87 1041 q 200 1035 172 1036 q 256 1034 229 1034 q 356 1035 283 1034 q 480 1037 429 1037 q 551 1031 515 1037 q 619 1013 586 1025 q 682 983 652 1000 q 736 942 711 966 q 778 889 760 918 q 805 827 795 861 q 815 753 815 792 q 772 587 815 659 q 650 476 728 515 q 469 437 571 437 q 433 441 454 437 q 401 450 412 444 q 379 485 379 465 q 381 491 379 488 q 387 492 383 494 q 447 481 427 481 q 535 498 494 481 q 606 545 576 514 q 653 623 636 576 q 670 727 670 669 q 604 917 670 847 q 411 987 538 987 q 332 970 339 987 q 324 852 324 952 l 324 182 q 332 66 324 92 q 376 48 335 55 q 441 41 416 41 q 446 18 446 35 q 441 -5 446 1 q 382 -2 424 -4 q 313 2 341 1 q 256 3 284 3 q 200 2 229 3 q 129 -2 172 1 q 71 -5 87 -4 q 65 16 65 1 q 71 41 65 34 z "},"Q":{"ha":1175,"x_min":77,"x_max":1219,"o":"m 77 516 q 118 723 77 624 q 228 893 159 822 q 391 1007 296 965 q 587 1049 485 1049 q 702 1036 646 1049 q 810 998 759 1023 q 905 938 861 973 q 985 858 949 903 q 1046 759 1021 812 q 1086 644 1072 706 q 1100 516 1100 582 q 1082 377 1100 445 q 1031 251 1064 309 q 952 145 998 193 q 851 61 907 97 q 733 6 795 26 q 810 -35 771 -12 q 874 -73 850 -58 q 929 -101 899 -87 q 996 -121 960 -115 q 1078 -127 1031 -127 q 1190 -118 1156 -127 q 1218 -129 1209 -118 q 1219 -134 1219 -131 q 1084 -194 1144 -174 q 958 -214 1024 -214 q 863 -197 911 -214 q 768 -154 814 -180 q 677 -98 722 -127 q 574 -42 631 -70 q 461 0 517 -14 q 309 67 379 20 q 187 180 239 114 q 106 333 136 245 q 77 516 77 420 m 233 551 q 249 404 233 477 q 296 265 264 331 q 373 148 328 199 q 479 68 417 98 q 612 38 541 38 q 737 64 680 38 q 831 134 793 90 q 895 237 869 178 q 932 358 921 295 q 944 486 944 420 q 928 633 944 560 q 880 771 912 705 q 803 886 848 836 q 696 966 758 937 q 564 996 634 996 q 439 970 495 996 q 345 900 382 943 q 281 798 307 857 q 244 678 256 740 q 233 551 233 616 z "},"R":{"ha":977,"x_min":65,"x_max":1020,"o":"m 71 41 q 136 48 95 41 q 179 66 176 55 q 187 182 187 92 l 187 854 q 179 970 187 945 q 136 989 176 982 q 71 996 95 996 q 65 1019 65 1002 q 65 1021 65 1019 q 71 1042 65 1036 q 129 1039 87 1041 q 200 1035 172 1036 q 256 1034 229 1034 q 356 1035 283 1034 q 480 1037 429 1037 q 568 1026 524 1037 q 654 992 612 1015 q 728 938 696 970 q 780 862 760 907 q 800 765 800 817 q 781 682 800 724 q 732 606 762 640 q 663 545 701 572 q 585 505 625 519 q 702 323 646 404 q 839 136 758 242 q 914 67 874 89 q 1017 41 954 45 q 1020 25 1020 35 q 1019 16 1020 21 q 1015 -5 1017 0 q 807 14 861 -5 q 803 16 806 15 q 790 20 795 18 q 775 26 785 22 q 758 35 766 31 q 741 47 751 40 q 723 63 732 54 q 705 83 713 73 q 604 231 684 111 q 454 456 523 351 q 408 475 442 475 l 324 475 l 324 182 q 332 66 324 92 q 376 48 335 55 q 441 41 416 41 q 446 18 446 35 q 441 -5 446 1 q 382 -2 424 -4 q 313 2 341 1 q 256 3 284 3 q 200 2 229 3 q 129 -2 172 1 q 71 -5 87 -4 q 65 16 65 1 q 71 41 65 34 m 324 524 l 409 524 q 499 540 455 524 q 577 585 543 556 q 632 657 611 614 q 653 751 653 701 q 640 845 653 803 q 597 920 626 888 q 522 969 569 951 q 411 987 475 987 q 332 970 339 987 q 324 852 324 952 l 324 524 z "},"S":{"ha":789,"x_min":77,"x_max":722,"o":"m 77 274 q 96 287 85 281 q 118 293 108 293 q 136 279 132 293 q 144 246 138 263 q 160 205 149 229 q 184 158 170 180 q 218 114 197 136 q 264 75 239 92 q 323 48 289 58 q 397 38 357 38 q 491 60 448 38 q 559 126 533 81 q 585 230 585 170 q 582 270 585 251 q 571 304 578 288 q 555 332 564 319 q 534 357 547 345 q 508 379 520 370 q 478 399 496 388 q 446 417 460 410 q 412 436 433 425 q 376 456 391 448 q 367 462 373 458 q 314 493 332 482 q 263 526 296 504 q 212 564 231 548 q 170 606 193 581 q 133 654 146 631 q 112 708 121 678 q 102 771 102 739 q 129 884 102 831 q 198 972 155 937 q 296 1028 241 1008 q 411 1048 352 1048 q 475 1044 445 1048 q 526 1035 506 1040 q 582 1020 545 1030 q 648 1004 619 1010 q 670 781 659 935 q 660 768 671 773 q 637 763 648 763 q 620 769 626 763 q 607 823 617 794 q 577 882 596 852 q 533 938 557 913 q 473 978 508 962 q 399 994 438 994 q 350 988 373 994 q 309 973 326 983 q 278 949 292 963 q 255 920 264 936 q 239 887 245 905 q 231 853 233 870 q 228 820 228 836 q 234 775 228 797 q 248 738 239 754 q 271 704 256 722 q 299 675 286 687 q 334 649 312 664 q 370 624 355 633 q 410 600 385 615 q 448 576 435 585 q 490 550 461 568 q 535 522 518 533 q 580 492 553 511 q 625 457 608 473 q 663 420 642 442 q 694 376 683 397 q 714 328 706 355 q 722 272 722 300 q 694 154 722 209 q 621 63 667 100 q 516 5 575 26 q 393 -16 456 -16 q 313 -10 356 -16 q 242 1 271 -5 q 170 17 214 7 q 110 30 127 26 q 87 173 98 92 q 77 274 77 255 z "},"T":{"ha":985,"x_min":19,"x_max":964,"o":"m 19 796 q 60 1067 41 902 q 96 1062 73 1074 q 139 1047 111 1055 q 184 1040 166 1040 l 800 1040 q 848 1048 817 1040 q 894 1063 878 1056 q 911 1070 906 1070 q 912 1070 911 1070 q 924 1067 918 1070 q 964 796 943 902 q 935 785 951 783 q 913 793 918 785 q 857 932 895 880 q 762 985 818 985 l 562 985 l 562 182 q 570 66 562 92 q 613 48 572 55 q 678 41 654 41 q 683 18 683 35 q 678 -5 684 1 q 620 -2 661 -4 q 550 2 578 1 q 494 3 522 3 q 438 2 467 3 q 367 -2 409 1 q 309 -5 324 -4 q 303 18 302 1 q 309 41 303 35 q 373 48 332 41 q 417 66 414 55 q 425 182 425 92 l 425 985 l 222 985 q 127 932 165 985 q 71 793 88 880 q 49 785 66 785 q 19 796 32 783 z "},"U":{"ha":1137,"x_min":40,"x_max":1112,"o":"m 40 1021 q 45 1042 40 1036 q 104 1039 62 1041 q 175 1035 146 1036 q 231 1034 203 1034 q 288 1035 259 1034 q 357 1039 316 1036 q 415 1042 399 1041 q 421 1019 421 1036 q 415 996 420 1002 q 351 989 391 996 q 307 970 310 982 q 299 854 299 945 l 299 466 q 376 176 299 273 q 591 85 448 85 q 897 431 890 85 l 897 857 q 894 928 897 907 q 881 966 892 949 q 832 987 875 977 q 768 998 790 998 q 762 1021 762 1005 q 765 1043 762 1037 q 808 1041 783 1042 q 850 1038 833 1039 q 891 1036 867 1037 q 939 1036 915 1036 q 996 1037 971 1036 q 1051 1040 1021 1038 q 1107 1043 1081 1042 q 1112 1024 1112 1036 q 1112 1021 1112 1023 q 1107 998 1112 1009 q 1039 988 1086 998 q 985 966 992 979 q 972 928 975 949 q 969 859 969 907 l 969 434 q 940 233 969 319 q 856 95 911 147 q 726 19 800 43 q 559 -6 652 -6 q 402 21 474 -6 q 279 98 331 47 q 193 227 223 151 q 162 395 162 302 l 162 854 q 154 970 162 945 q 110 989 151 982 q 45 996 69 996 q 40 1021 40 1002 z "},"V":{"ha":1004,"x_min":-12,"x_max":1028,"o":"m -9 996 q -12 1018 -12 996 q -9 1042 -12 1039 q 51 1038 16 1040 q 113 1035 85 1036 q 173 1034 141 1034 q 368 1042 211 1034 q 370 1016 371 1035 q 365 996 370 997 q 345 994 357 996 q 314 987 332 991 q 283 971 296 982 q 271 944 271 960 q 297 837 271 913 q 532 203 444 435 q 579 314 538 215 q 680 563 620 414 q 783 823 741 713 q 812 933 812 895 q 799 964 812 951 q 766 983 785 977 q 732 991 747 989 q 708 994 718 994 q 702 1016 702 997 q 708 1040 702 1034 q 871 1034 825 1034 q 918 1035 897 1034 q 952 1037 939 1036 q 986 1039 965 1038 q 1026 1042 1006 1040 q 1028 1027 1028 1038 q 1028 1016 1028 1023 q 1023 996 1027 996 q 972 986 1006 996 q 922 955 939 975 q 886 892 909 939 q 844 796 863 844 q 538 50 711 464 q 478 -3 516 -3 q 475 -1 477 -3 q 471 4 473 1 q 468 11 469 7 q 465 17 467 14 q 463 22 463 21 q 332 369 431 104 q 163 808 232 634 q 92 960 126 907 q 46 986 80 977 q -9 996 12 996 z "},"W":{"ha":1416,"x_min":-9,"x_max":1425,"o":"m -6 996 q -9 1018 -9 996 q -6 1042 -9 1039 q 56 1038 18 1040 q 124 1035 94 1036 q 186 1034 153 1034 q 243 1035 216 1034 q 302 1038 269 1036 q 355 1042 335 1040 q 357 1016 358 1035 q 353 996 357 997 q 338 995 347 996 q 314 990 328 994 q 288 981 300 987 q 267 966 275 976 q 258 944 258 956 q 281 842 258 924 q 328 685 297 785 q 398 452 358 584 q 464 233 438 320 q 595 651 506 370 q 702 989 684 932 q 712 1010 705 1000 q 727 1027 719 1020 q 744 1038 735 1034 q 758 1042 752 1042 q 777 1017 766 1042 q 797 954 778 1014 q 840 815 815 895 q 896 639 865 736 q 962 434 927 542 q 1027 237 998 326 q 1084 437 1052 324 q 1142 638 1117 549 q 1193 825 1166 726 q 1211 935 1211 900 q 1198 965 1211 952 q 1164 984 1184 979 q 1129 993 1145 990 q 1105 996 1114 996 q 1099 1017 1099 998 q 1105 1042 1099 1036 q 1157 1038 1118 1041 q 1222 1035 1196 1036 q 1274 1034 1248 1034 q 1328 1035 1306 1034 q 1375 1038 1350 1036 q 1422 1042 1399 1040 q 1425 1026 1425 1038 q 1424 1016 1425 1021 q 1419 996 1423 996 q 1373 984 1406 996 q 1320 955 1341 972 q 1299 929 1309 945 q 1281 891 1290 913 q 1263 836 1273 869 q 1188 574 1229 716 q 1111 301 1148 432 q 1038 50 1074 171 q 1014 13 1033 30 q 979 -3 994 -3 q 969 6 975 -3 q 963 22 964 16 q 907 190 941 85 q 839 396 872 294 q 774 591 805 498 q 724 742 743 684 l 705 800 q 588 429 663 662 q 469 50 513 196 q 444 13 463 30 q 409 -3 425 -3 q 400 6 405 -3 q 393 22 395 16 q 256 465 341 189 q 142 837 172 741 q 134 862 140 843 q 127 885 129 880 q 121 904 125 890 q 114 923 117 918 q 106 937 111 928 q 97 952 102 946 q 85 964 92 958 q 41 987 70 979 q -6 996 12 996 z "},"X":{"ha":1050,"x_min":-14,"x_max":1053,"o":"m -14 20 q -9 41 -12 37 q 17 44 -2 41 q 62 54 35 47 q 117 76 90 61 q 159 110 144 91 q 261 244 212 178 q 369 390 311 311 q 467 522 427 469 l 245 862 q 196 929 218 906 q 142 970 174 952 q 96 989 123 982 q 54 996 69 996 q 47 1016 47 996 q 54 1042 47 1036 q 118 1038 80 1040 q 186 1035 156 1036 q 250 1034 216 1034 q 452 1042 294 1034 q 454 1015 454 1034 q 448 996 454 996 q 424 994 438 996 q 393 986 410 991 q 365 970 376 981 q 354 945 354 960 q 373 899 354 926 l 555 618 q 643 733 583 654 q 735 856 703 812 q 785 928 768 900 q 791 954 791 938 q 787 966 791 960 q 772 979 783 972 q 739 990 762 986 q 686 994 717 994 q 681 1014 682 996 q 683 1040 680 1031 q 845 1032 788 1032 q 1018 1040 924 1032 q 1022 1018 1022 1035 q 1015 994 1021 1001 q 993 992 1007 994 q 958 984 979 989 q 913 964 937 978 q 875 931 890 951 q 726 750 783 822 q 585 566 669 679 l 895 104 q 960 57 916 73 q 1049 41 1004 41 q 1053 26 1053 37 q 1053 18 1053 22 q 1053 7 1053 12 q 1051 -5 1051 -3 q 998 -1 1029 -3 q 942 2 967 1 q 889 3 918 3 q 814 2 850 3 q 734 -1 779 1 q 659 -5 689 -3 q 653 21 653 1 q 659 41 653 41 q 691 45 671 41 q 731 60 711 50 q 751 85 751 71 q 743 104 751 92 l 503 473 q 343 253 427 371 q 242 104 259 135 q 240 98 242 103 q 236 88 237 93 q 235 79 235 83 q 246 60 235 68 q 286 46 257 52 q 355 41 314 41 q 361 17 360 35 q 359 -5 361 -1 q 181 3 213 3 q 114 2 144 3 q 42 -2 83 1 q -13 -5 1 -4 q -14 8 -14 0 q -14 20 -14 13 z "},"Y":{"ha":941,"x_min":-22,"x_max":951,"o":"m -16 996 q -22 1016 -22 996 q -16 1042 -22 1036 q 48 1038 11 1040 q 116 1035 86 1036 q 181 1034 146 1034 q 382 1042 225 1034 q 385 1015 385 1034 q 379 996 385 996 q 355 994 369 996 q 324 986 340 991 q 296 970 307 981 q 285 945 285 960 q 304 899 285 929 l 522 521 q 571 611 545 561 q 621 708 597 661 q 667 800 645 755 q 704 878 688 844 q 727 928 720 911 q 732 952 732 943 q 727 965 732 958 q 710 979 722 972 q 675 990 699 986 q 621 994 652 994 q 617 1015 618 994 q 618 1040 616 1036 q 669 1037 637 1039 q 725 1033 701 1034 q 776 1032 749 1032 q 840 1033 812 1032 q 898 1037 867 1034 q 949 1040 928 1039 q 951 1025 951 1036 q 950 1013 951 1020 q 945 994 949 994 q 933 994 939 994 q 912 992 927 994 q 884 986 897 991 q 856 976 871 982 q 827 958 840 969 q 806 931 814 946 q 557 473 758 847 q 553 465 555 469 q 551 456 551 460 q 550 448 550 453 q 549 440 549 442 q 549 432 549 438 q 549 425 549 426 l 547 182 q 555 66 547 92 q 599 48 558 55 q 664 41 640 41 q 669 18 669 35 q 664 -5 669 1 q 606 -2 647 -4 q 536 2 564 1 q 480 3 507 3 q 424 2 452 3 q 352 -2 395 1 q 294 -5 310 -4 q 289 18 288 1 q 294 41 290 35 q 359 48 318 41 q 403 66 399 55 q 411 182 411 92 l 411 420 q 399 464 411 442 q 284 670 351 553 q 176 862 218 788 q 129 928 152 905 q 73 970 106 951 q 27 989 54 982 q -16 996 0 996 z "},"Z":{"ha":996,"x_min":54,"x_max":947,"o":"m 55 22 l 724 985 l 340 985 q 207 931 261 985 q 126 779 153 878 q 109 772 121 772 q 85 777 98 772 q 68 785 71 781 q 119 1053 105 886 q 249 1040 208 1040 l 554 1040 q 617 1041 586 1040 q 667 1042 648 1041 q 721 1044 686 1042 q 767 1047 755 1046 q 825 1051 779 1048 q 884 1056 871 1055 q 894 1049 888 1055 q 907 1035 901 1043 q 913 1021 913 1027 q 745 774 911 1015 q 413 294 578 532 l 247 55 l 658 55 q 804 112 747 55 q 820 130 812 120 q 834 148 828 140 q 846 169 840 157 q 856 189 852 181 q 866 210 860 196 q 873 229 871 223 q 881 249 876 234 q 887 266 886 263 q 909 271 890 271 q 931 266 920 271 q 947 256 942 262 q 923 177 937 221 q 902 110 909 132 q 887 58 895 87 q 871 0 878 28 l 83 0 q 60 7 71 0 q 54 18 54 13 q 55 22 54 20 z "},"[":{"ha":407,"x_min":124,"x_max":399,"o":"m 124 -181 l 124 1093 q 124 1097 124 1095 q 126 1104 125 1099 q 129 1112 127 1108 q 134 1120 131 1116 q 142 1127 137 1124 q 154 1130 147 1130 q 272 1132 212 1130 q 363 1137 332 1135 l 395 1139 q 399 1125 399 1135 q 395 1110 399 1118 q 384 1100 391 1102 q 311 1082 357 1090 q 233 1068 265 1073 l 200 1063 l 200 -151 q 384 -187 324 -167 q 395 -197 391 -189 q 399 -212 399 -205 q 398 -220 399 -216 q 396 -225 397 -224 l 395 -227 q 154 -217 283 -217 q 140 -213 146 -217 q 131 -205 134 -210 q 126 -194 128 -200 q 124 -185 125 -189 q 124 -181 124 -182 z "},"\\":{"ha":631,"x_min":49,"x_max":581,"o":"m 49 1180 q 80 1191 56 1191 q 107 1183 93 1191 q 124 1166 121 1175 q 581 -26 581 -18 q 568 -38 579 -32 q 545 -44 557 -44 q 532 -41 539 -44 q 519 -33 525 -38 q 511 -22 513 -27 q 49 1180 114 1013 z "},"]":{"ha":409,"x_min":9,"x_max":285,"o":"m 9 -212 q 14 -197 9 -205 q 25 -187 18 -189 q 98 -169 52 -178 q 176 -155 144 -160 l 210 -151 l 210 1063 q 25 1100 85 1080 q 14 1110 18 1102 q 9 1125 9 1118 q 11 1133 9 1129 q 13 1138 12 1136 l 14 1139 q 255 1130 126 1130 q 269 1126 263 1130 q 278 1118 275 1122 q 282 1107 281 1113 q 284 1098 284 1101 q 285 1093 285 1095 l 285 -181 q 284 -185 285 -182 q 282 -194 284 -189 q 278 -205 281 -200 q 269 -213 275 -210 q 255 -217 263 -217 q 137 -219 197 -217 q 45 -224 77 -222 l 14 -227 q 9 -212 9 -222 z "},"^":{"ha":613,"x_min":96,"x_max":490,"o":"m 96 690 q 154 788 119 730 q 215 892 189 846 q 269 994 241 939 q 293 1015 279 1015 q 301 1012 296 1015 q 310 1005 306 1010 q 318 994 315 1000 q 362 910 340 951 q 401 841 385 869 q 444 769 417 814 q 490 690 470 725 q 482 672 490 680 q 466 665 474 665 q 433 701 451 681 q 399 739 416 720 q 367 777 383 758 q 338 812 351 796 q 314 841 325 829 q 298 861 304 854 l 293 869 q 121 665 193 741 q 105 673 113 665 q 96 690 96 680 z "},"_":{"ha":794,"x_min":22,"x_max":758,"o":"m 22 -52 q 45 20 30 20 l 752 20 q 758 13 758 20 q 743 -58 758 -1 q 739 -65 741 -62 q 735 -67 736 -67 l 733 -68 l 33 -68 q 32 -67 33 -68 q 29 -66 31 -67 q 26 -64 27 -66 q 23 -60 24 -63 q 22 -52 22 -56 z "},"`":{"ha":538,"x_min":182,"x_max":434,"o":"m 182 1031 q 184 1041 182 1036 q 190 1056 185 1047 q 207 1070 195 1065 q 239 1076 220 1076 q 252 1075 245 1076 q 263 1072 258 1074 q 272 1069 268 1071 q 279 1065 277 1067 q 281 1063 281 1064 q 377 934 319 1016 q 434 845 434 852 q 420 825 434 825 q 389 841 415 825 q 329 883 363 857 q 262 936 295 908 q 205 990 229 964 q 182 1031 182 1017 z "},"a":{"ha":677,"x_min":58,"x_max":658,"o":"m 58 168 q 83 248 58 213 q 137 294 108 283 q 210 320 162 303 q 292 348 257 336 q 361 373 326 360 q 412 393 396 387 q 422 398 418 396 q 428 405 425 400 q 431 415 430 409 q 431 433 431 422 l 431 475 q 414 545 431 511 q 365 603 396 580 q 296 626 333 626 q 237 602 256 626 q 210 529 218 578 q 184 471 202 490 q 136 453 165 453 q 97 473 112 453 q 82 519 82 494 q 83 530 82 523 q 87 545 85 537 q 93 557 90 553 q 143 596 113 576 q 211 638 172 617 q 294 673 249 659 q 379 686 338 686 q 499 623 448 686 q 551 471 551 560 l 551 146 q 600 73 551 73 q 613 74 606 73 q 625 77 620 75 q 634 81 629 79 q 642 86 640 84 q 648 90 645 88 q 651 93 651 92 q 658 80 658 93 q 650 50 658 64 q 593 12 631 34 q 532 -9 554 -9 q 471 22 499 -9 q 436 93 444 54 q 346 28 413 70 q 242 -13 278 -13 q 111 39 164 -13 q 58 168 58 92 m 189 182 q 202 129 189 154 q 241 88 216 103 q 294 73 265 73 q 339 80 314 73 q 384 99 363 88 q 417 120 404 109 q 431 137 431 131 l 431 351 q 285 305 309 315 q 214 257 240 288 q 189 182 189 226 z "},"b":{"ha":783,"x_min":5,"x_max":721,"o":"m 6 998 q 6 1008 6 1003 q 6 1018 5 1013 q 9 1029 7 1028 q 233 1092 117 1040 q 244 1083 239 1092 q 250 1067 250 1075 q 233 930 233 1016 l 233 620 q 233 613 233 616 q 234 606 233 610 q 237 602 235 602 q 242 604 239 603 q 334 659 275 628 q 433 689 394 689 q 535 669 488 689 q 616 617 583 650 q 673 542 649 584 q 709 455 697 500 q 721 367 721 410 q 691 221 721 290 q 610 100 661 151 q 487 19 559 50 q 332 -11 414 -11 q 216 13 298 -11 q 199 17 212 14 q 181 22 186 21 q 165 25 176 23 q 148 27 155 28 q 132 26 141 27 q 113 22 122 25 q 100 36 108 22 q 93 57 93 50 q 112 173 112 98 l 112 878 q 104 960 112 941 q 8 988 92 988 q 6 998 7 989 m 233 154 q 255 96 233 122 q 311 56 277 69 q 379 43 344 43 q 483 82 434 43 q 560 181 532 121 q 589 305 589 242 q 526 518 589 441 q 357 596 463 596 q 291 581 329 596 q 241 554 253 566 q 233 536 233 546 l 233 154 z "},"c":{"ha":665,"x_min":61,"x_max":618,"o":"m 61 305 q 78 413 61 361 q 124 507 95 466 q 191 583 153 549 q 272 641 229 618 q 358 676 314 664 q 444 689 403 689 q 585 651 529 689 q 596 632 591 646 q 601 608 601 618 q 583 550 601 568 q 541 532 565 532 q 510 542 526 532 q 476 568 494 552 q 450 590 458 585 q 406 614 423 608 q 360 620 389 620 q 310 609 335 620 q 262 575 285 597 q 222 521 239 552 q 194 448 205 490 q 184 357 184 405 q 204 238 184 290 q 259 155 224 186 q 339 107 294 123 q 439 92 385 92 q 488 98 464 92 q 529 113 511 104 q 563 133 547 121 q 589 154 580 145 q 606 172 598 163 q 610 169 607 172 q 615 161 612 166 q 618 149 618 155 q 609 121 618 137 q 577 81 596 101 q 530 38 559 60 q 462 1 502 16 q 379 -13 422 -13 q 273 4 323 -13 q 185 52 223 22 q 118 123 146 83 q 76 210 90 163 q 61 305 61 256 z "},"d":{"ha":810,"x_min":61,"x_max":782,"o":"m 61 324 q 86 441 61 383 q 153 542 112 498 q 243 620 193 586 q 343 671 292 654 q 436 689 393 689 q 496 684 460 689 q 545 673 532 678 q 552 707 552 673 l 552 878 q 545 960 552 941 q 448 988 532 988 q 447 998 448 988 q 446 1018 446 1008 q 450 1029 447 1028 q 673 1092 558 1040 q 685 1083 680 1092 q 690 1067 690 1075 q 673 930 673 1016 l 673 256 q 684 102 673 128 q 693 92 687 96 q 707 85 699 87 q 725 80 715 82 q 743 77 734 78 q 759 75 751 76 q 771 74 766 75 q 777 74 777 74 q 782 55 782 72 q 778 41 782 51 q 769 31 774 31 q 717 25 747 30 q 662 14 688 20 q 614 1 636 7 q 578 -9 592 -5 l 565 -13 q 555 -3 559 -13 q 552 18 552 7 l 552 73 q 549 83 552 83 q 547 82 549 83 q 456 22 524 57 q 338 -13 389 -13 q 235 13 285 -13 q 146 83 184 39 q 84 191 108 127 q 61 324 61 254 m 193 362 q 208 256 193 306 q 251 168 223 206 q 321 107 278 130 q 415 85 363 85 q 467 91 441 85 q 511 107 492 98 q 541 127 529 117 q 552 148 552 138 l 552 546 q 501 598 552 574 q 385 623 450 623 q 283 585 328 623 q 216 488 239 547 q 193 362 193 429 z "},"e":{"ha":676,"x_min":63,"x_max":616,"o":"m 63 315 q 76 416 63 366 q 113 506 90 465 q 166 581 136 546 q 231 639 197 616 q 302 676 265 663 q 373 689 338 689 q 445 681 412 689 q 503 658 479 672 q 545 625 526 644 q 575 586 564 606 q 595 545 587 566 q 606 507 603 524 q 609 475 609 490 q 601 420 609 439 q 571 401 593 402 q 367 395 539 399 q 175 390 195 390 l 175 379 q 189 275 175 323 q 226 193 202 227 q 282 135 250 159 q 352 100 315 111 q 431 88 390 88 q 491 97 461 88 q 543 121 521 106 q 580 148 566 136 q 604 172 595 161 q 608 169 605 172 q 614 161 611 166 q 616 149 616 155 q 608 121 616 137 q 576 81 595 101 q 529 38 557 60 q 461 1 500 16 q 378 -13 421 -13 q 214 30 286 -13 q 102 148 142 73 q 63 315 63 222 m 182 448 l 439 448 q 475 485 475 448 q 471 517 475 499 q 457 556 467 536 q 433 594 448 577 q 396 622 419 610 q 346 633 374 633 q 296 623 319 633 q 255 596 272 612 q 225 560 239 580 q 204 521 212 541 q 191 485 196 501 q 183 458 185 469 q 182 448 182 448 z "},"f":{"ha":484,"x_min":39,"x_max":513,"o":"m 44 41 q 103 48 66 41 q 143 66 140 55 q 151 182 151 92 l 151 615 l 60 615 q 56 618 58 615 q 53 624 54 621 q 52 629 52 627 q 62 645 52 632 q 82 667 73 657 q 93 680 91 677 l 151 680 l 151 683 l 151 689 q 170 819 151 755 q 219 932 189 883 q 286 1019 250 981 q 358 1077 322 1057 q 423 1097 394 1097 q 467 1094 456 1097 q 497 1078 478 1090 q 508 1059 503 1073 q 513 1034 513 1045 q 506 1000 513 1014 q 489 981 500 987 q 469 973 478 975 q 450 970 460 970 q 444 971 447 970 q 439 972 441 972 q 433 974 437 972 q 428 976 429 975 q 422 979 426 977 q 417 981 418 981 q 411 985 416 982 q 404 988 406 987 q 392 995 395 993 q 383 999 389 996 q 372 1002 377 1001 q 359 1002 366 1002 q 296 963 320 1002 q 272 859 272 926 q 272 854 272 857 l 272 680 l 458 680 q 462 679 460 680 q 465 674 464 677 q 466 669 465 671 q 466 663 466 667 q 444 615 466 637 l 272 615 l 272 182 q 280 66 272 92 q 322 48 283 55 q 385 41 362 41 q 391 18 391 35 q 385 -5 391 1 q 329 -2 366 -4 q 265 2 292 1 q 211 3 238 3 q 158 2 184 3 q 99 -1 132 1 q 44 -5 66 -3 q 39 16 39 1 q 44 41 39 34 z "},"g":{"ha":733,"x_min":36,"x_max":718,"o":"m 36 -165 q 48 -124 36 -146 q 79 -85 61 -103 q 121 -51 97 -68 q 165 -22 146 -33 q 203 -1 184 -11 q 159 18 181 5 q 118 48 138 31 q 86 92 98 66 q 74 144 74 117 q 137 201 92 166 q 210 252 182 235 q 115 339 151 283 q 79 453 79 395 q 99 543 79 499 q 155 618 120 586 q 240 671 190 651 q 345 690 290 690 q 381 688 363 690 q 417 681 399 686 q 444 673 435 676 q 470 663 452 671 q 488 656 488 656 q 524 645 508 648 l 692 669 q 708 653 708 664 q 702 633 708 646 q 688 606 696 620 q 672 589 680 593 l 568 595 q 562 590 562 595 q 589 536 572 579 q 606 447 606 494 q 585 364 606 406 q 530 290 564 323 q 445 236 495 257 q 340 216 395 216 q 292 220 320 216 q 252 230 264 225 q 231 216 241 224 q 212 199 220 208 q 198 180 203 190 q 193 161 193 170 q 220 125 193 144 q 288 105 246 105 l 473 105 q 591 83 535 105 q 683 22 648 60 q 718 -60 718 -17 q 684 -160 718 -108 q 595 -256 650 -213 q 464 -328 541 -300 q 309 -357 387 -357 q 303 -357 306 -357 q 212 -346 257 -357 q 124 -311 164 -334 q 60 -250 85 -288 q 36 -165 36 -212 m 161 -119 q 217 -247 161 -198 q 372 -296 273 -296 q 480 -272 425 -296 q 572 -209 536 -248 q 609 -127 609 -169 q 597 -89 609 -109 q 562 -50 585 -69 q 496 -19 538 -31 q 401 -6 454 -6 q 255 -14 269 -6 q 190 -63 220 -34 q 161 -119 161 -92 m 200 459 q 217 366 200 410 q 270 292 234 321 q 351 262 305 262 q 408 278 382 262 q 450 320 434 294 q 476 377 467 346 q 485 442 485 409 q 469 538 485 493 q 419 613 453 583 q 338 644 385 644 q 263 616 296 644 q 215 547 231 588 q 200 459 200 506 z "},"h":{"ha":812,"x_min":27,"x_max":799,"o":"m 33 41 q 92 48 56 41 q 132 66 129 55 q 140 182 140 92 l 140 878 q 132 960 140 941 q 36 988 120 988 q 35 998 35 988 q 34 1018 34 1008 q 38 1029 35 1028 q 261 1092 146 1040 q 273 1083 267 1092 q 279 1067 279 1075 q 261 930 261 1016 l 261 574 q 266 571 261 571 q 271 574 267 571 q 307 607 283 589 q 360 644 330 625 q 423 676 389 663 q 483 689 456 689 q 548 682 519 689 q 598 663 576 675 q 634 629 619 650 q 660 583 650 608 q 675 521 669 557 q 684 446 682 485 q 686 355 686 407 l 686 182 q 694 66 686 92 q 718 52 696 58 q 760 43 739 46 q 793 41 781 41 q 799 18 799 34 q 799 16 799 17 q 793 -5 799 1 q 738 -1 771 -3 q 678 2 704 1 q 625 3 652 3 q 572 2 597 3 q 513 -1 546 1 q 458 -5 479 -3 q 453 18 452 1 q 458 41 453 35 q 517 48 481 41 q 557 66 554 55 q 565 182 565 92 l 565 340 q 558 463 565 416 q 534 542 551 510 q 487 586 516 573 q 411 598 457 598 q 347 579 384 598 q 286 539 311 560 q 261 511 261 519 l 261 182 q 269 66 261 92 q 283 55 271 60 q 313 47 296 50 q 345 42 330 44 q 368 41 360 41 q 373 18 373 35 q 368 -5 374 1 q 313 -1 347 -3 q 253 2 279 1 q 200 3 227 3 q 147 2 172 3 q 88 -1 121 1 q 33 -5 55 -3 q 27 16 27 1 q 33 41 27 34 z "},"i":{"ha":425,"x_min":50,"x_max":397,"o":"m 50 604 q 50 608 50 606 q 54 626 50 621 q 279 692 188 645 q 290 683 284 692 q 296 667 296 673 q 285 564 285 590 l 285 511 l 285 182 q 293 66 285 92 q 300 58 294 62 q 316 52 307 54 q 337 47 326 50 q 359 43 348 45 q 378 41 370 42 q 392 41 387 41 q 397 16 397 34 q 392 -5 397 1 q 336 -1 370 -3 q 277 2 302 1 q 223 3 251 3 q 171 2 196 3 q 112 -1 145 1 q 57 -5 79 -3 q 51 18 51 1 q 57 41 52 35 q 116 48 79 41 q 156 66 153 55 q 163 182 163 92 l 163 475 q 156 557 163 538 q 125 576 151 569 q 83 584 100 583 q 54 585 66 585 q 50 604 51 587 m 156 877 q 145 889 156 877 q 134 933 134 900 q 156 989 134 966 q 212 1012 179 1012 q 268 989 245 1012 q 291 933 291 966 q 268 877 291 900 q 212 854 245 854 q 156 877 179 854 z "},"j":{"ha":376,"x_min":-28,"x_max":277,"o":"m -26 -340 q -28 -334 -28 -338 q -26 -329 -28 -330 q 11 -300 -4 -313 q 46 -267 26 -288 q 79 -227 66 -247 q 105 -176 92 -206 q 127 -111 119 -146 q 140 -30 135 -77 q 144 71 144 16 l 144 475 q 137 557 144 538 q 118 573 133 566 q 85 582 104 579 q 54 585 66 584 q 35 585 43 585 q 31 604 32 588 q 35 626 31 620 q 260 692 169 645 q 271 683 265 692 q 277 667 277 673 q 266 564 266 590 l 266 510 l 266 107 q 256 -12 266 44 q 231 -111 247 -68 q 192 -191 215 -154 q 146 -255 170 -229 q 94 -303 122 -281 q 42 -339 66 -326 q -6 -363 18 -353 q -14 -357 -10 -361 q -22 -348 -18 -353 q -26 -340 -25 -344 m 126 877 q 115 889 126 877 q 104 933 104 900 q 126 989 104 966 q 182 1012 149 1012 q 238 989 216 1012 q 261 933 261 966 q 238 877 261 900 q 182 854 216 854 q 126 877 149 854 z "},"k":{"ha":814,"x_min":27,"x_max":808,"o":"m 33 41 q 92 48 56 41 q 132 66 129 55 q 140 182 140 92 l 140 878 q 132 960 140 941 q 36 988 120 988 q 35 998 35 988 q 34 1018 34 1008 q 38 1029 35 1028 q 261 1092 146 1040 q 273 1083 267 1092 q 279 1067 279 1075 q 261 930 261 1016 l 261 370 q 310 400 279 376 q 390 466 340 423 q 436 504 410 482 q 477 537 462 525 q 507 563 492 550 q 528 584 522 576 q 535 596 535 592 q 532 604 535 601 q 525 610 530 608 q 515 614 521 612 q 503 618 509 616 q 489 620 496 619 q 477 622 482 621 q 467 622 472 622 q 459 623 461 623 q 455 649 454 631 q 463 669 456 666 q 614 661 538 661 q 752 669 694 661 q 756 645 757 661 q 752 623 756 628 q 692 613 731 623 q 631 587 653 603 q 376 392 457 460 q 447 315 408 358 q 516 237 486 271 q 577 170 547 202 q 627 115 606 137 q 659 83 648 92 q 728 50 688 61 q 796 41 764 41 q 804 41 800 41 q 808 23 807 37 q 808 17 808 20 q 806 3 808 8 q 766 -3 797 -1 q 703 -6 734 -6 q 586 17 641 -6 q 510 63 532 39 q 285 307 374 210 q 276 314 282 311 q 266 319 270 317 l 261 321 l 261 182 q 269 66 261 92 q 283 55 271 60 q 313 47 296 50 q 345 42 330 44 q 368 41 360 41 q 373 18 373 35 q 368 -5 374 1 q 313 -1 347 -3 q 253 2 279 1 q 200 3 227 3 q 147 2 172 3 q 88 -1 121 1 q 33 -5 55 -3 q 27 16 27 1 q 33 41 27 34 z "},"l":{"ha":401,"x_min":27,"x_max":374,"o":"m 33 41 q 92 48 56 41 q 132 66 129 55 q 140 182 140 92 l 140 878 q 132 960 140 941 q 36 988 120 988 q 35 998 35 988 q 34 1018 34 1008 q 38 1029 35 1028 q 261 1092 146 1040 q 273 1083 267 1092 q 279 1067 279 1075 q 261 930 261 1016 l 261 182 q 269 66 261 92 q 283 55 271 60 q 313 47 296 50 q 345 42 330 44 q 368 41 360 41 q 373 18 373 34 q 374 16 373 17 q 368 -5 374 1 q 313 -1 347 -3 q 253 2 279 1 q 200 3 227 3 q 147 2 172 3 q 88 -1 121 1 q 33 -5 55 -3 q 27 16 27 1 q 33 41 27 34 z "},"m":{"ha":1242,"x_min":50,"x_max":1228,"o":"m 50 604 q 50 608 50 606 q 54 626 50 621 q 279 692 188 645 q 290 683 284 692 q 296 667 296 673 q 286 585 286 601 q 290 579 286 579 q 294 582 291 579 q 300 587 296 584 q 339 619 323 606 q 385 650 355 631 q 444 679 414 669 q 502 689 473 689 q 618 658 574 689 q 682 559 663 627 q 913 689 825 689 q 999 676 963 689 q 1058 638 1035 663 q 1093 571 1080 614 q 1111 478 1106 528 q 1116 355 1116 428 l 1116 182 q 1123 66 1116 92 q 1163 48 1126 55 q 1223 41 1200 41 q 1228 16 1228 34 q 1223 -5 1228 1 q 1167 -1 1201 -3 q 1107 2 1133 1 q 1054 3 1082 3 q 1011 2 1033 3 q 972 0 989 1 q 931 -2 956 -1 q 887 -5 907 -4 q 882 18 882 1 q 887 41 882 35 q 947 48 910 41 q 987 66 983 55 q 994 182 994 92 l 994 351 q 991 437 994 401 q 979 505 988 472 q 954 556 970 537 q 911 587 937 576 q 846 598 884 598 q 790 586 820 598 q 740 557 761 573 q 706 527 720 541 q 692 508 692 513 q 693 498 692 507 q 694 488 694 490 q 700 376 700 448 l 700 182 q 708 66 700 92 q 731 52 710 58 q 774 43 753 46 q 807 41 795 41 q 812 18 812 35 q 807 -5 813 1 q 763 -2 788 -4 q 721 0 738 -1 q 682 2 705 1 q 639 3 660 3 q 586 2 612 3 q 527 -1 560 1 q 472 -5 494 -3 q 467 18 467 1 q 472 41 467 35 q 531 48 494 41 q 571 66 568 55 q 579 182 579 92 l 579 343 q 572 464 579 416 q 547 542 565 511 q 502 586 530 573 q 431 598 474 598 q 379 587 406 598 q 331 562 351 576 q 298 534 311 548 q 285 511 285 519 l 285 182 q 293 66 285 92 q 300 58 294 62 q 316 52 307 54 q 337 47 326 50 q 359 43 348 45 q 378 41 370 42 q 392 41 387 41 q 397 18 397 35 q 392 -5 397 1 q 336 -1 370 -3 q 277 2 302 1 q 223 3 251 3 q 171 2 196 3 q 112 -1 145 1 q 57 -5 79 -3 q 51 18 51 1 q 57 41 52 35 q 116 48 79 41 q 156 66 153 55 q 163 182 163 92 l 163 469 q 156 557 163 538 q 125 576 151 569 q 83 584 100 583 q 54 585 66 585 q 50 604 51 587 z "},"n":{"ha":837,"x_min":50,"x_max":822,"o":"m 50 604 q 50 608 50 606 q 54 626 50 621 q 279 692 188 645 q 290 683 284 692 q 296 667 296 673 q 286 577 286 601 q 290 571 286 571 q 294 574 291 571 q 331 607 307 589 q 384 644 354 625 q 447 676 413 663 q 507 689 480 689 q 581 681 549 689 q 635 653 612 672 q 672 608 657 634 q 695 543 686 583 q 706 460 703 504 q 709 355 709 416 l 709 182 q 718 66 709 92 q 741 52 720 58 q 783 43 762 46 q 817 41 804 41 q 822 16 822 34 q 817 -5 822 1 q 761 -1 795 -3 q 702 2 728 1 q 648 3 675 3 q 595 2 621 3 q 536 -1 570 1 q 481 -5 503 -3 q 476 18 476 1 q 481 41 477 35 q 541 48 504 41 q 581 66 578 55 q 589 182 589 92 l 589 340 q 582 463 589 416 q 557 542 575 510 q 510 586 539 573 q 434 598 481 598 q 371 579 408 598 q 310 539 334 560 q 285 511 285 519 l 285 182 q 293 66 285 92 q 300 58 294 62 q 316 52 307 54 q 337 47 326 50 q 359 43 348 45 q 378 41 370 42 q 392 41 387 41 q 397 18 397 35 q 392 -5 397 1 q 336 -1 370 -3 q 277 2 302 1 q 223 3 251 3 q 171 2 196 3 q 112 -1 145 1 q 57 -5 79 -3 q 51 18 51 1 q 57 41 52 35 q 116 48 79 41 q 156 66 153 55 q 163 182 163 92 l 163 469 q 156 557 163 538 q 125 576 151 569 q 83 584 100 583 q 54 585 66 585 q 50 604 51 587 z "},"o":{"ha":800,"x_min":64,"x_max":736,"o":"m 64 335 q 90 476 64 410 q 160 589 116 542 q 267 663 205 636 q 399 690 330 690 q 578 646 501 690 q 696 524 656 601 q 736 348 736 446 q 711 206 736 273 q 641 92 685 140 q 535 17 597 44 q 403 -11 473 -11 q 262 16 326 -11 q 156 88 199 42 q 89 198 113 134 q 64 335 64 262 m 200 367 q 209 274 200 320 q 236 186 218 228 q 280 112 254 144 q 342 60 306 79 q 418 41 378 41 q 478 52 451 41 q 526 81 506 62 q 560 126 545 100 q 583 182 574 151 q 596 245 592 213 q 601 311 601 277 q 586 427 601 370 q 545 532 572 485 q 475 609 517 580 q 382 639 433 639 q 312 623 343 639 q 260 582 281 608 q 225 521 239 556 q 206 447 212 486 q 200 367 200 409 z "},"p":{"ha":802,"x_min":22,"x_max":741,"o":"m 22 604 q 22 608 22 606 q 25 626 22 621 q 250 692 159 645 q 261 683 256 692 q 267 667 267 673 q 264 649 267 663 q 259 622 261 635 q 256 603 256 608 q 260 596 256 596 q 264 600 261 596 q 317 638 287 618 q 388 673 348 657 q 456 689 427 689 q 561 668 513 689 q 641 614 608 648 q 696 537 673 581 q 730 451 720 494 q 741 365 741 407 q 708 221 741 291 q 624 100 675 151 q 505 18 572 49 q 373 -13 439 -13 q 262 5 318 -13 q 256 -16 256 -3 l 256 -168 q 264 -285 256 -260 q 304 -303 267 -296 q 363 -310 341 -310 q 369 -333 368 -316 q 363 -355 369 -349 q 308 -352 342 -355 q 248 -349 274 -350 q 195 -348 222 -348 q 142 -349 168 -348 q 83 -352 117 -350 q 28 -355 50 -355 q 23 -333 22 -349 q 28 -310 23 -316 q 87 -303 51 -310 q 127 -285 124 -296 q 136 -168 136 -260 l 136 475 q 127 557 136 538 q 109 573 123 566 q 75 582 94 579 q 45 585 56 584 q 25 585 33 585 q 22 604 22 588 m 256 157 q 271 105 256 128 q 309 69 286 82 q 356 49 332 56 q 403 43 380 43 q 490 66 450 43 q 555 127 530 89 q 595 212 581 165 q 609 307 609 258 q 591 431 609 375 q 544 522 574 486 q 474 577 513 558 q 389 596 434 596 q 327 586 358 596 q 276 561 295 575 q 256 535 256 546 l 256 157 z "},"q":{"ha":782,"x_min":61,"x_max":783,"o":"m 61 313 q 74 402 61 358 q 109 482 87 446 q 161 551 132 519 q 227 609 191 584 q 299 652 262 634 q 376 680 337 670 q 450 689 414 689 q 542 669 473 689 q 637 650 610 650 q 669 654 654 650 q 682 641 675 654 q 689 620 689 627 q 670 503 670 578 l 670 -170 q 678 -286 670 -261 q 718 -304 681 -298 q 777 -311 755 -311 q 783 -336 783 -319 q 777 -357 783 -351 q 722 -354 755 -356 q 662 -351 688 -352 q 609 -349 636 -349 q 556 -351 581 -349 q 497 -354 530 -352 q 442 -357 464 -356 q 437 -334 437 -351 q 442 -311 437 -318 q 475 -309 454 -311 q 518 -300 496 -307 q 541 -286 539 -294 q 549 -170 549 -261 l 549 63 q 546 77 549 71 q 538 79 543 83 q 448 22 510 54 q 341 -11 386 -11 q 243 9 289 -11 q 164 63 197 29 q 108 139 132 96 q 73 226 84 181 q 61 313 61 271 m 193 370 q 211 247 193 302 q 259 157 229 192 q 332 102 290 121 q 423 83 374 83 q 483 94 453 83 q 531 120 513 105 q 549 146 549 134 l 549 522 q 536 568 549 547 q 502 603 523 589 q 455 625 481 616 q 403 633 429 633 q 336 620 367 633 q 283 586 305 607 q 243 537 260 564 q 215 480 225 510 q 199 422 204 450 q 193 370 193 395 z "},"r":{"ha":602,"x_min":50,"x_max":579,"o":"m 50 604 q 50 608 50 606 q 54 626 50 621 q 279 692 188 645 q 290 683 284 692 q 296 667 296 673 q 290 596 294 658 q 285 522 285 534 q 287 518 285 518 q 291 519 290 517 q 323 574 303 545 q 369 629 344 603 q 422 671 393 654 q 477 688 452 688 q 535 674 507 688 q 572 642 562 661 q 579 600 579 623 q 561 539 579 561 q 527 517 543 517 q 511 521 519 517 q 497 528 503 524 q 482 538 491 532 q 469 547 473 545 q 411 566 441 566 q 362 549 387 566 q 322 509 338 532 q 295 462 306 486 q 285 425 285 439 l 285 182 q 293 66 285 92 q 348 48 296 55 q 428 41 401 41 q 433 18 433 35 q 428 -5 433 1 q 233 3 267 3 q 178 2 205 3 q 114 -2 151 1 q 57 -5 77 -4 q 51 18 51 1 q 57 41 52 35 q 116 48 79 41 q 156 66 153 55 q 163 182 163 92 l 163 475 q 156 557 163 538 q 125 576 151 569 q 83 584 100 583 q 54 585 66 585 q 50 604 51 587 z "},"s":{"ha":581,"x_min":64,"x_max":517,"o":"m 64 176 q 93 186 77 186 q 107 182 102 186 q 124 141 113 162 q 151 101 135 121 q 186 67 168 82 q 229 42 205 52 q 277 33 253 33 q 358 63 327 33 q 390 146 390 94 q 381 190 390 170 q 361 223 373 210 q 328 253 349 237 q 289 278 307 269 q 243 302 272 287 q 198 328 215 317 q 153 358 172 342 q 115 393 133 373 q 88 439 98 414 q 79 496 79 465 q 112 596 79 552 q 196 664 144 641 q 307 688 248 688 q 357 684 334 688 q 411 675 381 681 q 467 667 441 670 q 486 494 484 596 q 471 486 486 486 q 444 494 454 486 q 426 542 437 517 q 397 588 414 566 q 358 625 381 610 q 311 639 336 639 q 249 626 275 639 q 212 590 224 612 q 200 540 200 568 q 203 508 200 523 q 215 481 207 494 q 231 460 223 469 q 254 441 239 452 q 278 426 269 431 q 307 409 288 420 q 336 392 326 398 q 364 375 345 387 q 395 358 384 364 q 425 339 406 351 q 454 317 443 326 q 479 293 465 307 q 500 266 492 279 q 512 235 507 252 q 517 200 517 218 q 484 87 517 138 q 394 10 450 37 q 275 -18 339 -18 q 215 -13 243 -18 q 150 0 187 -9 q 92 13 113 9 q 73 91 82 37 q 64 176 64 145 z "},"t":{"ha":489,"x_min":31,"x_max":463,"o":"m 31 629 q 49 653 31 633 q 73 680 66 673 l 131 680 l 131 779 q 167 819 143 793 q 208 864 191 845 q 227 884 225 882 q 237 890 231 888 q 243 890 241 891 q 247 890 245 890 q 252 886 251 888 l 252 680 l 454 680 q 459 679 458 680 q 462 674 461 677 q 463 669 463 671 q 463 663 463 667 q 441 615 463 637 l 252 615 l 252 203 q 278 107 252 140 q 355 74 304 74 q 401 82 377 74 q 437 97 425 90 q 458 110 449 104 q 463 99 463 108 q 461 90 463 95 q 458 80 460 84 q 456 75 457 77 q 432 51 446 63 q 396 23 418 39 q 348 -1 375 8 q 294 -11 321 -11 q 246 -6 269 -11 q 202 10 224 -2 q 165 40 180 22 q 140 90 149 59 q 131 159 131 120 l 131 615 l 39 615 q 34 620 36 615 q 31 629 31 625 z "},"u":{"ha":810,"x_min":22,"x_max":781,"o":"m 22 642 q 26 661 22 655 q 242 692 156 666 q 254 680 248 692 q 260 661 260 668 q 254 637 256 654 q 250 598 252 621 q 249 552 249 575 l 249 485 l 249 321 q 286 136 249 195 q 406 77 323 77 q 474 91 439 77 q 529 125 508 104 q 551 163 551 145 l 551 503 q 538 589 551 565 q 502 613 528 607 q 450 620 475 620 q 446 639 446 624 q 450 661 446 654 q 665 692 579 666 q 673 685 669 692 q 680 668 677 677 q 683 654 683 659 q 672 552 672 633 l 672 480 l 672 222 q 683 102 672 154 q 700 86 686 92 q 730 78 715 79 q 761 75 746 76 q 776 74 775 74 q 781 57 781 72 q 779 49 781 54 q 774 37 778 43 q 768 31 771 31 q 715 25 745 30 q 661 14 686 20 q 613 1 635 7 q 577 -9 591 -5 l 564 -13 q 554 -5 557 -13 q 551 13 551 3 l 551 85 l 547 93 q 446 22 511 54 q 324 -11 380 -11 q 274 -4 297 -11 q 232 13 250 2 q 199 41 214 24 q 173 76 184 57 q 155 117 163 95 q 141 162 146 140 q 133 210 136 184 q 129 257 130 235 q 127 302 127 279 l 127 503 q 115 589 127 565 q 78 613 104 607 q 26 620 52 620 q 22 642 22 625 z "},"v":{"ha":744,"x_min":-1,"x_max":744,"o":"m -1 652 q 3 677 -1 664 q 56 673 26 675 q 108 670 85 671 q 161 669 132 669 q 211 670 187 669 q 265 673 235 671 q 318 677 296 675 q 319 650 321 669 q 311 631 317 631 q 295 630 305 631 q 269 626 284 629 q 244 618 254 624 q 235 604 235 612 q 236 598 235 601 l 409 173 q 549 530 490 382 q 559 581 559 553 q 533 617 559 604 q 467 631 508 631 q 461 651 461 631 q 467 677 461 671 q 505 673 484 675 q 547 670 527 671 q 595 669 566 669 q 643 670 621 669 q 691 673 664 671 q 741 677 718 675 q 744 662 744 672 q 743 650 744 656 q 736 631 741 631 q 718 628 730 631 q 690 621 706 626 q 659 604 673 616 q 637 577 644 593 q 401 9 469 176 q 391 -3 399 3 q 374 -14 382 -9 q 360 -18 365 -18 q 346 -11 349 -18 q 258 204 309 76 q 168 427 207 333 q 90 600 128 521 q 76 615 85 609 q 58 625 66 622 q 37 629 50 628 q 19 631 23 631 q 3 631 14 631 q -1 652 -1 639 z "},"w":{"ha":1134,"x_min":-1,"x_max":1135,"o":"m 3 631 q -1 654 -1 638 q 3 677 -1 669 q 45 674 23 675 q 81 671 67 673 q 116 669 96 670 q 159 669 136 669 q 200 669 180 669 q 236 671 221 670 q 274 674 251 673 q 316 677 297 675 q 318 651 319 669 q 313 631 317 633 q 295 630 305 631 q 270 625 285 629 q 244 614 254 622 q 235 595 235 606 q 235 591 235 594 q 238 583 236 589 q 242 571 241 576 q 404 184 258 528 q 448 294 423 233 q 485 386 472 355 q 510 449 497 416 q 527 496 522 481 q 532 515 532 511 q 527 535 532 520 q 513 568 522 549 q 494 601 504 587 q 425 631 473 631 q 419 653 419 635 q 425 677 419 671 q 474 673 449 675 q 519 670 498 671 q 568 669 540 669 q 620 670 595 669 q 678 673 645 671 q 732 677 711 675 q 734 652 734 668 q 730 631 734 635 q 671 619 692 631 q 651 581 651 608 q 656 564 651 575 q 667 531 660 551 q 688 476 674 511 q 714 406 701 441 q 753 308 728 372 q 800 189 778 244 q 938 541 912 469 q 945 579 945 563 q 878 628 945 620 q 855 631 870 629 l 851 631 q 846 653 846 635 q 851 677 846 671 q 912 672 873 675 q 988 669 951 669 q 1036 670 1015 669 q 1083 673 1057 671 q 1133 677 1109 675 q 1135 662 1135 675 q 1135 655 1135 659 q 1128 631 1134 636 q 1108 628 1121 631 q 1077 621 1095 626 q 1043 603 1059 615 q 1021 574 1027 591 q 793 9 883 224 q 778 -9 789 0 q 760 -18 767 -18 q 741 -11 744 -18 l 566 444 l 397 13 q 394 7 396 11 q 387 0 391 4 q 378 -8 382 -4 q 368 -15 374 -12 q 357 -18 362 -18 q 343 -11 346 -18 q 88 596 212 318 q 3 631 73 631 z "},"x":{"ha":749,"x_min":16,"x_max":739,"o":"m 16 20 q 20 41 18 35 q 39 44 24 41 q 60 47 55 46 q 80 51 66 48 q 101 56 94 54 q 120 63 108 59 q 139 73 132 68 q 155 86 146 79 q 170 102 163 94 q 324 324 316 313 l 142 596 q 98 623 130 614 q 36 631 66 631 q 34 640 35 631 q 35 661 34 650 q 38 677 35 672 q 193 669 124 669 q 353 677 266 669 q 355 653 355 669 q 349 631 355 637 q 286 604 286 631 q 294 585 286 598 l 398 420 q 444 485 411 440 q 493 558 476 530 q 510 601 510 587 q 502 616 510 610 q 481 625 494 622 q 457 629 469 627 q 434 630 446 630 q 422 631 423 631 q 419 652 419 632 q 422 677 418 671 q 474 673 445 675 q 528 670 504 671 q 581 669 552 669 q 707 677 651 669 q 708 651 708 671 q 705 631 707 631 q 584 596 606 626 q 524 512 564 569 q 458 420 484 456 q 427 378 433 385 l 615 98 q 736 41 654 41 q 739 31 738 41 q 739 23 739 27 q 738 9 738 17 q 734 -5 736 -2 q 686 -1 715 -3 q 635 2 658 1 q 587 3 613 3 q 530 2 557 3 q 469 -1 503 1 q 412 -5 435 -3 q 410 22 409 3 q 414 41 410 41 q 441 45 427 42 q 468 54 455 47 q 480 69 480 60 q 477 79 480 73 q 353 275 395 212 q 304 204 344 262 q 239 105 264 146 q 230 75 230 90 q 236 59 230 66 q 256 49 243 53 q 280 44 270 45 q 308 41 290 43 q 316 41 313 41 q 319 31 318 41 q 318 10 319 22 q 315 -5 317 -1 q 265 -1 293 -3 q 215 2 237 1 q 165 3 193 3 q 116 2 138 3 q 66 -1 94 1 q 18 -5 39 -3 q 16 12 16 2 q 16 20 16 16 z "},"y":{"ha":738,"x_min":1,"x_max":736,"o":"m 3 631 q 1 652 1 631 q 3 677 1 674 q 161 669 78 669 q 318 677 251 669 q 319 650 321 669 q 311 631 317 631 q 286 629 301 631 q 251 622 270 628 q 233 604 233 615 q 236 598 233 604 l 403 173 q 541 530 481 382 q 551 581 551 553 q 526 617 551 604 q 459 631 500 631 q 454 651 454 631 q 459 677 454 671 q 601 669 518 669 q 733 677 654 669 q 736 658 736 671 q 736 650 736 654 q 730 631 735 631 q 711 628 724 631 q 683 621 699 626 q 651 604 666 616 q 629 577 636 593 q 393 9 461 176 q 359 -80 385 -12 q 314 -190 334 -147 q 269 -271 294 -233 q 206 -335 241 -312 q 132 -359 170 -359 q 109 -356 119 -359 q 87 -347 98 -353 q 70 -326 76 -340 q 63 -291 63 -311 q 82 -245 63 -268 q 123 -244 108 -245 q 158 -238 139 -243 q 193 -224 178 -233 q 225 -198 208 -214 q 261 -156 243 -181 q 305 -74 278 -134 q 336 3 332 -15 q 205 331 259 201 q 88 600 152 461 q 74 615 83 609 q 57 625 65 622 q 36 629 50 628 q 18 631 22 631 q 3 631 14 631 z "},"z":{"ha":703,"x_min":54,"x_max":659,"o":"m 54 31 q 55 43 54 41 l 459 623 l 239 625 q 209 621 223 625 q 184 611 195 617 q 165 597 174 606 q 150 581 156 589 q 139 562 144 572 q 131 544 134 551 q 125 527 128 536 q 119 515 121 518 q 113 508 118 511 q 100 503 108 505 q 85 500 92 500 q 68 505 68 500 q 82 581 74 528 q 93 690 90 635 q 233 678 176 678 l 434 678 q 626 690 523 678 q 630 680 629 686 q 631 670 631 674 q 631 660 631 666 q 631 653 631 654 q 214 55 214 60 l 434 55 q 499 67 469 55 q 550 101 529 80 q 586 146 571 121 q 608 197 600 170 q 618 206 609 206 q 633 203 625 206 q 648 196 641 201 q 659 187 655 192 q 589 0 612 73 l 77 0 q 61 13 68 3 q 54 31 54 22 z "},"{":{"ha":349,"x_min":41,"x_max":285,"o":"m 44 436 q 41 453 41 439 q 44 471 41 467 q 89 486 69 477 q 126 511 109 496 q 154 549 144 526 q 163 603 163 572 q 163 619 163 611 q 159 637 162 627 q 155 653 157 648 q 149 671 154 659 q 142 687 144 684 q 135 704 141 690 q 127 721 128 719 q 101 789 110 759 q 92 851 92 819 q 102 936 92 895 q 131 1008 113 977 q 171 1066 149 1040 q 216 1108 194 1092 q 260 1133 239 1124 q 277 1123 269 1133 q 285 1103 285 1114 q 247 1078 268 1095 q 207 1038 227 1061 q 174 985 187 1015 q 161 926 161 955 q 162 903 161 914 q 165 879 163 891 q 170 860 168 867 q 177 839 172 852 q 184 821 182 826 q 192 802 186 817 q 200 783 198 787 q 236 637 236 708 q 224 568 236 601 q 194 512 212 535 q 157 475 176 490 q 121 453 138 460 q 157 432 138 447 q 194 394 176 416 q 224 338 212 372 q 236 269 236 305 q 200 123 236 198 q 192 105 198 119 q 184 85 186 90 q 177 67 182 80 q 170 46 172 54 q 165 27 168 39 q 162 3 163 15 q 161 -20 161 -8 q 167 -60 161 -40 q 183 -97 173 -80 q 207 -131 194 -115 q 234 -160 220 -147 q 261 -182 248 -173 q 285 -197 274 -191 q 281 -211 285 -203 q 272 -222 277 -218 q 260 -227 266 -227 q 204 -192 233 -216 q 150 -134 176 -168 q 108 -49 124 -99 q 92 55 92 1 q 101 118 92 88 q 127 186 110 147 q 134 200 129 189 q 141 215 139 211 q 146 229 142 219 q 152 244 151 239 q 157 258 154 250 q 160 274 159 267 q 162 288 161 280 q 163 304 163 296 q 154 357 163 334 q 126 395 144 380 q 89 420 109 410 q 44 436 69 429 z "},"|":{"ha":322,"x_min":119,"x_max":201,"o":"m 121 -190 q 121 -189 121 -190 q 121 -185 121 -189 q 121 -181 121 -182 l 121 1191 q 129 1204 119 1200 q 187 1215 166 1215 q 197 1212 193 1215 q 200 1208 200 1210 l 200 1205 l 201 -167 q 184 -179 201 -172 q 149 -190 166 -186 q 129 -193 132 -193 q 123 -192 125 -193 q 121 -190 121 -191 z "},"}":{"ha":351,"x_min":64,"x_max":309,"o":"m 64 -197 q 102 -172 81 -189 q 142 -132 123 -155 q 175 -79 162 -109 q 189 -20 189 -49 q 188 3 189 -8 q 184 27 187 15 q 179 46 181 39 q 173 67 178 54 q 165 85 168 80 q 157 105 163 90 q 149 123 151 119 q 113 269 113 198 q 125 338 113 305 q 156 394 137 372 q 193 432 174 416 q 228 453 212 447 q 193 475 212 460 q 156 512 174 490 q 125 568 137 535 q 113 637 113 601 q 149 783 113 708 q 157 802 151 787 q 165 821 163 817 q 173 839 168 826 q 179 860 178 852 q 184 879 181 867 q 188 903 187 891 q 189 926 189 914 q 175 985 189 955 q 142 1038 162 1015 q 102 1078 123 1061 q 64 1103 81 1095 q 72 1123 64 1114 q 90 1133 80 1133 q 145 1099 117 1122 q 199 1040 173 1075 q 241 955 225 1005 q 258 851 258 905 q 249 789 258 819 q 222 721 239 759 q 215 706 220 718 q 209 691 210 695 q 203 677 207 687 q 197 662 199 667 q 193 648 195 656 q 189 632 190 639 q 187 618 188 626 q 186 603 186 610 q 195 549 186 572 q 223 511 205 526 q 260 486 241 496 q 305 471 280 477 q 309 453 309 464 q 305 436 309 441 q 260 420 280 429 q 223 395 241 410 q 195 357 205 380 q 186 304 186 334 q 187 288 186 296 q 189 274 188 280 q 193 258 190 267 q 197 244 195 250 q 203 229 199 239 q 209 215 207 219 q 215 200 210 211 q 222 186 220 189 q 249 118 239 147 q 258 55 258 88 q 241 -49 258 1 q 199 -134 225 -99 q 145 -192 173 -168 q 90 -227 117 -216 q 72 -217 80 -227 q 64 -197 64 -208 z "},"~":{"ha":897,"x_min":88,"x_max":820,"o":"m 88 434 q 122 491 88 462 q 203 538 155 520 q 293 557 252 557 q 364 549 327 557 q 419 536 401 542 q 480 515 437 530 q 537 494 517 501 q 594 480 558 487 q 664 473 629 473 q 686 475 675 473 q 705 479 697 477 q 724 486 713 481 q 741 494 735 492 q 758 506 746 497 q 772 516 769 514 q 789 530 776 519 q 806 543 802 541 q 820 516 820 536 q 790 461 820 490 q 713 413 761 433 q 618 393 665 393 q 546 400 582 393 q 486 414 509 407 q 427 436 463 422 q 369 456 390 450 q 313 470 348 463 q 245 477 279 477 q 171 458 204 477 q 102 408 138 440 q 88 434 88 414 z "},"":{"ha":341,"x_min":0,"x_max":0,"o":""},"":{"ha":338,"x_min":83,"x_max":256,"o":"m 83 589 q 108 650 83 624 q 168 677 133 677 q 212 665 191 677 q 244 632 233 652 q 256 589 256 612 q 230 528 256 553 q 168 503 204 503 q 108 528 133 503 q 83 589 83 553 m 93 -260 q 95 -215 93 -247 q 102 -123 97 -183 q 113 1 107 -64 q 128 176 119 66 q 146 389 138 287 q 153 399 150 395 q 160 406 155 403 q 172 409 165 408 q 193 392 189 402 q 241 -260 241 -151 q 219 -323 241 -295 q 162 -351 198 -351 q 123 -336 139 -351 q 100 -301 106 -321 q 93 -260 93 -281 z "},"":{"ha":701,"x_min":71,"x_max":628,"o":"m 71 305 q 87 413 71 361 q 133 507 104 466 q 200 583 162 549 q 281 641 239 618 q 368 676 323 664 q 453 689 412 689 q 595 651 538 689 q 605 632 600 646 q 610 608 610 618 q 592 550 610 568 q 551 532 574 532 q 525 539 538 532 q 502 554 512 546 q 480 574 492 563 q 459 590 467 585 q 416 614 433 608 q 370 620 399 620 q 307 602 338 620 q 251 551 276 583 q 209 468 225 518 q 193 357 193 417 q 213 238 193 290 q 268 155 233 186 q 349 107 303 123 q 448 92 394 92 q 507 100 479 92 q 557 123 536 109 q 592 149 578 137 q 615 172 606 160 q 617 171 616 172 q 620 168 618 170 q 624 163 622 165 q 627 157 625 160 q 628 149 628 153 q 618 121 628 137 q 587 81 606 101 q 540 38 568 60 q 472 1 511 16 q 389 -13 432 -13 q 259 14 319 -13 q 158 85 199 41 q 94 186 117 129 q 71 305 71 244 m 297 -60 l 428 743 q 433 743 429 743 q 438 743 436 743 q 445 743 441 743 q 452 742 449 743 q 458 742 454 742 q 464 741 461 741 q 468 739 466 740 q 471 736 470 738 q 472 733 472 735 l 341 -71 q 297 -60 297 -71 z "},"":{"ha":750,"x_min":69,"x_max":692,"o":"m 69 25 q 77 59 69 41 q 101 96 85 77 q 125 124 117 115 q 148 148 133 133 q 190 206 170 170 q 221 284 209 241 q 233 363 233 326 q 217 481 233 374 l 87 481 q 96 513 79 488 q 123 538 112 538 l 208 538 q 197 628 197 604 q 220 776 195 705 q 287 895 245 846 q 384 972 330 943 q 494 1001 439 1001 q 554 993 532 1001 q 608 963 575 985 q 618 944 612 958 q 623 919 623 930 q 605 862 623 880 q 564 844 587 844 q 538 850 551 844 q 518 863 526 857 q 497 884 510 870 q 480 901 485 897 q 459 919 468 913 q 443 926 451 924 q 425 928 435 928 q 374 912 395 928 q 340 866 352 895 q 323 801 329 836 q 318 722 318 765 q 322 653 318 690 q 328 598 326 616 q 338 538 331 581 l 600 538 q 608 517 610 530 q 598 495 605 505 q 585 481 591 486 l 348 481 q 351 428 351 447 q 335 341 351 387 q 295 259 319 296 q 250 195 271 222 q 211 153 229 169 q 266 165 236 165 q 311 158 290 165 q 351 139 332 150 q 391 117 370 128 q 444 99 412 106 q 515 92 475 92 q 563 102 539 92 q 603 128 587 113 q 635 162 620 142 q 658 194 650 182 q 672 218 666 207 q 674 218 672 218 q 678 215 675 217 q 683 211 680 214 q 687 205 685 208 q 691 200 690 203 q 692 193 692 197 q 688 170 692 184 q 669 132 682 153 q 634 84 656 110 q 587 37 612 58 q 527 1 562 16 q 458 -13 493 -13 q 387 -3 421 -13 q 326 19 352 6 q 277 45 300 33 q 229 68 254 58 q 182 77 205 77 q 152 67 165 77 q 130 43 138 56 q 113 14 123 31 q 94 -9 102 -2 q 77 2 85 -9 q 69 25 69 14 z "},"":{"ha":903,"x_min":123,"x_max":783,"o":"m 123 242 l 208 323 q 161 483 161 397 q 220 665 161 586 l 138 753 q 136 759 136 755 q 138 765 136 762 q 142 773 140 769 q 150 782 145 778 q 159 791 154 787 q 170 800 164 795 q 182 807 176 804 q 195 813 189 810 q 208 818 201 817 l 290 732 q 450 781 360 781 q 626 716 549 781 l 719 802 q 739 799 725 808 q 765 770 752 789 q 783 733 779 751 l 689 645 q 734 483 734 569 q 683 313 734 390 l 768 222 q 764 202 774 216 q 736 176 755 189 q 699 157 717 163 l 616 244 q 450 189 542 189 q 271 252 349 189 l 187 173 q 168 177 181 167 q 141 205 155 186 q 123 242 128 224 m 275 502 q 301 370 275 431 q 371 274 328 309 q 463 239 414 239 q 546 271 509 239 q 602 353 583 302 q 621 463 621 404 q 596 595 621 534 q 528 692 570 656 q 436 728 485 728 q 370 710 401 728 q 319 660 340 691 q 287 587 299 628 q 275 502 275 546 z "},"":{"ha":1057,"x_min":41,"x_max":1014,"o":"m 47 962 q 41 981 41 962 q 47 1007 41 1001 q 112 1004 74 1006 q 179 1000 149 1002 q 244 999 210 999 q 446 1007 288 999 q 448 981 448 1000 q 442 962 448 962 q 418 959 432 962 q 387 952 404 957 q 359 936 370 947 q 348 911 348 925 q 367 864 348 895 l 585 490 q 708 722 641 589 q 793 897 776 854 q 798 920 798 911 q 794 928 798 924 q 781 938 790 932 q 760 949 772 944 q 726 957 747 954 q 680 960 705 960 q 675 981 676 960 q 677 1005 674 1002 q 728 1002 694 1004 q 787 999 762 1000 q 839 998 812 998 q 903 999 876 998 q 961 1002 930 1000 q 1012 1005 991 1004 q 1013 979 1014 998 q 1008 960 1012 960 q 996 959 1002 960 q 975 958 989 959 q 947 952 960 956 q 919 941 934 947 q 890 923 903 935 q 869 897 877 911 q 620 439 821 812 q 612 401 612 427 l 763 401 q 771 386 771 395 q 767 368 772 376 q 757 353 762 359 q 747 343 751 346 l 612 343 l 612 275 l 763 275 q 771 260 771 269 q 767 242 772 251 q 757 227 762 233 q 747 217 751 220 l 610 217 l 610 182 q 618 66 610 92 q 662 48 621 55 q 727 41 703 41 q 732 18 732 35 q 727 -5 732 1 q 669 -2 710 -4 q 599 2 627 1 q 543 3 570 3 q 487 2 515 3 q 415 -2 458 1 q 357 -5 373 -4 q 352 18 351 1 q 357 41 352 35 q 422 48 381 41 q 466 66 463 55 q 473 182 473 92 l 473 217 l 319 217 q 327 250 313 224 q 351 275 340 275 l 473 275 l 473 343 l 319 343 q 327 376 313 350 q 351 401 340 401 l 472 401 q 463 429 470 415 q 347 636 414 518 q 239 827 281 753 q 192 893 215 870 q 136 936 170 917 q 90 955 117 947 q 47 962 63 962 z "},"":{"ha":336,"x_min":127,"x_max":210,"o":"m 129 -190 q 128 -189 129 -190 q 129 -185 128 -189 q 129 -181 129 -182 l 129 392 q 137 404 127 401 q 197 412 163 412 q 206 410 203 412 q 210 405 210 408 l 210 403 l 210 -170 q 192 -181 210 -176 q 157 -190 174 -187 q 137 -193 140 -193 q 131 -192 133 -193 q 129 -190 129 -191 m 131 607 q 130 608 131 607 q 129 609 129 608 q 129 614 128 610 q 129 618 129 618 l 129 1191 q 137 1204 127 1200 q 197 1211 163 1211 q 206 1209 203 1211 q 210 1204 210 1206 l 210 1202 l 210 629 q 177 613 210 621 q 137 606 145 606 q 131 607 133 606 z "},"":{"ha":694,"x_min":60,"x_max":635,"o":"m 60 623 q 73 690 60 653 q 106 762 85 727 q 151 832 126 798 q 201 894 176 867 q 247 941 225 922 q 191 825 200 891 q 166 782 174 797 q 151 743 158 767 q 144 692 144 719 q 159 600 144 646 q 202 514 174 555 q 257 443 229 474 q 321 378 285 411 q 344 356 328 372 q 370 333 361 341 q 394 310 378 326 q 419 285 410 295 q 442 259 429 275 q 463 231 455 243 q 480 203 471 219 q 495 172 490 186 q 503 140 500 157 q 507 107 507 123 q 505 80 507 90 q 488 52 501 75 q 434 -5 450 22 q 429 -20 430 -12 q 427 -38 427 -28 q 425 -55 426 -49 q 448 -36 434 -48 q 350 -100 410 -77 q 217 -123 290 -123 q 153 -110 182 -123 q 143 -69 143 -92 q 162 -33 143 -52 q 200 -13 182 -13 q 214 -14 208 -13 q 227 -17 221 -15 q 237 -21 233 -20 q 248 -26 241 -23 q 256 -31 254 -30 q 307 -44 281 -44 q 361 -36 334 -44 q 412 -7 389 -28 q 434 41 434 13 q 415 102 434 66 q 365 174 397 137 q 304 242 334 212 q 242 302 275 273 q 192 352 214 328 q 143 408 169 375 q 100 473 117 441 q 71 545 83 505 q 60 623 60 584 m 189 798 q 191 825 189 815 q 208 852 195 829 q 261 909 245 883 q 267 925 265 917 q 269 943 269 932 q 271 960 270 954 q 247 941 261 953 q 346 1004 286 981 q 478 1027 405 1027 q 543 1015 513 1027 q 552 974 552 996 q 543 950 552 963 q 521 927 534 937 q 496 918 508 918 q 481 919 488 918 q 469 922 475 920 q 458 926 463 924 q 448 931 454 928 q 439 936 441 935 q 389 949 414 949 q 334 941 361 949 q 283 912 306 932 q 261 864 261 892 q 280 803 261 838 q 330 730 299 768 q 391 663 361 693 q 453 603 421 632 q 504 553 481 576 q 552 496 526 530 q 595 431 578 463 q 624 360 612 399 q 635 281 635 321 q 623 215 635 252 q 590 142 610 178 q 544 73 570 107 q 494 11 519 38 q 448 -36 470 -17 q 505 80 496 14 q 530 123 522 108 q 544 162 537 138 q 551 212 551 186 q 540 288 551 250 q 513 357 530 326 q 473 420 497 388 q 426 476 449 452 q 374 527 403 500 q 349 550 368 532 q 320 576 329 568 q 293 603 312 585 q 266 632 275 621 q 242 661 256 643 q 220 693 227 678 q 204 725 212 707 q 192 761 196 743 q 189 798 189 779 z "},"":{"ha":593,"x_min":79,"x_max":515,"o":"m 79 813 q 89 849 79 833 q 117 876 100 866 q 154 886 135 886 q 205 864 184 886 q 227 812 227 842 q 216 776 227 793 q 189 750 206 760 q 153 741 172 741 q 101 763 123 741 q 79 813 79 784 m 367 813 q 377 849 367 833 q 405 876 388 866 q 442 886 422 886 q 478 876 461 886 q 505 848 495 865 q 515 812 515 831 q 504 776 515 793 q 477 750 494 760 q 441 741 460 741 q 389 763 411 741 q 367 813 367 784 z "},"":{"ha":1036,"x_min":88,"x_max":949,"o":"m 122 371 q 105 411 122 371 q 88 538 88 450 q 122 705 88 626 q 214 842 156 785 q 351 934 271 900 q 517 968 430 968 q 685 934 605 968 q 823 842 765 900 q 915 705 880 785 q 949 538 949 625 q 915 371 949 450 q 823 234 880 292 q 685 142 765 176 q 517 109 605 109 q 351 142 430 109 q 214 234 271 176 q 122 371 156 292 m 170 686 q 155 650 170 686 q 140 538 140 615 q 170 391 140 461 q 251 269 200 320 q 372 188 302 218 q 519 157 442 157 q 639 177 581 157 q 744 231 697 196 q 826 313 791 267 q 881 418 861 360 q 900 538 900 476 q 870 686 900 615 q 788 807 840 756 q 667 889 737 859 q 519 919 596 919 q 372 889 442 919 q 251 807 302 859 q 170 686 200 756 m 294 529 q 322 644 294 591 q 401 729 350 697 q 516 760 452 760 q 571 757 541 760 q 633 747 600 753 q 692 730 667 740 q 718 634 718 640 q 715 629 718 631 q 709 624 713 626 q 701 621 705 622 q 692 620 696 620 q 682 623 688 620 q 675 640 680 631 q 660 661 671 649 q 634 683 649 673 q 592 700 618 692 q 535 707 566 707 q 428 658 472 707 q 384 543 384 609 q 399 460 384 497 q 440 402 415 424 q 493 369 465 380 q 549 357 521 357 q 616 365 585 357 q 663 387 648 373 q 676 408 671 395 q 683 430 681 420 q 686 439 685 439 q 693 438 688 439 q 703 438 697 438 q 712 436 708 437 q 718 434 717 435 q 705 384 718 427 q 686 336 693 340 q 519 307 612 307 q 359 371 424 307 q 294 529 294 435 z "},"":{"ha":543,"x_min":74,"x_max":490,"o":"m 74 517 q 91 572 74 548 q 129 604 109 596 q 194 627 145 610 q 274 656 243 644 q 319 673 305 667 q 330 682 328 677 q 332 700 332 686 l 332 730 q 322 777 332 755 q 290 813 311 799 q 239 827 268 827 q 198 813 212 827 q 178 766 184 799 q 161 726 173 739 q 127 714 149 714 q 100 728 111 714 q 90 760 90 742 q 91 768 90 762 q 94 779 92 773 q 98 787 96 785 q 186 846 130 817 q 296 875 242 875 q 354 856 326 875 q 398 802 381 836 q 415 727 415 768 l 415 502 q 448 450 415 450 q 462 452 455 450 q 472 456 469 454 q 480 461 476 458 q 485 464 484 464 q 490 456 490 464 q 483 436 490 446 q 444 409 471 424 q 401 393 417 393 q 359 415 378 393 q 335 464 340 437 q 304 440 328 456 q 250 408 281 423 q 201 392 218 392 q 111 428 147 392 q 74 517 74 465 m 163 527 q 185 473 163 496 q 237 450 207 450 q 268 457 251 450 q 299 473 286 464 q 322 490 313 481 q 332 503 332 499 l 332 637 q 299 627 322 634 q 257 615 275 621 q 231 606 239 609 q 181 574 199 593 q 163 527 163 556 z "},"":{"ha":758,"x_min":43,"x_max":697,"o":"m 43 387 q 43 396 43 393 q 44 401 43 400 q 46 408 44 403 q 50 415 49 412 q 164 490 108 450 q 254 556 220 529 q 323 613 289 583 q 364 650 357 643 q 379 665 371 657 q 414 647 407 657 q 324 532 407 623 q 181 389 241 441 q 324 245 241 336 q 414 131 407 154 q 379 112 407 121 q 364 127 371 120 q 323 164 357 134 q 254 221 289 194 q 164 288 220 248 q 50 362 108 327 q 43 387 43 374 m 326 387 q 326 396 326 393 q 327 401 327 400 q 330 408 328 403 q 334 415 332 412 q 447 490 391 450 q 537 556 503 529 q 606 613 572 583 q 647 650 640 643 q 663 665 654 658 q 697 647 690 657 q 607 532 690 623 q 464 389 524 441 q 554 302 501 356 q 649 197 606 248 q 697 131 692 146 q 663 112 690 121 q 654 120 657 117 q 633 140 652 123 q 597 172 614 157 q 549 211 580 186 q 488 258 519 236 q 417 309 458 281 q 334 362 376 336 q 326 387 326 374 z "},"":{"ha":923,"x_min":71,"x_max":812,"o":"m 71 589 q 94 661 79 661 l 812 661 l 812 266 q 800 259 810 264 q 770 248 789 254 q 738 242 752 242 q 718 254 722 244 l 718 572 l 80 572 q 79 573 80 572 q 77 574 79 573 q 74 576 75 574 q 72 581 73 578 q 71 589 71 584 z "},"":{"ha":593,"x_min":92,"x_max":502,"o":"m 92 330 q 112 411 92 367 q 491 429 439 428 q 499 427 496 429 q 502 415 502 424 q 481 330 502 374 q 102 313 449 328 q 96 315 98 313 q 93 320 94 316 q 92 330 92 323 z "},"":{"ha":1036,"x_min":88,"x_max":949,"o":"m 122 473 q 105 513 122 473 q 88 640 88 553 q 122 807 88 728 q 214 944 156 887 q 351 1036 271 1002 q 517 1070 430 1070 q 685 1036 605 1070 q 823 944 765 1002 q 915 807 880 887 q 949 640 949 728 q 915 473 949 553 q 823 335 880 393 q 685 243 765 277 q 517 210 605 210 q 351 243 430 210 q 214 335 271 277 q 122 473 156 393 m 140 640 q 170 493 140 564 q 251 371 200 422 q 372 290 302 320 q 519 260 442 260 q 639 279 581 260 q 744 334 697 298 q 826 416 791 369 q 881 520 861 463 q 900 640 900 578 q 870 788 900 718 q 788 909 840 858 q 667 989 737 960 q 519 1019 596 1019 q 419 1006 468 1019 q 328 968 370 992 q 251 908 286 943 q 192 832 216 873 q 154 741 168 790 q 140 640 140 692 m 324 429 q 321 440 321 432 q 324 452 321 449 q 339 453 330 452 q 359 456 349 454 q 370 463 369 459 q 373 511 373 473 l 373 790 q 370 839 373 827 q 352 847 369 844 q 324 850 334 850 q 321 861 321 852 q 324 871 321 869 q 414 869 378 869 q 456 869 425 869 q 508 870 487 870 q 571 857 540 870 q 626 817 603 844 q 650 753 650 789 q 624 689 650 720 q 564 645 599 659 q 677 488 606 574 q 708 461 692 469 q 752 452 724 454 q 753 447 753 450 q 752 440 753 444 q 751 433 752 437 q 751 429 751 430 q 644 437 665 429 q 601 466 616 447 q 491 626 564 514 q 471 634 485 634 l 447 634 l 447 511 q 450 463 447 473 q 468 455 451 458 q 496 452 485 452 q 498 440 498 449 q 496 429 498 432 q 411 433 442 433 q 324 429 378 433 m 447 663 l 475 663 q 526 670 505 663 q 561 695 548 678 q 574 738 574 713 q 554 816 574 788 q 483 844 534 844 q 450 837 453 844 q 447 787 447 829 l 447 663 z "},"":{"ha":532,"x_min":75,"x_max":457,"o":"m 87 783 q 80 815 75 789 q 96 850 85 842 l 448 850 q 454 820 457 844 q 439 783 450 796 l 87 783 z "},"":{"ha":431,"x_min":60,"x_max":370,"o":"m 60 844 q 106 952 60 907 q 216 998 152 998 q 325 952 279 998 q 370 844 370 907 q 325 733 370 779 q 216 688 279 688 q 106 734 152 688 q 60 844 60 780 m 118 844 q 147 774 118 803 q 216 746 176 746 q 283 774 256 746 q 311 844 311 803 q 283 911 311 884 q 216 939 256 939 q 146 911 175 939 q 118 844 118 883 z "},"":{"ha":862,"x_min":54,"x_max":808,"o":"m 54 25 q 60 62 54 35 q 77 98 67 90 l 795 98 q 804 93 800 98 q 808 79 808 87 q 801 40 808 60 q 783 9 793 19 l 63 9 q 60 10 62 9 q 56 14 59 10 q 54 25 54 18 m 54 496 q 60 533 54 506 q 77 568 67 560 l 385 568 l 385 883 q 453 900 431 900 q 461 899 458 900 q 467 897 465 898 q 471 894 469 895 q 473 892 473 892 l 473 890 l 473 568 l 795 568 q 804 563 800 568 q 808 549 808 558 q 801 510 808 531 q 783 480 793 490 l 473 480 l 473 162 q 406 144 450 144 q 392 149 398 144 q 385 159 385 154 l 385 480 l 63 480 q 63 480 63 480 q 61 480 62 480 q 59 481 60 481 q 57 483 58 481 q 55 486 56 484 q 54 490 54 487 q 54 496 54 492 z "},"":{"ha":563,"x_min":59,"x_max":503,"o":"m 61 418 q 129 488 83 442 q 215 576 175 534 q 283 658 255 619 q 357 834 357 755 q 330 916 357 884 q 254 947 302 947 q 207 941 228 947 q 168 921 185 934 q 141 897 151 908 q 117 870 130 886 q 100 878 112 865 q 90 897 88 890 q 170 982 119 947 q 272 1018 220 1018 q 407 971 355 1018 q 459 850 459 924 q 387 690 459 778 q 348 647 372 673 q 302 600 323 621 q 245 542 282 579 q 191 486 209 505 l 379 486 q 413 493 397 486 q 438 512 428 500 q 455 534 448 524 q 467 556 461 544 q 473 571 473 569 q 481 576 475 574 q 493 573 486 576 q 503 566 500 570 q 477 490 497 550 q 446 399 458 429 l 80 399 q 66 407 73 399 q 61 418 59 414 z "},"":{"ha":500,"x_min":61,"x_max":442,"o":"m 61 453 q 76 491 61 476 q 110 505 90 505 q 131 499 122 505 q 151 478 140 492 q 167 459 162 464 q 228 436 191 436 q 310 473 279 436 q 341 579 341 509 q 307 675 341 635 q 228 714 273 714 q 202 711 216 714 q 177 705 189 709 q 165 702 166 702 q 157 719 161 707 q 157 734 155 730 q 262 784 220 747 q 304 875 304 820 q 279 930 304 905 q 223 955 254 955 q 205 954 214 955 q 187 949 195 952 q 171 942 178 945 q 157 933 164 939 q 144 925 149 928 q 133 916 139 922 q 124 908 127 911 q 117 901 121 905 q 113 897 113 897 q 106 904 110 899 q 100 916 102 910 q 99 922 98 921 q 255 1017 162 1017 q 320 1003 290 1017 q 371 962 350 990 q 392 895 392 933 q 383 848 392 871 q 359 809 374 825 q 330 782 345 793 q 300 765 315 771 q 331 759 313 765 q 368 739 349 752 q 404 708 387 726 q 431 663 420 690 q 442 608 442 637 q 421 515 442 557 q 365 447 401 474 q 283 406 330 420 q 186 392 237 392 q 124 399 157 392 q 80 415 92 406 q 61 453 61 433 z "},"":{"ha":409,"x_min":79,"x_max":330,"o":"m 79 845 q 136 934 79 852 q 231 1063 193 1016 q 238 1067 233 1065 q 254 1073 243 1070 q 274 1076 264 1076 q 306 1070 293 1076 q 323 1056 318 1065 q 329 1041 328 1047 q 330 1031 330 1036 q 295 977 330 1013 q 217 908 260 941 q 137 850 174 875 q 93 825 99 825 q 79 845 79 825 z "},"":{"ha":851,"x_min":123,"x_max":808,"o":"m 123 -299 q 133 -17 123 -250 q 156 321 144 216 q 153 395 156 340 q 149 469 149 451 q 150 510 149 471 q 150 589 150 549 q 149 656 150 629 q 159 671 155 666 q 170 682 162 675 q 187 688 178 688 q 215 677 195 688 q 253 653 235 667 q 271 629 271 639 q 235 387 271 557 l 227 351 q 231 259 227 302 q 245 179 236 216 q 270 122 254 143 q 307 100 286 100 q 367 117 337 100 q 420 158 396 133 q 465 218 444 184 q 502 287 486 253 q 530 357 517 321 l 530 469 q 531 510 530 471 q 531 589 531 549 q 530 656 531 629 q 537 667 535 663 q 545 676 539 670 q 556 685 550 682 q 568 688 562 688 q 616 666 582 688 q 651 629 651 644 q 650 608 651 621 q 645 571 648 594 q 638 526 642 549 q 627 462 634 503 q 615 387 621 422 l 600 307 q 612 204 600 250 q 649 132 624 159 q 709 104 675 104 q 790 151 753 104 q 804 137 795 151 q 808 119 808 127 q 751 31 793 67 q 663 -6 709 -6 q 623 14 641 -6 q 594 62 605 35 q 576 125 584 90 q 565 183 568 160 q 560 223 562 206 q 527 156 545 189 q 486 92 509 124 q 436 37 462 60 q 379 0 410 14 q 316 -14 348 -14 q 281 0 298 -14 q 255 33 265 14 q 236 78 245 52 q 224 122 228 104 q 217 159 220 140 q 217 65 218 154 q 223 -134 217 -24 q 244 -326 229 -243 q 235 -340 238 -336 q 223 -351 231 -345 q 206 -357 215 -357 q 178 -347 198 -357 q 140 -323 158 -337 q 123 -299 123 -309 z "},"":{"ha":761,"x_min":54,"x_max":680,"o":"m 54 738 q 77 855 54 800 q 140 947 101 910 q 226 1005 178 983 q 323 1026 274 1026 q 399 1023 369 1026 q 475 1019 429 1019 q 570 1021 522 1019 q 642 1025 617 1023 l 665 1027 q 671 1003 671 1021 q 664 982 670 985 q 632 978 651 982 q 595 967 613 975 q 574 950 578 959 q 570 850 570 934 l 570 533 q 592 538 573 532 q 629 549 612 543 l 647 554 q 663 545 663 554 q 644 512 661 533 q 616 486 626 490 q 568 471 587 473 l 568 182 q 576 66 568 92 q 600 51 578 58 q 645 40 622 43 q 678 36 667 36 q 680 16 680 36 q 678 -6 680 -4 q 581 -1 639 -5 q 467 3 522 3 q 398 2 435 3 q 311 -3 361 0 q 249 -6 261 -5 q 246 16 245 1 q 252 36 246 32 q 306 45 268 36 q 348 66 345 55 q 355 182 355 92 l 355 452 q 276 462 314 452 q 208 489 237 472 q 152 530 178 507 q 109 579 127 553 q 78 633 91 605 q 60 687 66 661 q 54 738 54 714 m 417 182 q 422 66 417 92 q 461 57 423 57 q 502 66 500 57 q 507 182 507 92 l 505 459 q 417 453 505 459 l 417 182 m 417 516 q 467 518 431 516 q 507 524 503 521 l 507 954 q 461 962 498 962 q 417 952 427 962 l 417 516 z "},"":{"ha":352,"x_min":85,"x_max":267,"o":"m 85 415 q 112 480 85 453 q 176 507 138 507 q 241 480 214 507 q 267 415 267 453 q 240 350 267 378 q 176 323 214 323 q 130 335 151 323 q 97 369 109 348 q 85 415 85 391 z "},"":{"ha":363,"x_min":79,"x_max":285,"o":"m 79 -203 q 86 -188 79 -195 q 100 -181 94 -181 q 127 -191 109 -181 q 159 -201 146 -201 q 196 -194 180 -201 q 219 -175 212 -186 q 227 -149 227 -163 q 211 -110 227 -123 q 178 -96 196 -96 q 169 -97 173 -96 q 160 -98 165 -97 q 153 -100 155 -100 q 145 -103 151 -101 q 137 -107 139 -106 q 126 -99 134 -107 q 121 -87 119 -91 q 146 -47 127 -77 q 172 -6 165 -18 l 205 -6 l 176 -43 l 216 -43 q 243 -49 231 -43 q 266 -65 256 -55 q 280 -90 275 -76 q 285 -119 285 -104 q 242 -207 285 -174 q 137 -239 200 -239 q 117 -237 128 -239 q 97 -231 106 -235 q 83 -225 88 -228 q 81 -216 83 -224 q 79 -203 79 -209 z "},"":{"ha":459,"x_min":61,"x_max":408,"o":"m 61 897 q 66 909 61 907 q 198 969 140 940 q 278 1012 256 998 q 302 1026 301 1026 l 305 1026 q 310 1023 307 1026 q 314 1017 312 1021 q 318 1009 316 1014 q 320 1001 319 1004 q 323 994 321 998 q 324 989 324 990 q 310 862 310 924 l 310 535 q 312 494 310 509 q 323 461 315 479 q 358 446 326 454 q 404 439 391 439 q 408 421 408 439 q 404 398 408 403 q 364 399 385 399 q 329 401 342 400 q 295 402 315 401 q 254 403 275 403 q 166 401 218 403 q 96 398 114 399 q 90 419 90 401 q 96 437 90 437 q 147 445 113 437 q 184 459 181 452 q 193 532 193 484 l 193 815 q 189 868 193 850 q 179 891 185 886 q 163 895 174 895 q 75 870 147 895 q 68 877 71 872 q 63 887 64 882 q 61 897 61 892 z "},"":{"ha":610,"x_min":60,"x_max":551,"o":"m 60 628 q 79 722 60 677 q 131 800 98 767 q 211 852 164 833 q 309 871 257 871 q 431 840 376 871 q 519 753 487 808 q 551 634 551 699 q 519 513 551 570 q 431 422 488 456 q 309 389 375 389 q 184 421 241 389 q 93 508 126 453 q 60 628 60 564 m 168 647 q 178 568 168 606 q 205 498 187 530 q 254 446 224 466 q 321 427 283 427 q 376 444 352 427 q 414 489 400 460 q 435 549 428 517 q 442 615 442 581 q 433 693 442 655 q 407 763 424 730 q 360 814 389 795 q 294 834 331 834 q 236 818 262 834 q 197 773 211 801 q 175 713 182 745 q 168 647 168 682 z "},"":{"ha":758,"x_min":64,"x_max":719,"o":"m 64 131 q 155 245 71 154 q 297 389 238 336 q 155 532 238 441 q 64 647 71 623 q 99 665 71 657 q 107 657 104 660 q 129 637 110 654 q 164 605 147 620 q 212 566 182 591 q 273 519 243 541 q 345 469 304 496 q 428 415 386 441 q 431 409 429 412 q 433 404 433 405 q 435 400 434 402 q 436 395 435 397 q 436 387 436 392 q 428 362 436 374 q 314 288 370 327 q 224 221 258 248 q 156 164 190 194 q 115 127 122 134 q 99 112 107 120 q 64 131 71 121 m 348 131 q 438 245 355 154 q 581 389 521 336 q 438 532 521 441 q 348 647 355 623 q 382 665 355 657 q 391 657 388 660 q 412 637 393 654 q 448 605 431 620 q 496 566 465 591 q 556 519 526 541 q 628 469 587 496 q 711 415 669 441 q 714 409 713 412 q 716 405 715 406 q 718 402 717 404 q 719 398 718 400 q 719 394 719 396 q 719 387 719 391 q 711 362 719 374 q 598 288 654 327 q 507 221 542 248 q 439 164 473 194 q 398 127 405 134 q 382 112 391 120 q 348 131 355 121 z "},"":{"ha":1099,"x_min":54,"x_max":1041,"o":"m 54 878 q 266 1004 75 891 q 280 994 274 1002 q 286 979 286 987 q 274 840 274 901 l 274 529 q 285 452 274 485 q 318 437 287 444 q 363 429 350 429 q 368 411 368 422 q 365 395 367 399 q 303 397 342 395 q 230 399 264 399 q 151 397 195 399 q 85 395 106 395 q 80 412 79 399 q 85 429 80 425 q 113 433 95 429 q 146 443 130 437 q 163 453 161 448 q 169 471 166 460 q 173 491 172 481 q 175 510 174 501 q 176 526 176 519 l 176 818 q 169 857 176 841 q 149 873 161 873 q 132 870 142 873 q 101 860 121 867 q 74 850 81 852 q 54 878 61 857 m 275 -6 l 825 1001 q 831 1007 825 1004 q 849 1013 838 1010 q 873 1013 861 1015 q 883 1007 880 1013 q 886 998 886 1002 l 343 3 q 324 -15 338 -6 q 293 -20 309 -24 q 280 -16 285 -19 q 276 -9 276 -12 l 275 -6 m 600 192 l 922 621 q 954 640 937 640 q 964 634 960 640 q 968 621 968 628 l 968 230 l 1023 230 q 1038 202 1034 220 q 1032 167 1041 184 l 972 167 l 972 0 q 925 -5 968 -5 q 875 3 884 -5 l 875 167 l 615 167 q 600 192 602 170 m 695 237 l 875 237 l 875 480 q 786 360 842 438 q 695 237 730 282 z "},"":{"ha":1179,"x_min":58,"x_max":1126,"o":"m 58 878 q 271 1004 79 891 q 285 994 279 1002 q 291 979 291 987 q 279 840 279 901 l 279 529 q 290 452 279 485 q 323 437 292 444 q 368 429 355 429 q 372 411 373 422 q 370 395 372 399 q 307 397 346 395 q 235 399 269 399 q 155 397 199 399 q 90 395 111 395 q 84 412 84 399 q 90 429 85 425 q 117 433 100 429 q 151 443 135 437 q 168 453 166 448 q 175 477 172 463 q 180 505 178 492 q 181 526 181 517 l 181 818 q 173 857 181 841 q 154 873 165 873 q 136 870 146 873 q 106 860 126 867 q 79 850 86 852 q 58 878 66 857 m 277 -6 l 826 1001 q 833 1007 827 1004 q 851 1013 840 1010 q 875 1013 863 1015 q 884 1007 881 1013 q 887 998 887 1002 l 345 3 q 326 -15 340 -6 q 294 -20 311 -24 q 282 -16 286 -19 q 277 -9 278 -12 l 277 -6 m 684 18 q 771 106 687 20 q 892 239 854 191 q 980 433 980 352 q 952 515 980 484 q 876 546 925 546 q 830 539 851 546 q 791 520 808 533 q 763 496 774 507 q 739 469 753 486 q 723 477 735 465 q 713 496 711 490 q 792 581 741 545 q 895 616 843 616 q 992 595 949 616 q 1059 536 1035 574 q 1082 448 1082 497 q 1010 290 1082 376 q 986 262 1000 277 q 958 231 972 246 q 924 197 943 216 q 889 161 905 178 q 851 123 873 145 q 813 85 829 101 l 1002 85 q 1031 90 1017 85 q 1053 103 1044 96 q 1070 122 1062 111 q 1082 141 1078 132 q 1091 158 1086 149 q 1097 170 1095 168 q 1105 175 1098 172 q 1116 172 1109 175 q 1126 165 1123 170 q 1101 88 1120 149 q 1068 -1 1081 28 l 703 -1 q 689 6 696 -1 q 684 18 682 13 z "},"":{"ha":1101,"x_min":55,"x_max":1042,"o":"m 55 453 q 70 491 55 476 q 104 505 84 505 q 125 499 116 505 q 145 478 134 492 q 161 459 156 464 q 222 436 184 436 q 304 473 273 436 q 335 579 335 509 q 301 675 335 635 q 222 714 267 714 q 196 711 210 714 q 171 705 182 709 q 159 702 160 702 q 151 721 154 707 q 151 734 149 729 q 207 752 181 741 q 253 782 233 764 q 285 823 273 799 q 297 875 297 847 q 272 930 297 905 q 217 955 248 955 q 200 954 209 955 q 184 950 191 952 q 170 944 177 947 q 156 937 162 941 q 144 929 150 934 q 133 922 138 925 q 124 913 129 918 q 116 906 119 909 q 111 901 114 904 q 107 897 107 897 q 99 904 103 899 q 94 916 96 910 q 93 922 92 921 q 249 1017 156 1017 q 313 1003 283 1017 q 365 962 344 990 q 385 895 385 933 q 376 848 385 871 q 352 809 367 825 q 323 782 338 793 q 294 765 309 771 q 325 759 307 765 q 362 739 342 752 q 398 708 381 726 q 425 663 414 690 q 436 608 436 637 q 415 515 436 557 q 359 447 394 474 q 277 406 323 420 q 179 392 231 392 q 140 395 161 392 q 100 403 119 397 q 74 415 81 409 q 55 453 55 433 m 285 -6 l 834 1001 q 841 1007 835 1004 q 859 1013 847 1010 q 883 1013 870 1015 q 890 1009 887 1013 q 894 1003 893 1006 q 895 998 895 1000 l 353 3 q 333 -15 348 -6 q 302 -20 319 -24 q 290 -16 294 -19 q 286 -9 286 -12 l 285 -6 m 601 192 l 924 621 q 955 640 939 640 q 965 634 962 640 q 969 621 969 628 l 969 230 l 1024 230 q 1039 202 1036 220 q 1034 167 1042 184 l 974 167 l 974 0 q 926 -5 969 -5 q 876 3 886 -5 l 876 167 l 616 167 q 601 192 603 170 m 697 237 l 876 237 l 876 480 q 788 360 844 438 q 697 237 732 282 z "},"":{"ha":543,"x_min":64,"x_max":464,"o":"m 64 -60 q 100 76 64 21 q 223 181 136 131 q 271 213 244 193 q 320 251 298 233 q 346 279 342 270 q 354 302 351 288 q 356 328 356 317 q 356 361 357 338 q 355 389 355 383 q 366 404 361 399 q 380 409 371 408 q 401 392 395 403 q 410 326 407 368 q 414 249 414 283 q 410 205 414 226 q 400 170 406 185 q 383 140 394 155 q 363 115 372 125 q 339 94 355 106 q 316 76 324 82 q 291 60 307 71 q 287 58 288 59 q 283 56 286 57 q 280 53 281 54 q 275 50 279 52 q 244 31 254 37 q 217 12 234 24 q 192 -8 200 0 q 172 -28 183 -16 q 156 -52 161 -41 q 147 -77 151 -63 q 143 -107 143 -92 q 178 -201 143 -165 q 260 -236 212 -236 q 310 -231 288 -236 q 343 -220 332 -226 q 368 -208 355 -214 q 395 -203 382 -203 q 440 -225 416 -203 q 464 -281 464 -247 q 450 -340 464 -320 q 374 -351 428 -351 q 302 -338 342 -351 q 220 -301 262 -326 q 144 -242 178 -276 q 87 -160 109 -208 q 64 -60 64 -113 m 280 589 q 305 650 280 624 q 365 677 330 677 q 409 665 388 677 q 441 632 429 652 q 453 589 453 612 q 427 528 453 553 q 365 503 401 503 q 305 528 330 503 q 280 589 280 553 z "},"":{"ha":986,"x_min":-22,"x_max":995,"o":"m -19 -5 q -22 16 -22 -1 q -19 41 -22 33 q 33 49 1 41 q 75 71 65 57 q 113 132 97 98 q 149 218 129 166 q 453 998 357 753 q 464 1011 456 1003 q 480 1026 471 1019 q 499 1038 490 1034 q 513 1043 508 1043 q 518 1041 515 1043 q 522 1038 520 1039 l 844 198 q 883 94 882 95 q 915 64 890 77 q 960 46 939 51 q 989 41 981 41 q 995 18 995 34 q 993 -5 995 1 q 939 -2 973 -4 q 878 2 905 1 q 820 3 850 3 q 760 2 787 3 q 697 -1 732 1 q 637 -5 663 -3 q 632 18 631 1 q 639 41 633 35 q 687 47 656 41 q 727 61 718 53 q 733 83 733 68 q 706 181 733 104 q 653 324 680 258 l 626 390 q 616 397 621 397 q 461 398 596 398 q 291 393 362 398 q 288 392 290 393 q 284 390 286 391 l 283 389 q 212 197 239 272 q 191 85 191 132 q 201 66 191 75 q 225 53 211 58 q 255 46 239 49 q 283 42 272 43 q 299 41 294 41 q 303 20 302 37 q 302 -5 304 2 q 253 -1 279 -3 q 203 2 226 1 q 149 3 180 3 q 93 2 117 3 q 38 -1 68 1 q -19 -5 8 -3 m 267 1308 q 283 1341 267 1326 q 340 1355 299 1355 q 368 1350 359 1355 q 483 1244 408 1320 q 559 1160 559 1168 q 556 1151 559 1156 q 549 1145 553 1145 q 494 1163 538 1145 q 398 1206 449 1181 q 308 1259 348 1230 q 267 1308 267 1289 m 313 469 q 316 463 313 463 q 459 459 398 459 q 591 464 518 459 q 594 466 593 464 q 596 470 595 468 l 596 472 l 458 852 l 313 469 z "},"":{"ha":986,"x_min":-22,"x_max":995,"o":"m -19 -5 q -22 16 -22 -1 q -19 41 -22 33 q 33 49 1 41 q 75 71 65 57 q 113 132 97 98 q 149 218 129 166 q 453 998 357 753 q 464 1011 456 1003 q 480 1026 471 1019 q 499 1038 490 1034 q 513 1043 508 1043 q 518 1041 515 1043 q 522 1038 520 1039 l 844 198 q 883 94 882 95 q 915 64 890 77 q 960 46 939 51 q 989 41 981 41 q 995 18 995 34 q 993 -5 995 1 q 939 -2 973 -4 q 878 2 905 1 q 820 3 850 3 q 760 2 787 3 q 697 -1 732 1 q 637 -5 663 -3 q 632 18 631 1 q 639 41 633 35 q 687 47 656 41 q 727 61 718 53 q 733 83 733 68 q 706 181 733 104 q 653 324 680 258 l 626 390 q 616 397 621 397 q 461 398 596 398 q 291 393 362 398 q 288 392 290 393 q 284 390 286 391 l 283 389 q 212 197 239 272 q 191 85 191 132 q 201 66 191 75 q 225 53 211 58 q 255 46 239 49 q 283 42 272 43 q 299 41 294 41 q 303 20 302 37 q 302 -5 304 2 q 253 -1 279 -3 q 203 2 226 1 q 149 3 180 3 q 93 2 117 3 q 38 -1 68 1 q -19 -5 8 -3 m 313 469 q 316 463 313 463 q 459 459 398 459 q 591 464 518 459 q 594 466 593 464 q 596 470 595 468 l 596 472 l 458 852 l 313 469 m 423 1160 q 498 1244 423 1168 q 614 1350 574 1320 q 642 1355 623 1355 q 699 1341 683 1355 q 714 1308 714 1326 q 674 1259 714 1289 q 584 1206 634 1230 q 488 1163 533 1181 q 433 1145 444 1145 q 426 1151 429 1145 q 423 1160 423 1156 z "},"":{"ha":986,"x_min":-22,"x_max":995,"o":"m -19 -5 q -22 16 -22 -1 q -19 41 -22 33 q 33 49 1 41 q 75 71 65 57 q 113 132 97 98 q 149 218 129 166 q 453 998 357 753 q 464 1011 456 1003 q 480 1026 471 1019 q 499 1038 490 1034 q 513 1043 508 1043 q 518 1041 515 1043 q 522 1038 520 1039 l 844 198 q 883 94 882 95 q 915 64 890 77 q 960 46 939 51 q 989 41 981 41 q 995 18 995 34 q 993 -5 995 1 q 939 -2 973 -4 q 878 2 905 1 q 820 3 850 3 q 760 2 787 3 q 697 -1 732 1 q 637 -5 663 -3 q 632 18 631 1 q 639 41 633 35 q 687 47 656 41 q 727 61 718 53 q 733 83 733 68 q 706 181 733 104 q 653 324 680 258 l 626 390 q 616 397 621 397 q 461 398 596 398 q 291 393 362 398 q 288 392 290 393 q 284 390 286 391 l 283 389 q 212 197 239 272 q 191 85 191 132 q 201 66 191 75 q 225 53 211 58 q 255 46 239 49 q 283 42 272 43 q 299 41 294 41 q 303 20 302 37 q 302 -5 304 2 q 253 -1 279 -3 q 203 2 226 1 q 149 3 180 3 q 93 2 117 3 q 38 -1 68 1 q -19 -5 8 -3 m 313 469 q 316 463 313 463 q 459 459 398 459 q 591 464 518 459 q 594 466 593 464 q 596 470 595 468 l 596 472 l 458 852 l 313 469 m 330 1171 q 403 1245 351 1192 q 492 1339 455 1298 q 511 1352 505 1352 q 530 1339 517 1352 q 610 1256 562 1305 q 690 1171 657 1206 q 686 1153 690 1162 q 675 1144 682 1144 l 511 1244 l 348 1144 q 336 1153 341 1144 q 330 1171 330 1162 z "},"":{"ha":986,"x_min":-22,"x_max":995,"o":"m -19 -5 q -22 16 -22 -1 q -19 41 -22 33 q 33 49 1 41 q 75 71 65 57 q 113 132 97 98 q 149 218 129 166 q 453 998 357 753 q 464 1011 456 1003 q 480 1026 471 1019 q 499 1038 490 1034 q 513 1043 508 1043 q 518 1041 515 1043 q 522 1038 520 1039 l 844 198 q 883 94 882 95 q 915 64 890 77 q 960 46 939 51 q 989 41 981 41 q 995 18 995 34 q 993 -5 995 1 q 939 -2 973 -4 q 878 2 905 1 q 820 3 850 3 q 760 2 787 3 q 697 -1 732 1 q 637 -5 663 -3 q 632 18 631 1 q 639 41 633 35 q 687 47 656 41 q 727 61 718 53 q 733 83 733 68 q 706 181 733 104 q 653 324 680 258 l 626 390 q 616 397 621 397 q 461 398 596 398 q 291 393 362 398 q 288 392 290 393 q 284 390 286 391 l 283 389 q 212 197 239 272 q 191 85 191 132 q 201 66 191 75 q 225 53 211 58 q 255 46 239 49 q 283 42 272 43 q 299 41 294 41 q 303 20 302 37 q 302 -5 304 2 q 253 -1 279 -3 q 203 2 226 1 q 149 3 180 3 q 93 2 117 3 q 38 -1 68 1 q -19 -5 8 -3 m 294 1164 q 316 1219 294 1191 q 425 1276 363 1276 q 465 1271 445 1276 q 497 1259 486 1265 q 530 1241 509 1253 q 626 1204 596 1204 q 660 1209 644 1204 q 686 1223 675 1215 q 705 1240 697 1232 q 720 1255 713 1248 q 728 1263 726 1262 q 735 1258 733 1263 q 738 1248 738 1253 q 716 1193 738 1221 q 608 1135 668 1135 q 583 1137 595 1135 q 561 1141 570 1139 q 540 1149 552 1144 q 521 1159 528 1155 q 502 1169 515 1162 q 482 1180 489 1177 q 463 1190 475 1184 q 443 1199 451 1196 q 424 1204 434 1202 q 404 1206 414 1206 q 371 1201 387 1206 q 345 1187 355 1196 q 326 1171 334 1179 q 312 1155 318 1162 q 304 1147 306 1148 q 298 1150 300 1147 q 295 1157 296 1153 q 294 1164 294 1161 m 313 469 q 316 463 313 463 q 459 459 398 459 q 591 464 518 459 q 594 466 593 464 q 596 470 595 468 l 596 472 l 458 852 l 313 469 z "},"":{"ha":986,"x_min":-22,"x_max":995,"o":"m -19 -5 q -22 16 -22 -1 q -19 41 -22 33 q 33 49 1 41 q 75 71 65 57 q 113 132 97 98 q 149 218 129 166 q 453 998 357 753 q 464 1011 456 1003 q 480 1026 471 1019 q 499 1038 490 1034 q 513 1043 508 1043 q 518 1041 515 1043 q 522 1038 520 1039 l 844 198 q 883 94 882 95 q 915 64 890 77 q 960 46 939 51 q 989 41 981 41 q 995 18 995 34 q 993 -5 995 1 q 939 -2 973 -4 q 878 2 905 1 q 820 3 850 3 q 760 2 787 3 q 697 -1 732 1 q 637 -5 663 -3 q 632 18 631 1 q 639 41 633 35 q 687 47 656 41 q 727 61 718 53 q 733 83 733 68 q 706 181 733 104 q 653 324 680 258 l 626 390 q 616 397 621 397 q 461 398 596 398 q 291 393 362 398 q 288 392 290 393 q 284 390 286 391 l 283 389 q 212 197 239 272 q 191 85 191 132 q 201 66 191 75 q 225 53 211 58 q 255 46 239 49 q 283 42 272 43 q 299 41 294 41 q 303 20 302 37 q 302 -5 304 2 q 253 -1 279 -3 q 203 2 226 1 q 149 3 180 3 q 93 2 117 3 q 38 -1 68 1 q -19 -5 8 -3 m 314 1168 q 302 1180 314 1168 q 291 1224 291 1191 q 314 1280 291 1257 q 370 1303 336 1303 q 426 1280 403 1303 q 448 1224 448 1257 q 426 1168 448 1191 q 370 1145 403 1145 q 314 1168 336 1145 m 313 469 q 316 463 313 463 q 459 459 398 459 q 591 464 518 459 q 594 466 593 464 q 596 470 595 468 l 596 472 l 458 852 l 313 469 m 598 1168 q 587 1180 598 1168 q 576 1224 576 1191 q 598 1280 576 1257 q 654 1303 621 1303 q 710 1280 688 1303 q 733 1224 733 1257 q 710 1168 733 1191 q 654 1145 688 1145 q 598 1168 621 1145 z "},"":{"ha":986,"x_min":-22,"x_max":995,"o":"m -19 -5 q -22 16 -22 -1 q -19 41 -22 33 q 33 49 1 41 q 75 71 65 57 q 113 132 97 98 q 149 218 129 166 q 453 998 357 753 q 464 1011 456 1003 q 480 1026 471 1019 q 499 1038 490 1034 q 513 1043 508 1043 q 518 1041 515 1043 q 522 1038 520 1039 l 844 198 q 883 94 882 95 q 915 64 890 77 q 960 46 939 51 q 989 41 981 41 q 995 18 995 34 q 993 -5 995 1 q 939 -2 973 -4 q 878 2 905 1 q 820 3 850 3 q 760 2 787 3 q 697 -1 732 1 q 637 -5 663 -3 q 632 18 631 1 q 639 41 633 35 q 687 47 656 41 q 727 61 718 53 q 733 83 733 68 q 706 181 733 104 q 653 324 680 258 l 626 390 q 616 397 621 397 q 461 398 596 398 q 291 393 362 398 q 288 392 290 393 q 284 390 286 391 l 283 389 q 212 197 239 272 q 191 85 191 132 q 201 66 191 75 q 225 53 211 58 q 255 46 239 49 q 283 42 272 43 q 299 41 294 41 q 303 20 302 37 q 302 -5 304 2 q 253 -1 279 -3 q 203 2 226 1 q 149 3 180 3 q 93 2 117 3 q 38 -1 68 1 q -19 -5 8 -3 m 313 469 q 316 463 313 463 q 459 459 398 459 q 591 464 518 459 q 594 466 593 464 q 596 470 595 468 l 596 472 l 458 852 l 313 469 m 367 1183 q 408 1282 367 1241 q 507 1323 450 1323 q 604 1282 564 1323 q 644 1183 644 1241 q 603 1083 644 1125 q 507 1042 563 1042 q 408 1084 450 1042 q 367 1183 367 1126 m 418 1183 q 445 1121 418 1147 q 507 1095 471 1095 q 567 1121 542 1095 q 591 1183 591 1147 q 585 1217 591 1201 q 567 1245 578 1234 q 540 1263 555 1256 q 507 1270 524 1270 q 445 1244 471 1270 q 418 1183 418 1219 z "},"":{"ha":1411,"x_min":-26,"x_max":1366,"o":"m -22 -5 q -26 16 -26 -1 q -22 41 -26 33 q 22 51 -7 41 q 68 71 52 60 q 186 216 117 102 l 621 919 q 633 950 633 937 q 618 973 633 963 q 589 986 604 983 q 562 989 573 989 q 558 1015 557 998 q 562 1036 559 1032 q 744 1034 639 1034 q 988 1039 815 1034 q 1249 1044 1160 1044 q 1274 924 1256 999 q 1295 831 1291 849 q 1267 823 1287 823 q 1244 834 1246 823 q 1214 910 1232 880 q 1171 955 1196 940 q 1122 976 1147 970 q 1062 982 1097 982 l 926 982 q 902 981 916 982 q 868 979 888 981 q 834 974 848 977 q 818 964 820 970 q 810 852 810 939 l 810 559 q 878 549 810 549 l 962 549 q 1009 549 991 549 q 1045 552 1027 549 q 1072 556 1063 555 q 1092 565 1082 558 q 1105 577 1101 572 q 1115 595 1109 581 q 1123 618 1120 609 q 1131 649 1126 627 q 1135 663 1133 658 q 1158 673 1137 673 q 1185 665 1177 673 l 1185 368 q 1160 362 1179 362 q 1135 374 1139 362 q 1115 439 1123 418 q 1103 467 1107 461 q 1090 478 1099 473 q 924 491 1071 491 q 810 477 810 491 l 810 178 q 810 151 810 163 q 811 119 810 139 q 814 85 812 98 q 820 69 817 72 q 855 56 834 58 q 931 54 876 54 l 1007 54 q 1118 65 1063 54 q 1205 96 1173 77 q 1233 118 1220 104 q 1254 145 1245 132 q 1273 179 1263 158 q 1289 215 1283 200 q 1304 255 1295 229 q 1326 264 1307 264 q 1342 263 1334 264 q 1357 259 1351 262 q 1366 255 1363 257 q 1342 190 1358 235 q 1315 117 1325 144 q 1295 53 1305 89 q 1280 -6 1284 18 q 1027 -3 1200 -6 q 744 0 854 0 q 652 -1 697 0 q 584 -3 606 -2 l 562 -5 q 558 10 559 -1 q 559 31 557 22 q 562 41 560 41 q 621 53 581 41 q 665 77 661 64 q 677 212 677 119 l 677 401 q 536 404 620 404 q 503 404 518 404 q 472 403 488 404 q 446 401 457 402 q 414 399 435 401 q 376 397 393 397 q 373 395 374 397 q 370 393 371 394 l 368 392 q 254 203 302 280 q 191 82 191 105 q 200 63 191 71 q 222 51 210 55 q 251 44 235 47 q 276 41 267 42 q 291 41 285 41 q 295 20 294 37 q 294 -5 296 2 q 245 -1 271 -3 q 195 2 218 1 q 142 3 172 3 q 86 2 110 3 q 34 -1 62 1 q -22 -5 5 -3 m 418 472 q 420 466 417 466 q 545 464 461 464 q 677 467 616 464 l 677 890 l 418 472 z "},"":{"ha":1060,"x_min":77,"x_max":996,"o":"m 77 507 q 95 649 77 579 q 146 778 113 718 q 227 888 179 838 q 333 974 275 939 q 462 1029 391 1010 q 609 1049 533 1049 q 943 1017 789 1049 q 979 783 979 800 q 976 776 979 780 q 968 770 973 772 q 957 765 963 767 q 944 763 950 763 q 925 768 932 763 q 921 789 923 780 q 913 816 919 798 q 900 849 907 835 q 879 884 892 864 q 850 918 866 903 q 811 949 835 933 q 761 975 788 964 q 696 991 733 985 q 616 998 659 998 q 488 971 549 998 q 381 900 427 945 q 301 796 335 854 q 250 672 267 738 q 233 540 233 606 q 244 417 233 477 q 278 302 256 357 q 335 199 300 246 q 414 117 370 152 q 517 62 458 82 q 642 43 575 43 q 850 118 766 43 q 945 300 920 182 q 996 288 973 303 q 987 221 996 271 q 964 120 978 170 q 941 61 951 70 q 603 -9 815 -9 q 456 9 526 -9 q 328 62 385 28 q 223 144 271 96 q 144 249 176 192 q 95 372 112 306 q 77 507 77 437 m 483 -231 q 487 -219 483 -225 q 498 -210 492 -214 q 510 -206 505 -206 q 541 -218 519 -206 q 577 -230 562 -230 q 636 -212 614 -230 q 658 -168 658 -193 q 640 -122 658 -138 q 601 -105 622 -105 q 583 -107 591 -105 q 570 -111 574 -109 q 552 -118 566 -113 q 540 -109 549 -118 q 533 -94 531 -100 q 562 -51 538 -85 q 593 0 585 -16 l 633 0 l 598 -43 l 645 -43 q 704 -70 681 -43 q 727 -134 727 -96 q 677 -235 727 -197 q 552 -274 627 -274 q 517 -269 536 -274 q 490 -258 498 -264 q 488 -251 489 -255 q 486 -245 486 -248 q 484 -239 485 -243 q 483 -231 483 -235 z "},"":{"ha":923,"x_min":65,"x_max":880,"o":"m 71 -5 q 65 18 65 1 q 71 41 66 35 q 136 48 95 41 q 179 66 176 55 q 187 182 187 92 l 187 854 q 179 970 187 945 q 136 989 176 982 q 71 996 95 996 q 65 1019 66 1002 q 71 1042 65 1036 q 129 1039 87 1041 q 200 1035 172 1036 q 256 1034 229 1034 q 501 1039 328 1034 q 763 1044 674 1044 q 787 924 770 999 q 808 831 805 849 q 781 823 801 823 q 758 834 760 823 q 728 910 746 880 q 685 955 709 940 q 635 976 661 970 q 576 982 610 982 l 441 982 q 416 981 430 982 q 381 979 401 981 q 348 974 361 977 q 332 964 334 970 q 324 852 324 939 l 324 559 q 392 549 324 549 l 475 549 q 523 549 505 549 q 559 552 541 549 q 586 556 577 555 q 605 565 595 558 q 619 577 615 572 q 629 595 623 581 q 637 618 634 609 q 645 649 640 627 q 648 663 647 658 q 672 673 650 673 q 699 665 690 673 l 699 368 q 673 362 692 362 q 648 374 653 362 q 629 439 637 418 q 617 467 621 461 q 604 478 612 473 q 437 491 585 491 q 324 477 324 491 l 324 178 q 324 151 324 163 q 325 119 324 139 q 328 85 326 98 q 334 69 330 72 q 369 56 348 58 q 446 54 389 54 l 521 54 q 632 65 578 54 q 719 96 686 77 q 747 118 734 104 q 768 145 760 132 q 787 179 777 158 q 803 215 797 200 q 818 255 808 229 q 840 264 821 264 q 856 263 848 264 q 871 259 865 262 q 880 255 877 257 q 856 190 872 235 q 829 117 840 144 q 809 53 819 89 q 795 -6 798 18 q 541 -3 713 -6 q 258 0 368 0 q 160 -2 220 0 q 71 -5 100 -5 m 249 1308 q 252 1323 249 1316 q 261 1338 254 1331 q 284 1350 269 1345 q 321 1355 299 1355 q 349 1350 340 1355 q 464 1244 389 1320 q 540 1160 540 1168 q 537 1151 540 1156 q 530 1145 534 1145 q 475 1163 519 1145 q 379 1206 430 1181 q 289 1259 329 1230 q 249 1308 249 1289 z "},"":{"ha":923,"x_min":65,"x_max":880,"o":"m 71 -5 q 65 18 65 1 q 71 41 66 35 q 136 48 95 41 q 179 66 176 55 q 187 182 187 92 l 187 854 q 179 970 187 945 q 136 989 176 982 q 71 996 95 996 q 65 1019 66 1002 q 71 1042 65 1036 q 129 1039 87 1041 q 200 1035 172 1036 q 256 1034 229 1034 q 501 1039 328 1034 q 763 1044 674 1044 q 787 924 770 999 q 808 831 805 849 q 781 823 801 823 q 758 834 760 823 q 728 910 746 880 q 685 955 709 940 q 635 976 661 970 q 576 982 610 982 l 441 982 q 416 981 430 982 q 381 979 401 981 q 348 974 361 977 q 332 964 334 970 q 324 852 324 939 l 324 559 q 392 549 324 549 l 475 549 q 523 549 505 549 q 559 552 541 549 q 586 556 577 555 q 605 565 595 558 q 619 577 615 572 q 629 595 623 581 q 637 618 634 609 q 645 649 640 627 q 648 663 647 658 q 672 673 650 673 q 699 665 690 673 l 699 368 q 673 362 692 362 q 648 374 653 362 q 629 439 637 418 q 617 467 621 461 q 604 478 612 473 q 437 491 585 491 q 324 477 324 491 l 324 178 q 324 151 324 163 q 325 119 324 139 q 328 85 326 98 q 334 69 330 72 q 369 56 348 58 q 446 54 389 54 l 521 54 q 632 65 578 54 q 719 96 686 77 q 747 118 734 104 q 768 145 760 132 q 787 179 777 158 q 803 215 797 200 q 818 255 808 229 q 840 264 821 264 q 856 263 848 264 q 871 259 865 262 q 880 255 877 257 q 856 190 872 235 q 829 117 840 144 q 809 53 819 89 q 795 -6 798 18 q 541 -3 713 -6 q 258 0 368 0 q 160 -2 220 0 q 71 -5 100 -5 m 403 1160 q 478 1244 403 1168 q 593 1350 553 1320 q 621 1355 603 1355 q 678 1341 663 1355 q 694 1308 694 1326 q 654 1259 694 1289 q 563 1206 614 1230 q 468 1163 512 1181 q 412 1145 423 1145 q 406 1151 409 1145 q 403 1160 403 1156 z "},"":{"ha":923,"x_min":65,"x_max":880,"o":"m 71 -5 q 65 18 65 1 q 71 41 66 35 q 136 48 95 41 q 179 66 176 55 q 187 182 187 92 l 187 854 q 179 970 187 945 q 136 989 176 982 q 71 996 95 996 q 65 1019 66 1002 q 71 1042 65 1036 q 129 1039 87 1041 q 200 1035 172 1036 q 256 1034 229 1034 q 501 1039 328 1034 q 763 1044 674 1044 q 787 924 770 999 q 808 831 805 849 q 781 823 801 823 q 758 834 760 823 q 728 910 746 880 q 685 955 709 940 q 635 976 661 970 q 576 982 610 982 l 441 982 q 416 981 430 982 q 381 979 401 981 q 348 974 361 977 q 332 964 334 970 q 324 852 324 939 l 324 559 q 392 549 324 549 l 475 549 q 523 549 505 549 q 559 552 541 549 q 586 556 577 555 q 605 565 595 558 q 619 577 615 572 q 629 595 623 581 q 637 618 634 609 q 645 649 640 627 q 648 663 647 658 q 672 673 650 673 q 699 665 690 673 l 699 368 q 673 362 692 362 q 648 374 653 362 q 629 439 637 418 q 617 467 621 461 q 604 478 612 473 q 437 491 585 491 q 324 477 324 491 l 324 178 q 324 151 324 163 q 325 119 324 139 q 328 85 326 98 q 334 69 330 72 q 369 56 348 58 q 446 54 389 54 l 521 54 q 632 65 578 54 q 719 96 686 77 q 747 118 734 104 q 768 145 760 132 q 787 179 777 158 q 803 215 797 200 q 818 255 808 229 q 840 264 821 264 q 856 263 848 264 q 871 259 865 262 q 880 255 877 257 q 856 190 872 235 q 829 117 840 144 q 809 53 819 89 q 795 -6 798 18 q 541 -3 713 -6 q 258 0 368 0 q 160 -2 220 0 q 71 -5 100 -5 m 297 1171 q 352 1227 323 1197 q 407 1282 382 1257 q 459 1339 431 1308 q 478 1352 472 1352 q 497 1339 485 1352 q 577 1256 529 1305 q 658 1171 625 1206 q 653 1153 658 1162 q 642 1144 648 1144 l 478 1244 l 315 1144 q 302 1153 308 1144 q 297 1171 297 1162 z "},"":{"ha":923,"x_min":65,"x_max":880,"o":"m 71 -5 q 65 18 65 1 q 71 41 66 35 q 136 48 95 41 q 179 66 176 55 q 187 182 187 92 l 187 854 q 179 970 187 945 q 136 989 176 982 q 71 996 95 996 q 65 1019 66 1002 q 71 1042 65 1036 q 129 1039 87 1041 q 200 1035 172 1036 q 256 1034 229 1034 q 501 1039 328 1034 q 763 1044 674 1044 q 787 924 770 999 q 808 831 805 849 q 781 823 801 823 q 758 834 760 823 q 728 910 746 880 q 685 955 709 940 q 635 976 661 970 q 576 982 610 982 l 441 982 q 416 981 430 982 q 381 979 401 981 q 348 974 361 977 q 332 964 334 970 q 324 852 324 939 l 324 559 q 392 549 324 549 l 475 549 q 523 549 505 549 q 559 552 541 549 q 586 556 577 555 q 605 565 595 558 q 619 577 615 572 q 629 595 623 581 q 637 618 634 609 q 645 649 640 627 q 648 663 647 658 q 672 673 650 673 q 699 665 690 673 l 699 368 q 673 362 692 362 q 648 374 653 362 q 629 439 637 418 q 617 467 621 461 q 604 478 612 473 q 437 491 585 491 q 324 477 324 491 l 324 178 q 324 151 324 163 q 325 119 324 139 q 328 85 326 98 q 334 69 330 72 q 369 56 348 58 q 446 54 389 54 l 521 54 q 632 65 578 54 q 719 96 686 77 q 747 118 734 104 q 768 145 760 132 q 787 179 777 158 q 803 215 797 200 q 818 255 808 229 q 840 264 821 264 q 856 263 848 264 q 871 259 865 262 q 880 255 877 257 q 856 190 872 235 q 829 117 840 144 q 809 53 819 89 q 795 -6 798 18 q 541 -3 713 -6 q 258 0 368 0 q 160 -2 220 0 q 71 -5 100 -5 m 268 1168 q 257 1180 268 1168 q 245 1224 245 1191 q 268 1280 245 1257 q 324 1303 291 1303 q 380 1280 357 1303 q 403 1224 403 1257 q 380 1168 403 1191 q 324 1145 357 1145 q 268 1168 291 1145 m 553 1168 q 542 1180 553 1168 q 530 1224 530 1191 q 553 1280 530 1257 q 609 1303 576 1303 q 665 1280 642 1303 q 688 1224 688 1257 q 665 1168 688 1191 q 609 1145 642 1145 q 553 1168 576 1145 z "},"":{"ha":509,"x_min":58,"x_max":446,"o":"m 58 1308 q 74 1341 58 1326 q 131 1355 90 1355 q 159 1350 149 1355 q 274 1244 199 1320 q 349 1160 349 1168 q 348 1154 349 1157 q 344 1148 347 1151 q 340 1145 342 1145 q 284 1163 329 1145 q 189 1206 239 1181 q 98 1259 138 1230 q 58 1308 58 1289 m 71 -5 q 65 18 65 1 q 71 41 66 35 q 136 48 95 41 q 179 66 176 55 q 187 182 187 92 l 187 854 q 179 970 187 945 q 136 989 176 982 q 71 996 95 996 q 65 1019 66 1002 q 71 1042 65 1036 q 129 1039 87 1041 q 200 1035 172 1036 q 256 1034 229 1034 q 303 1035 278 1034 q 347 1037 328 1036 q 394 1039 366 1038 q 441 1042 422 1041 q 446 1019 446 1036 q 441 996 446 1002 q 376 989 416 996 q 332 970 335 982 q 324 854 324 945 l 324 182 q 332 66 324 92 q 376 48 335 55 q 441 41 416 41 q 446 18 446 35 q 441 -5 446 1 q 382 -2 424 -4 q 313 2 341 1 q 256 3 284 3 q 200 2 229 3 q 129 -2 172 1 q 71 -5 87 -4 z "},"":{"ha":509,"x_min":65,"x_max":472,"o":"m 71 -5 q 65 18 65 1 q 71 41 66 35 q 136 48 95 41 q 179 66 176 55 q 187 182 187 92 l 187 854 q 179 970 187 945 q 136 989 176 982 q 71 996 95 996 q 65 1019 66 1002 q 71 1042 65 1036 q 129 1039 87 1041 q 200 1035 172 1036 q 256 1034 229 1034 q 303 1035 278 1034 q 347 1037 328 1036 q 394 1039 366 1038 q 441 1042 422 1041 q 446 1019 446 1036 q 441 996 446 1002 q 376 989 416 996 q 332 970 335 982 q 324 854 324 945 l 324 182 q 332 66 324 92 q 376 48 335 55 q 441 41 416 41 q 446 18 446 35 q 441 -5 446 1 q 382 -2 424 -4 q 313 2 341 1 q 256 3 284 3 q 200 2 229 3 q 129 -2 172 1 q 71 -5 87 -4 m 181 1160 q 256 1244 181 1168 q 372 1350 332 1320 q 399 1355 380 1355 q 456 1341 441 1355 q 472 1308 472 1326 q 432 1259 472 1289 q 341 1206 392 1230 q 245 1163 290 1181 q 191 1145 201 1145 q 184 1151 187 1145 q 181 1160 181 1156 z "},"":{"ha":509,"x_min":65,"x_max":448,"o":"m 71 -5 q 65 18 65 1 q 71 41 66 35 q 136 48 95 41 q 179 66 176 55 q 187 182 187 92 l 187 854 q 179 970 187 945 q 136 989 176 982 q 71 996 95 996 q 65 1019 66 1002 q 71 1042 65 1036 q 129 1039 87 1041 q 200 1035 172 1036 q 256 1034 229 1034 q 303 1035 278 1034 q 347 1037 328 1036 q 394 1039 366 1038 q 441 1042 422 1041 q 446 1019 446 1036 q 441 996 446 1002 q 376 989 416 996 q 332 970 335 982 q 324 854 324 945 l 324 182 q 332 66 324 92 q 376 48 335 55 q 441 41 416 41 q 446 18 446 35 q 441 -5 446 1 q 382 -2 424 -4 q 313 2 341 1 q 256 3 284 3 q 200 2 229 3 q 129 -2 172 1 q 71 -5 87 -4 m 88 1135 q 161 1209 109 1156 q 250 1303 213 1262 q 269 1316 262 1316 q 288 1303 275 1316 q 368 1219 320 1268 q 448 1135 415 1170 q 444 1117 448 1126 q 433 1107 439 1107 l 269 1208 l 105 1107 q 94 1117 99 1107 q 88 1135 88 1126 z "},"":{"ha":509,"x_min":44,"x_max":486,"o":"m 67 1168 q 55 1180 67 1168 q 44 1224 44 1191 q 67 1280 44 1257 q 123 1303 90 1303 q 179 1280 156 1303 q 201 1224 201 1257 q 179 1168 201 1191 q 123 1145 156 1145 q 67 1168 90 1145 m 73 -5 q 67 18 66 1 q 73 41 67 35 q 137 48 96 41 q 181 66 178 55 q 189 182 189 92 l 189 854 q 181 970 189 945 q 137 989 178 982 q 73 996 96 996 q 67 1019 67 1002 q 73 1042 66 1036 q 131 1039 88 1041 q 202 1035 173 1036 q 258 1034 231 1034 q 304 1035 279 1034 q 348 1037 330 1036 q 396 1039 367 1038 q 442 1042 425 1041 q 447 1019 448 1036 q 442 996 447 1002 q 377 989 418 996 q 334 970 336 982 q 326 854 326 945 l 326 182 q 334 66 326 92 q 377 48 336 55 q 442 41 418 41 q 447 18 447 35 q 442 -5 448 1 q 384 -2 425 -4 q 314 2 342 1 q 258 3 286 3 q 202 2 231 3 q 131 -2 173 1 q 73 -5 88 -4 m 352 1168 q 340 1180 352 1168 q 329 1224 329 1191 q 352 1280 329 1257 q 408 1303 374 1303 q 464 1280 441 1303 q 486 1224 486 1257 q 464 1168 486 1191 q 408 1145 441 1145 q 352 1168 374 1145 z "},"":{"ha":1117,"x_min":65,"x_max":1037,"o":"m 71 -5 q 65 18 65 1 q 71 41 66 35 q 136 48 95 41 q 179 66 176 55 q 187 182 187 92 l 187 854 q 179 970 187 945 q 136 989 176 982 q 71 996 95 996 q 65 1019 66 1002 q 71 1042 65 1036 q 129 1039 87 1041 q 200 1035 172 1036 q 256 1034 229 1034 q 368 1035 286 1034 q 485 1036 449 1036 q 716 997 611 1036 q 890 889 821 958 q 999 728 960 821 q 1037 526 1037 634 q 1028 412 1037 466 q 1001 303 1020 357 q 951 204 981 250 q 876 120 922 159 q 772 54 830 81 q 635 11 714 26 q 464 -5 557 -5 l 71 -5 m 77 490 q 73 501 74 490 q 73 527 71 512 q 79 547 75 541 l 574 547 q 578 536 577 547 q 578 510 580 524 q 574 490 577 496 l 77 490 m 326 181 q 328 113 326 151 q 335 68 330 74 q 464 45 351 45 q 593 62 532 45 q 707 115 654 79 q 799 202 760 151 q 859 329 837 254 q 881 492 881 403 q 857 680 881 596 q 792 820 833 764 q 694 913 751 876 q 575 968 637 951 q 442 985 512 985 q 417 984 431 985 q 383 982 403 984 q 349 977 363 981 q 334 968 335 973 q 326 851 326 943 l 326 181 z "},"":{"ha":1221,"x_min":59,"x_max":1177,"o":"m 64 -5 q 60 15 60 2 q 64 41 59 27 q 133 51 87 41 q 187 73 180 60 q 200 111 197 90 q 203 179 203 132 l 203 862 q 202 912 203 895 q 197 943 201 929 q 187 969 194 958 q 155 986 182 978 q 102 997 128 994 q 64 1001 76 1001 q 60 1027 59 1015 q 64 1046 60 1040 q 142 1042 90 1045 q 225 1038 195 1038 q 345 1042 300 1038 q 494 847 378 989 q 749 534 610 705 q 962 261 888 363 l 962 353 l 962 857 q 961 907 962 892 q 957 938 960 922 q 945 966 954 954 q 894 987 939 977 q 826 998 849 998 q 820 1021 821 1005 q 823 1043 820 1037 q 878 1040 840 1042 q 944 1037 916 1038 q 1004 1036 972 1036 q 1060 1037 1036 1036 q 1115 1040 1085 1038 q 1172 1043 1145 1042 q 1177 1024 1176 1036 q 1172 998 1177 1011 q 1103 988 1150 998 q 1049 966 1057 979 q 1037 928 1040 949 q 1034 859 1034 907 l 1034 218 q 1037 1 1034 83 q 1017 -8 1035 -8 q 992 1 1008 -8 q 962 28 976 9 l 275 895 l 275 181 q 276 132 275 146 q 280 101 277 117 q 291 73 283 85 q 320 57 296 65 q 370 45 344 50 q 409 41 395 41 q 415 17 414 33 q 412 -5 415 1 q 357 -2 395 -4 q 292 2 320 1 q 233 3 264 3 q 176 2 201 3 q 121 -1 151 1 q 64 -5 92 -3 m 362 1164 q 384 1219 362 1191 q 492 1276 431 1276 q 533 1271 512 1276 q 565 1259 553 1265 q 598 1241 577 1253 q 694 1204 664 1204 q 727 1209 711 1204 q 754 1223 743 1215 q 773 1240 765 1232 q 787 1255 781 1248 q 796 1263 793 1262 q 803 1258 800 1263 q 806 1248 806 1253 q 783 1193 806 1221 q 675 1135 735 1135 q 635 1140 655 1135 q 603 1152 614 1146 q 570 1169 591 1158 q 544 1183 553 1179 q 521 1195 535 1188 q 495 1204 507 1201 q 472 1206 484 1206 q 439 1201 454 1206 q 412 1187 423 1196 q 394 1171 401 1179 q 380 1155 386 1162 q 372 1147 374 1148 q 367 1149 369 1147 q 364 1154 366 1151 q 362 1159 363 1156 q 362 1164 362 1162 z "},"":{"ha":1177,"x_min":77,"x_max":1100,"o":"m 77 516 q 118 723 77 624 q 228 893 159 822 q 391 1007 296 965 q 587 1049 485 1049 q 702 1036 646 1049 q 810 998 759 1023 q 905 938 861 973 q 985 858 949 903 q 1046 759 1021 812 q 1086 644 1072 706 q 1100 516 1100 582 q 1058 309 1100 408 q 947 139 1017 210 q 784 26 878 68 q 587 -16 689 -16 q 391 24 484 -16 q 228 133 297 64 q 118 302 159 202 q 77 516 77 402 m 233 551 q 249 404 233 477 q 296 265 264 331 q 373 148 328 199 q 479 68 417 98 q 612 38 541 38 q 737 64 680 38 q 831 134 793 90 q 895 237 869 178 q 932 358 921 295 q 944 486 944 420 q 928 633 944 560 q 880 771 912 705 q 803 886 848 836 q 696 966 758 937 q 564 996 634 996 q 439 970 495 996 q 345 900 382 943 q 281 798 307 857 q 244 678 256 740 q 233 551 233 616 m 367 1308 q 370 1323 367 1316 q 379 1338 372 1331 q 402 1350 387 1345 q 439 1355 417 1355 q 467 1350 458 1355 q 582 1244 507 1320 q 658 1160 658 1168 q 655 1151 658 1156 q 648 1145 652 1145 q 593 1163 637 1145 q 497 1206 548 1181 q 407 1259 447 1230 q 367 1308 367 1289 z "},"":{"ha":1177,"x_min":77,"x_max":1100,"o":"m 77 516 q 118 723 77 624 q 228 893 159 822 q 391 1007 296 965 q 587 1049 485 1049 q 702 1036 646 1049 q 810 998 759 1023 q 905 938 861 973 q 985 858 949 903 q 1046 759 1021 812 q 1086 644 1072 706 q 1100 516 1100 582 q 1058 309 1100 408 q 947 139 1017 210 q 784 26 878 68 q 587 -16 689 -16 q 391 24 484 -16 q 228 133 297 64 q 118 302 159 202 q 77 516 77 402 m 233 551 q 249 404 233 477 q 296 265 264 331 q 373 148 328 199 q 479 68 417 98 q 612 38 541 38 q 737 64 680 38 q 831 134 793 90 q 895 237 869 178 q 932 358 921 295 q 944 486 944 420 q 928 633 944 560 q 880 771 912 705 q 803 886 848 836 q 696 966 758 937 q 564 996 634 996 q 439 970 495 996 q 345 900 382 943 q 281 798 307 857 q 244 678 256 740 q 233 551 233 616 m 491 1160 q 566 1244 491 1168 q 682 1350 642 1320 q 709 1355 690 1355 q 766 1341 751 1355 q 782 1308 782 1326 q 742 1259 782 1289 q 651 1206 702 1230 q 555 1163 600 1181 q 500 1145 511 1145 q 494 1151 497 1145 q 491 1160 491 1156 z "},"":{"ha":1177,"x_min":77,"x_max":1100,"o":"m 77 516 q 118 723 77 624 q 228 893 159 822 q 391 1007 296 965 q 587 1049 485 1049 q 702 1036 646 1049 q 810 998 759 1023 q 905 938 861 973 q 985 858 949 903 q 1046 759 1021 812 q 1086 644 1072 706 q 1100 516 1100 582 q 1058 309 1100 408 q 947 139 1017 210 q 784 26 878 68 q 587 -16 689 -16 q 391 24 484 -16 q 228 133 297 64 q 118 302 159 202 q 77 516 77 402 m 233 551 q 249 404 233 477 q 296 265 264 331 q 373 148 328 199 q 479 68 417 98 q 612 38 541 38 q 737 64 680 38 q 831 134 793 90 q 895 237 869 178 q 932 358 921 295 q 944 486 944 420 q 928 633 944 560 q 880 771 912 705 q 803 886 848 836 q 696 966 758 937 q 564 996 634 996 q 439 970 495 996 q 345 900 382 943 q 281 798 307 857 q 244 678 256 740 q 233 551 233 616 m 411 1171 q 466 1227 436 1197 q 520 1282 495 1257 q 572 1339 545 1308 q 592 1352 585 1352 q 610 1339 598 1352 q 663 1284 637 1311 q 715 1229 688 1257 q 771 1171 743 1200 q 766 1153 771 1162 q 755 1144 762 1144 l 591 1244 l 428 1144 q 416 1153 421 1144 q 411 1171 411 1162 z "},"":{"ha":1177,"x_min":77,"x_max":1100,"o":"m 77 516 q 118 723 77 624 q 228 893 159 822 q 391 1007 296 965 q 587 1049 485 1049 q 702 1036 646 1049 q 810 998 759 1023 q 905 938 861 973 q 985 858 949 903 q 1046 759 1021 812 q 1086 644 1072 706 q 1100 516 1100 582 q 1058 309 1100 408 q 947 139 1017 210 q 784 26 878 68 q 587 -16 689 -16 q 391 24 484 -16 q 228 133 297 64 q 118 302 159 202 q 77 516 77 402 m 233 551 q 249 404 233 477 q 296 265 264 331 q 373 148 328 199 q 479 68 417 98 q 612 38 541 38 q 737 64 680 38 q 831 134 793 90 q 895 237 869 178 q 932 358 921 295 q 944 486 944 420 q 928 633 944 560 q 880 771 912 705 q 803 886 848 836 q 696 966 758 937 q 564 996 634 996 q 439 970 495 996 q 345 900 382 943 q 281 798 307 857 q 244 678 256 740 q 233 551 233 616 m 379 1162 q 401 1218 379 1190 q 510 1274 448 1274 q 550 1269 530 1274 q 582 1257 570 1263 q 615 1240 594 1251 q 711 1202 682 1202 q 745 1207 729 1202 q 771 1221 760 1213 q 791 1238 783 1230 q 805 1254 799 1246 q 813 1262 811 1261 q 820 1257 818 1262 q 823 1246 823 1252 q 801 1191 823 1219 q 692 1133 753 1133 q 652 1138 673 1133 q 620 1150 631 1144 q 587 1167 608 1156 q 553 1186 565 1180 q 522 1199 541 1193 q 490 1205 504 1205 q 461 1201 475 1205 q 437 1191 447 1197 q 419 1177 428 1185 q 406 1163 411 1170 q 395 1152 400 1157 q 389 1145 391 1147 q 382 1151 385 1145 q 379 1162 379 1157 z "},"":{"ha":1177,"x_min":77,"x_max":1100,"o":"m 77 516 q 118 723 77 624 q 228 893 159 822 q 391 1007 296 965 q 587 1049 485 1049 q 702 1036 646 1049 q 810 998 759 1023 q 905 938 861 973 q 985 858 949 903 q 1046 759 1021 812 q 1086 644 1072 706 q 1100 516 1100 582 q 1058 309 1100 408 q 947 139 1017 210 q 784 26 878 68 q 587 -16 689 -16 q 391 24 484 -16 q 228 133 297 64 q 118 302 159 202 q 77 516 77 402 m 233 551 q 249 404 233 477 q 296 265 264 331 q 373 148 328 199 q 479 68 417 98 q 612 38 541 38 q 737 64 680 38 q 831 134 793 90 q 895 237 869 178 q 932 358 921 295 q 944 486 944 420 q 928 633 944 560 q 880 771 912 705 q 803 886 848 836 q 696 966 758 937 q 564 996 634 996 q 439 970 495 996 q 345 900 382 943 q 281 798 307 857 q 244 678 256 740 q 233 551 233 616 m 391 1168 q 380 1180 391 1168 q 368 1224 368 1191 q 391 1280 368 1257 q 447 1303 414 1303 q 503 1280 480 1303 q 526 1224 526 1257 q 503 1168 526 1191 q 447 1145 480 1145 q 391 1168 414 1145 m 676 1168 q 664 1180 676 1168 q 653 1224 653 1191 q 676 1280 653 1257 q 732 1303 699 1303 q 788 1280 765 1303 q 810 1224 810 1257 q 788 1168 810 1191 q 732 1145 765 1145 q 676 1168 699 1145 z "},"":{"ha":730,"x_min":87,"x_max":642,"o":"m 87 165 q 313 389 307 382 l 87 615 q 100 653 87 632 q 124 675 114 675 q 136 672 132 675 q 370 446 367 448 l 598 672 q 608 675 601 675 q 619 667 612 675 q 630 649 625 660 q 638 628 635 639 q 642 612 642 618 q 422 393 427 398 l 642 165 q 631 124 642 146 q 608 102 620 102 q 596 105 600 102 l 365 336 l 131 104 q 121 100 124 100 q 99 126 111 100 q 87 165 87 152 z "},"":{"ha":1177,"x_min":77,"x_max":1100,"o":"m 77 516 q 118 723 77 624 q 228 893 159 822 q 391 1007 296 965 q 587 1049 485 1049 q 702 1036 646 1049 q 810 998 759 1023 q 905 938 861 973 q 985 858 949 903 q 1046 759 1021 812 q 1086 644 1072 706 q 1100 516 1100 582 q 1058 309 1100 408 q 947 139 1017 210 q 784 26 878 68 q 587 -16 689 -16 q 391 24 484 -16 q 228 133 297 64 q 118 302 159 202 q 77 516 77 402 m 231 16 l 889 1049 q 920 1034 901 1046 q 935 1015 939 1021 l 277 -20 q 245 -3 263 -16 q 231 16 227 9 m 233 551 q 249 404 233 477 q 296 265 264 331 q 373 148 328 199 q 479 68 417 98 q 612 38 541 38 q 737 64 680 38 q 831 134 793 90 q 895 237 869 178 q 932 358 921 295 q 944 486 944 420 q 928 633 944 560 q 880 771 912 705 q 803 886 848 836 q 696 966 758 937 q 564 996 634 996 q 439 970 495 996 q 345 900 382 943 q 281 798 307 857 q 244 678 256 740 q 233 551 233 616 z "},"":{"ha":1137,"x_min":40,"x_max":1113,"o":"m 45 996 q 40 1019 41 1002 q 45 1042 40 1036 q 104 1039 62 1041 q 175 1035 146 1036 q 231 1034 203 1034 q 288 1035 259 1034 q 357 1039 316 1036 q 415 1042 399 1041 q 421 1019 421 1036 q 415 996 420 1002 q 351 989 391 996 q 307 970 310 982 q 299 854 299 945 l 299 466 q 376 176 299 273 q 591 85 448 85 q 897 431 890 85 l 897 857 q 894 928 897 907 q 881 966 892 949 q 832 987 875 977 q 768 998 790 998 q 762 1021 762 1005 q 765 1043 762 1037 q 808 1041 783 1042 q 850 1038 833 1039 q 891 1036 867 1037 q 939 1036 915 1036 q 996 1037 971 1036 q 1051 1040 1021 1038 q 1107 1043 1081 1042 q 1112 1024 1112 1036 q 1107 998 1113 1011 q 1039 988 1086 998 q 985 966 992 979 q 972 928 975 949 q 969 859 969 907 l 969 434 q 940 233 969 319 q 856 95 911 147 q 726 19 800 43 q 559 -6 652 -6 q 402 21 474 -6 q 279 98 331 47 q 193 227 223 151 q 162 395 162 302 l 162 854 q 154 970 162 945 q 110 989 151 982 q 45 996 69 996 m 370 1308 q 386 1341 370 1326 q 442 1355 401 1355 q 471 1350 461 1355 q 524 1304 490 1335 q 587 1243 557 1274 q 638 1188 616 1213 q 661 1160 661 1164 q 657 1151 661 1156 q 651 1145 654 1145 q 596 1163 641 1145 q 501 1206 551 1181 q 410 1259 450 1230 q 370 1308 370 1289 z "},"":{"ha":1137,"x_min":40,"x_max":1113,"o":"m 45 996 q 40 1019 41 1002 q 45 1042 40 1036 q 104 1039 62 1041 q 175 1035 146 1036 q 231 1034 203 1034 q 288 1035 259 1034 q 357 1039 316 1036 q 415 1042 399 1041 q 421 1019 421 1036 q 415 996 420 1002 q 351 989 391 996 q 307 970 310 982 q 299 854 299 945 l 299 466 q 376 176 299 273 q 591 85 448 85 q 897 431 890 85 l 897 857 q 894 928 897 907 q 881 966 892 949 q 832 987 875 977 q 768 998 790 998 q 762 1021 762 1005 q 765 1043 762 1037 q 808 1041 783 1042 q 850 1038 833 1039 q 891 1036 867 1037 q 939 1036 915 1036 q 996 1037 971 1036 q 1051 1040 1021 1038 q 1107 1043 1081 1042 q 1112 1024 1112 1036 q 1107 998 1113 1011 q 1039 988 1086 998 q 985 966 992 979 q 972 928 975 949 q 969 859 969 907 l 969 434 q 940 233 969 319 q 856 95 911 147 q 726 19 800 43 q 559 -6 652 -6 q 402 21 474 -6 q 279 98 331 47 q 193 227 223 151 q 162 395 162 302 l 162 854 q 154 970 162 945 q 110 989 151 982 q 45 996 69 996 m 526 1160 q 601 1244 526 1168 q 716 1350 676 1320 q 744 1355 726 1355 q 801 1341 785 1355 q 817 1308 817 1326 q 777 1259 817 1289 q 686 1206 736 1230 q 590 1163 635 1181 q 535 1145 546 1145 q 529 1151 532 1145 q 526 1160 526 1156 z "},"":{"ha":1137,"x_min":40,"x_max":1113,"o":"m 45 996 q 40 1019 41 1002 q 45 1042 40 1036 q 104 1039 62 1041 q 175 1035 146 1036 q 231 1034 203 1034 q 288 1035 259 1034 q 357 1039 316 1036 q 415 1042 399 1041 q 421 1019 421 1036 q 415 996 420 1002 q 351 989 391 996 q 307 970 310 982 q 299 854 299 945 l 299 466 q 376 176 299 273 q 591 85 448 85 q 897 431 890 85 l 897 857 q 894 928 897 907 q 881 966 892 949 q 832 987 875 977 q 768 998 790 998 q 762 1021 762 1005 q 765 1043 762 1037 q 808 1041 783 1042 q 850 1038 833 1039 q 891 1036 867 1037 q 939 1036 915 1036 q 996 1037 971 1036 q 1051 1040 1021 1038 q 1107 1043 1081 1042 q 1112 1024 1112 1036 q 1107 998 1113 1011 q 1039 988 1086 998 q 985 966 992 979 q 972 928 975 949 q 969 859 969 907 l 969 434 q 940 233 969 319 q 856 95 911 147 q 726 19 800 43 q 559 -6 652 -6 q 402 21 474 -6 q 279 98 331 47 q 193 227 223 151 q 162 395 162 302 l 162 854 q 154 970 162 945 q 110 989 151 982 q 45 996 69 996 m 395 1171 q 468 1245 416 1192 q 557 1339 519 1298 q 576 1352 570 1352 q 595 1339 582 1352 q 647 1284 621 1311 q 700 1229 673 1257 q 755 1171 727 1200 q 751 1153 755 1162 q 739 1144 746 1144 l 576 1244 l 412 1144 q 400 1153 406 1144 q 395 1171 395 1162 z "},"":{"ha":1137,"x_min":40,"x_max":1113,"o":"m 45 996 q 40 1019 41 1002 q 45 1042 40 1036 q 104 1039 62 1041 q 175 1035 146 1036 q 231 1034 203 1034 q 288 1035 259 1034 q 357 1039 316 1036 q 415 1042 399 1041 q 421 1019 421 1036 q 415 996 420 1002 q 351 989 391 996 q 307 970 310 982 q 299 854 299 945 l 299 466 q 376 176 299 273 q 591 85 448 85 q 897 431 890 85 l 897 857 q 894 928 897 907 q 881 966 892 949 q 832 987 875 977 q 768 998 790 998 q 762 1021 762 1005 q 765 1043 762 1037 q 808 1041 783 1042 q 850 1038 833 1039 q 891 1036 867 1037 q 939 1036 915 1036 q 996 1037 971 1036 q 1051 1040 1021 1038 q 1107 1043 1081 1042 q 1112 1024 1112 1036 q 1107 998 1113 1011 q 1039 988 1086 998 q 985 966 992 979 q 972 928 975 949 q 969 859 969 907 l 969 434 q 940 233 969 319 q 856 95 911 147 q 726 19 800 43 q 559 -6 652 -6 q 402 21 474 -6 q 279 98 331 47 q 193 227 223 151 q 162 395 162 302 l 162 854 q 154 970 162 945 q 110 989 151 982 q 45 996 69 996 m 375 1168 q 364 1180 375 1168 q 353 1224 353 1191 q 375 1280 353 1257 q 431 1303 398 1303 q 487 1280 464 1303 q 510 1224 510 1257 q 487 1168 510 1191 q 431 1145 464 1145 q 375 1168 398 1145 m 660 1168 q 649 1180 660 1168 q 637 1224 637 1191 q 660 1280 637 1257 q 716 1303 683 1303 q 772 1280 749 1303 q 795 1224 795 1257 q 772 1168 795 1191 q 716 1145 749 1145 q 660 1168 683 1145 z "},"":{"ha":941,"x_min":-22,"x_max":951,"o":"m -16 996 q -22 1016 -22 996 q -16 1042 -22 1036 q 48 1038 11 1040 q 116 1035 86 1036 q 181 1034 146 1034 q 382 1042 225 1034 q 385 1015 385 1034 q 379 996 385 996 q 355 994 369 996 q 324 986 340 991 q 296 970 307 981 q 285 945 285 960 q 304 899 285 929 l 522 521 q 571 611 545 561 q 621 708 597 661 q 667 800 645 755 q 704 878 688 844 q 727 928 720 911 q 732 952 732 943 q 727 965 732 958 q 710 979 722 972 q 675 990 699 986 q 621 994 652 994 q 617 1015 618 994 q 618 1040 616 1036 q 669 1037 637 1039 q 725 1033 701 1034 q 776 1032 749 1032 q 840 1033 812 1032 q 898 1037 867 1034 q 949 1040 928 1039 q 950 1014 951 1033 q 945 994 949 994 q 933 994 939 994 q 912 992 927 994 q 884 986 897 991 q 856 976 871 982 q 827 958 840 969 q 806 931 814 946 q 557 473 758 847 q 553 465 555 469 q 551 456 551 460 q 550 448 550 453 q 549 440 549 442 q 549 432 549 438 q 549 425 549 426 l 547 182 q 555 66 547 92 q 599 48 558 55 q 664 41 640 41 q 669 18 669 35 q 664 -5 669 1 q 606 -2 647 -4 q 536 2 564 1 q 480 3 507 3 q 424 2 452 3 q 352 -2 395 1 q 294 -5 310 -4 q 289 18 288 1 q 294 41 290 35 q 359 48 318 41 q 403 66 399 55 q 411 182 411 92 l 411 420 q 399 464 411 442 q 284 670 351 553 q 176 862 218 788 q 129 928 152 905 q 73 970 106 951 q 27 989 54 982 q -16 996 0 996 m 456 1160 q 532 1244 456 1168 q 647 1350 607 1320 q 675 1355 656 1355 q 732 1341 716 1355 q 747 1308 747 1326 q 707 1259 747 1289 q 616 1206 667 1230 q 521 1163 566 1181 q 466 1145 476 1145 q 459 1151 463 1145 q 456 1160 456 1156 z "},"":{"ha":862,"x_min":65,"x_max":815,"o":"m 71 -5 q 65 18 65 1 q 71 41 66 35 q 136 48 95 41 q 179 66 176 55 q 187 182 187 92 l 187 854 q 179 970 187 945 q 136 989 176 982 q 71 996 95 996 q 65 1019 66 1002 q 71 1042 65 1036 q 129 1039 87 1041 q 200 1035 172 1036 q 256 1034 229 1034 q 303 1035 278 1034 q 347 1037 328 1036 q 394 1039 366 1038 q 441 1042 422 1041 q 446 1019 446 1036 q 441 996 446 1002 q 376 989 416 996 q 332 970 335 982 q 324 854 324 945 l 324 755 q 393 785 351 774 q 463 799 436 796 q 511 801 490 801 q 578 792 543 801 q 647 768 612 784 q 711 727 681 752 q 765 672 741 703 q 802 602 788 642 q 815 517 815 562 q 772 351 815 423 q 650 240 728 279 q 469 201 571 201 q 433 205 454 201 q 401 214 412 208 q 379 249 379 229 q 381 255 379 252 q 387 256 383 258 q 447 245 427 245 q 535 262 494 245 q 606 309 576 278 q 653 387 636 340 q 670 491 670 433 q 611 673 670 606 q 453 739 551 739 q 430 737 444 739 q 397 730 416 735 q 362 715 378 726 q 336 692 345 705 q 324 566 324 673 l 324 182 q 332 66 324 92 q 376 48 335 55 q 441 41 416 41 q 446 18 446 35 q 441 -5 446 1 q 382 -2 424 -4 q 313 2 341 1 q 256 3 284 3 q 200 2 229 3 q 129 -2 172 1 q 71 -5 87 -4 z "},"":{"ha":844,"x_min":39,"x_max":804,"o":"m 44 -5 q 39 18 39 1 q 44 41 39 35 q 103 48 66 41 q 143 66 140 55 q 151 182 151 92 l 151 615 l 60 615 q 56 618 58 615 q 53 624 54 621 q 52 629 52 627 q 62 645 52 632 q 82 667 73 657 q 93 680 91 677 l 151 680 l 151 689 q 167 804 151 745 q 210 913 182 863 q 271 1004 237 964 q 344 1067 304 1044 q 420 1090 383 1090 q 506 1083 465 1090 q 581 1060 546 1076 q 642 1020 616 1044 q 682 961 667 996 q 697 883 697 926 q 683 810 697 845 q 650 752 669 775 q 604 703 631 728 q 562 667 589 690 q 519 631 534 644 q 492 600 505 618 q 480 565 480 581 q 490 528 480 546 q 512 496 499 510 q 549 467 525 483 q 589 441 572 451 q 634 417 606 432 q 667 399 654 406 q 700 379 680 392 q 732 355 720 366 q 760 328 745 345 q 784 296 775 312 q 798 259 792 280 q 804 216 804 238 q 778 101 804 154 q 703 16 751 48 q 596 -16 654 -16 q 477 6 530 -16 q 411 52 425 28 q 412 62 411 55 q 412 73 412 69 q 464 143 418 143 q 485 136 475 143 q 499 122 494 129 q 515 99 505 115 q 529 77 525 83 q 600 33 558 33 q 670 68 643 33 q 697 161 697 102 q 693 189 697 175 q 683 214 689 203 q 666 235 677 224 q 646 254 656 246 q 621 272 636 262 q 594 288 606 281 q 565 304 583 294 q 561 306 564 304 q 525 325 537 318 q 491 345 513 332 q 458 369 470 359 q 431 396 446 379 q 408 428 416 412 q 394 466 400 444 q 389 511 389 488 q 400 557 389 534 q 426 595 412 581 q 466 636 439 610 q 505 677 492 661 q 559 760 539 715 q 579 864 579 804 q 539 990 579 943 q 425 1038 498 1038 q 372 1029 395 1038 q 333 1004 349 1019 q 306 964 317 988 q 288 916 294 940 q 278 861 281 892 q 273 805 274 830 q 272 747 272 779 l 272 182 q 280 66 272 92 q 322 48 283 55 q 385 41 362 41 q 391 18 391 35 q 385 -5 391 1 q 329 -2 366 -4 q 265 2 292 1 q 211 3 238 3 q 158 2 184 3 q 99 -1 132 1 q 44 -5 66 -3 z "},"":{"ha":677,"x_min":58,"x_max":658,"o":"m 58 168 q 83 248 58 213 q 137 294 108 283 q 210 320 162 303 q 292 348 257 336 q 361 373 326 360 q 412 393 396 387 q 422 398 418 396 q 428 405 425 400 q 431 415 430 409 q 431 433 431 422 l 431 475 q 414 545 431 511 q 365 603 396 580 q 296 626 333 626 q 237 602 256 626 q 210 529 218 578 q 184 471 202 490 q 136 453 165 453 q 97 473 112 453 q 82 519 82 494 q 83 530 82 523 q 87 545 85 537 q 93 557 90 553 q 143 596 113 576 q 211 638 172 617 q 294 673 249 659 q 379 686 338 686 q 499 623 448 686 q 551 471 551 560 l 551 146 q 600 73 551 73 q 613 74 606 73 q 625 77 620 75 q 634 81 629 79 q 642 86 640 84 q 648 90 645 88 q 651 93 651 92 q 658 80 658 93 q 650 50 658 64 q 593 12 631 34 q 532 -9 554 -9 q 471 22 499 -9 q 436 93 444 54 q 346 28 413 70 q 242 -13 278 -13 q 111 39 164 -13 q 58 168 58 92 m 144 983 q 145 991 144 987 q 149 1003 146 996 q 157 1015 152 1010 q 174 1025 163 1021 q 201 1029 186 1029 q 222 1026 212 1029 q 237 1021 232 1023 q 244 1017 243 1018 q 339 887 282 969 q 397 798 397 805 q 382 777 397 777 q 339 803 376 777 q 258 861 301 828 q 179 930 214 895 q 144 983 144 966 m 189 182 q 202 129 189 154 q 241 88 216 103 q 294 73 265 73 q 339 80 314 73 q 384 99 363 88 q 417 120 404 109 q 431 137 431 131 l 431 351 q 285 305 309 315 q 214 257 240 288 q 189 182 189 226 z "},"":{"ha":677,"x_min":58,"x_max":658,"o":"m 58 168 q 83 248 58 213 q 137 294 108 283 q 210 320 162 303 q 292 348 257 336 q 361 373 326 360 q 412 393 396 387 q 422 398 418 396 q 428 405 425 400 q 431 415 430 409 q 431 433 431 422 l 431 475 q 414 545 431 511 q 365 603 396 580 q 296 626 333 626 q 237 602 256 626 q 210 529 218 578 q 184 471 202 490 q 136 453 165 453 q 97 473 112 453 q 82 519 82 494 q 83 530 82 523 q 87 545 85 537 q 93 557 90 553 q 143 596 113 576 q 211 638 172 617 q 294 673 249 659 q 379 686 338 686 q 499 623 448 686 q 551 471 551 560 l 551 146 q 600 73 551 73 q 613 74 606 73 q 625 77 620 75 q 634 81 629 79 q 642 86 640 84 q 648 90 645 88 q 651 93 651 92 q 658 80 658 93 q 650 50 658 64 q 593 12 631 34 q 532 -9 554 -9 q 471 22 499 -9 q 436 93 444 54 q 346 28 413 70 q 242 -13 278 -13 q 111 39 164 -13 q 58 168 58 92 m 189 182 q 202 129 189 154 q 241 88 216 103 q 294 73 265 73 q 339 80 314 73 q 384 99 363 88 q 417 120 404 109 q 431 137 431 131 l 431 351 q 285 305 309 315 q 214 257 240 288 q 189 182 189 226 m 236 798 q 293 887 236 805 q 389 1017 351 969 q 395 1021 390 1018 q 411 1026 401 1023 q 431 1029 421 1029 q 463 1023 450 1029 q 480 1009 475 1018 q 486 994 485 1000 q 488 983 488 989 q 453 930 488 966 q 375 861 418 895 q 294 803 332 828 q 250 777 256 777 q 236 798 236 777 z "},"":{"ha":677,"x_min":58,"x_max":658,"o":"m 58 168 q 83 248 58 213 q 137 294 108 283 q 210 320 162 303 q 292 348 257 336 q 361 373 326 360 q 412 393 396 387 q 422 398 418 396 q 428 405 425 400 q 431 415 430 409 q 431 433 431 422 l 431 475 q 414 545 431 511 q 365 603 396 580 q 296 626 333 626 q 237 602 256 626 q 210 529 218 578 q 184 471 202 490 q 136 453 165 453 q 97 473 112 453 q 82 519 82 494 q 83 530 82 523 q 87 545 85 537 q 93 557 90 553 q 143 596 113 576 q 211 638 172 617 q 294 673 249 659 q 379 686 338 686 q 499 623 448 686 q 551 471 551 560 l 551 146 q 600 73 551 73 q 613 74 606 73 q 625 77 620 75 q 634 81 629 79 q 642 86 640 84 q 648 90 645 88 q 651 93 651 92 q 658 80 658 93 q 650 50 658 64 q 593 12 631 34 q 532 -9 554 -9 q 471 22 499 -9 q 436 93 444 54 q 346 28 413 70 q 242 -13 278 -13 q 111 39 164 -13 q 58 168 58 92 m 182 795 q 207 826 188 802 q 230 857 225 850 q 249 882 235 863 q 270 910 263 901 q 288 936 276 920 q 309 968 299 953 q 330 1002 319 984 q 348 1017 339 1017 q 365 1002 357 1017 q 386 968 376 984 q 408 936 396 953 q 426 910 419 920 q 446 882 432 901 q 466 857 460 863 q 489 826 471 850 q 513 795 507 802 q 507 780 513 787 q 496 774 502 774 l 348 894 q 200 774 255 818 q 188 780 194 774 q 182 795 182 787 m 189 182 q 202 129 189 154 q 241 88 216 103 q 294 73 265 73 q 339 80 314 73 q 384 99 363 88 q 417 120 404 109 q 431 137 431 131 l 431 351 q 285 305 309 315 q 214 257 240 288 q 189 182 189 226 z "},"":{"ha":677,"x_min":58,"x_max":658,"o":"m 58 168 q 83 248 58 213 q 137 294 108 283 q 210 320 162 303 q 292 348 257 336 q 361 373 326 360 q 412 393 396 387 q 422 398 418 396 q 428 405 425 400 q 431 415 430 409 q 431 433 431 422 l 431 475 q 414 545 431 511 q 365 603 396 580 q 296 626 333 626 q 237 602 256 626 q 210 529 218 578 q 184 471 202 490 q 136 453 165 453 q 97 473 112 453 q 82 519 82 494 q 83 530 82 523 q 87 545 85 537 q 93 557 90 553 q 143 596 113 576 q 211 638 172 617 q 294 673 249 659 q 379 686 338 686 q 499 623 448 686 q 551 471 551 560 l 551 146 q 600 73 551 73 q 613 74 606 73 q 625 77 620 75 q 634 81 629 79 q 642 86 640 84 q 648 90 645 88 q 651 93 651 92 q 658 80 658 93 q 650 50 658 64 q 593 12 631 34 q 532 -9 554 -9 q 471 22 499 -9 q 436 93 444 54 q 346 28 413 70 q 242 -13 278 -13 q 111 39 164 -13 q 58 168 58 92 m 132 810 q 151 869 132 840 q 249 925 193 925 q 286 919 267 925 q 314 907 306 912 q 345 889 323 902 q 436 851 404 851 q 472 860 455 851 q 497 879 488 869 q 513 900 506 890 q 524 913 521 911 q 533 899 533 913 q 511 839 533 871 q 414 781 469 781 q 377 786 395 781 q 349 798 358 792 q 319 815 340 803 q 227 854 257 854 q 191 846 207 854 q 168 826 176 837 q 154 805 161 816 q 144 793 148 795 q 135 799 138 793 q 132 810 132 804 m 189 182 q 202 129 189 154 q 241 88 216 103 q 294 73 265 73 q 339 80 314 73 q 384 99 363 88 q 417 120 404 109 q 431 137 431 131 l 431 351 q 285 305 309 315 q 214 257 240 288 q 189 182 189 226 z "},"":{"ha":677,"x_min":58,"x_max":658,"o":"m 58 168 q 83 248 58 213 q 137 294 108 283 q 210 320 162 303 q 292 348 257 336 q 361 373 326 360 q 412 393 396 387 q 422 398 418 396 q 428 405 425 400 q 431 415 430 409 q 431 433 431 422 l 431 475 q 414 545 431 511 q 365 603 396 580 q 296 626 333 626 q 237 602 256 626 q 210 529 218 578 q 184 471 202 490 q 136 453 165 453 q 97 473 112 453 q 82 519 82 494 q 83 530 82 523 q 87 545 85 537 q 93 557 90 553 q 143 596 113 576 q 211 638 172 617 q 294 673 249 659 q 379 686 338 686 q 499 623 448 686 q 551 471 551 560 l 551 146 q 600 73 551 73 q 613 74 606 73 q 625 77 620 75 q 634 81 629 79 q 642 86 640 84 q 648 90 645 88 q 651 93 651 92 q 658 80 658 93 q 650 50 658 64 q 593 12 631 34 q 532 -9 554 -9 q 471 22 499 -9 q 436 93 444 54 q 346 28 413 70 q 242 -13 278 -13 q 111 39 164 -13 q 58 168 58 92 m 123 808 q 112 819 123 808 q 100 859 100 829 q 123 910 100 888 q 176 931 146 931 q 227 909 205 931 q 249 857 249 887 q 238 822 249 838 q 211 796 228 806 q 175 787 194 787 q 123 808 145 787 m 189 182 q 202 129 189 154 q 241 88 216 103 q 294 73 265 73 q 339 80 314 73 q 384 99 363 88 q 417 120 404 109 q 431 137 431 131 l 431 351 q 285 305 309 315 q 214 257 240 288 q 189 182 189 226 m 389 859 q 411 910 389 888 q 464 931 434 931 q 500 921 484 931 q 527 894 517 911 q 536 857 536 877 q 526 822 536 838 q 499 796 516 806 q 463 787 482 787 q 426 797 444 787 q 399 823 409 806 q 389 859 389 840 z "},"":{"ha":677,"x_min":58,"x_max":658,"o":"m 58 168 q 83 248 58 213 q 137 294 108 283 q 210 320 162 303 q 292 348 257 336 q 361 373 326 360 q 412 393 396 387 q 422 398 418 396 q 428 405 425 400 q 431 415 430 409 q 431 433 431 422 l 431 475 q 414 545 431 511 q 365 603 396 580 q 296 626 333 626 q 237 602 256 626 q 210 529 218 578 q 184 471 202 490 q 136 453 165 453 q 97 473 112 453 q 82 519 82 494 q 83 530 82 523 q 87 545 85 537 q 93 557 90 553 q 143 596 113 576 q 211 638 172 617 q 294 673 249 659 q 379 686 338 686 q 499 623 448 686 q 551 471 551 560 l 551 146 q 600 73 551 73 q 613 74 606 73 q 625 77 620 75 q 634 81 629 79 q 642 86 640 84 q 648 90 645 88 q 651 93 651 92 q 658 80 658 93 q 650 50 658 64 q 593 12 631 34 q 532 -9 554 -9 q 471 22 499 -9 q 436 93 444 54 q 346 28 413 70 q 242 -13 278 -13 q 111 39 164 -13 q 58 168 58 92 m 189 182 q 202 129 189 154 q 241 88 216 103 q 294 73 265 73 q 339 80 314 73 q 384 99 363 88 q 417 120 404 109 q 431 137 431 131 l 431 351 q 285 305 309 315 q 214 257 240 288 q 189 182 189 226 m 214 924 q 255 1022 214 981 q 353 1063 296 1063 q 449 1022 409 1063 q 490 924 490 981 q 449 824 490 865 q 353 782 409 782 q 255 824 296 782 q 214 924 214 866 m 266 924 q 291 861 266 887 q 353 836 317 836 q 413 861 388 836 q 437 924 437 887 q 426 967 437 947 q 395 999 415 987 q 353 1010 376 1010 q 319 1003 335 1010 q 292 985 303 997 q 273 958 280 974 q 266 924 266 941 z "},"":{"ha":1027,"x_min":58,"x_max":968,"o":"m 58 168 q 79 245 58 213 q 131 293 100 277 q 279 357 175 315 q 392 403 384 399 q 408 411 404 408 q 414 425 412 415 q 417 475 417 439 q 403 546 417 512 q 361 603 389 580 q 296 626 332 626 q 238 602 257 626 q 210 527 218 577 q 184 471 202 488 q 136 453 165 453 q 97 473 112 453 q 82 519 82 494 q 85 540 82 528 q 93 557 89 552 q 138 593 109 573 q 205 635 166 613 q 290 671 243 656 q 376 686 336 686 q 462 658 424 686 q 522 589 500 630 q 558 622 538 606 q 603 654 577 637 q 660 680 629 670 q 724 689 692 689 q 796 681 763 689 q 853 658 829 672 q 896 625 877 644 q 926 586 915 606 q 946 545 938 566 q 957 507 954 524 q 960 475 960 490 q 951 420 960 439 q 922 401 943 402 q 718 395 890 399 q 526 390 547 390 q 544 258 524 317 q 600 163 564 200 q 683 107 636 127 q 782 88 729 88 q 842 97 812 88 q 894 121 871 106 q 931 148 916 136 q 955 172 945 161 q 957 171 956 172 q 959 169 958 170 q 962 165 960 168 q 965 161 964 163 q 967 156 966 159 q 968 149 968 153 q 958 121 968 137 q 927 81 945 101 q 880 38 908 60 q 811 1 851 16 q 728 -13 772 -13 q 579 22 652 -13 q 469 121 507 57 q 407 70 449 100 q 316 13 364 39 q 242 -13 268 -13 q 111 39 164 -13 q 58 168 58 92 m 189 182 q 202 129 189 154 q 241 88 216 103 q 294 73 265 73 q 356 85 323 73 q 414 119 390 98 q 439 163 439 141 q 411 304 420 205 q 408 346 408 338 q 365 332 391 340 q 318 316 340 323 q 285 305 296 309 q 215 258 241 290 q 189 182 189 226 m 533 448 l 790 448 q 826 485 824 448 q 824 509 827 494 q 814 540 821 523 q 798 573 808 557 q 773 603 787 589 q 740 624 760 616 q 697 633 720 633 q 646 623 670 633 q 606 596 623 612 q 576 560 589 580 q 555 521 563 541 q 542 485 547 501 q 534 458 536 469 q 533 448 532 448 z "},"":{"ha":665,"x_min":61,"x_max":618,"o":"m 61 305 q 78 413 61 361 q 124 507 95 466 q 191 583 153 549 q 272 641 229 618 q 358 676 314 664 q 444 689 403 689 q 585 651 529 689 q 596 632 591 646 q 601 608 601 618 q 583 550 601 568 q 541 532 565 532 q 510 542 526 532 q 476 568 494 552 q 450 590 458 585 q 406 614 423 608 q 360 620 389 620 q 310 609 335 620 q 262 575 285 597 q 222 521 239 552 q 194 448 205 490 q 184 357 184 405 q 204 238 184 290 q 259 155 224 186 q 339 107 294 123 q 439 92 385 92 q 488 98 464 92 q 529 113 511 104 q 563 133 547 121 q 589 154 580 145 q 606 172 598 163 q 610 169 607 172 q 615 161 612 166 q 618 149 618 155 q 609 121 618 137 q 577 81 596 101 q 530 38 559 60 q 462 1 502 16 q 379 -13 422 -13 q 273 4 323 -13 q 185 52 223 22 q 118 123 146 83 q 76 210 90 163 q 61 305 61 256 m 281 -197 q 289 -182 281 -189 q 304 -175 296 -175 q 331 -185 313 -175 q 362 -195 349 -195 q 411 -180 393 -195 q 429 -143 429 -165 q 414 -103 429 -117 q 380 -90 399 -90 q 373 -90 376 -90 q 366 -91 369 -91 q 360 -93 363 -92 q 354 -95 356 -94 q 347 -98 351 -96 q 340 -100 342 -100 q 330 -93 337 -100 q 324 -80 322 -85 q 349 -41 330 -70 q 374 0 368 -12 l 408 0 l 379 -36 l 418 -36 q 468 -59 448 -36 q 488 -113 488 -82 q 480 -154 488 -135 q 459 -187 473 -173 q 427 -212 446 -201 q 387 -228 409 -222 q 340 -233 364 -233 q 310 -228 326 -233 q 286 -218 294 -224 q 284 -210 286 -218 q 281 -197 281 -202 z "},"":{"ha":676,"x_min":63,"x_max":616,"o":"m 63 315 q 76 416 63 366 q 113 506 90 465 q 166 581 136 546 q 231 639 197 616 q 302 676 265 663 q 373 689 338 689 q 445 681 412 689 q 503 658 479 672 q 545 625 526 644 q 575 586 564 606 q 595 545 587 566 q 606 507 603 524 q 609 475 609 490 q 601 420 609 439 q 571 401 593 402 q 367 395 539 399 q 175 390 195 390 l 175 379 q 189 275 175 323 q 226 193 202 227 q 282 135 250 159 q 352 100 315 111 q 431 88 390 88 q 491 97 461 88 q 543 121 521 106 q 580 148 566 136 q 604 172 595 161 q 608 169 605 172 q 614 161 611 166 q 616 149 616 155 q 608 121 616 137 q 576 81 595 101 q 529 38 557 60 q 461 1 500 16 q 378 -13 421 -13 q 214 30 286 -13 q 102 148 142 73 q 63 315 63 222 m 170 983 q 172 994 170 989 q 177 1009 173 1000 q 195 1023 182 1018 q 227 1029 208 1029 q 247 1026 237 1029 q 262 1021 257 1023 q 269 1017 268 1018 q 365 887 307 969 q 422 798 422 805 q 408 777 422 777 q 377 793 403 777 q 317 836 351 810 q 249 889 283 861 q 193 943 216 916 q 170 983 170 969 m 182 448 l 439 448 q 475 485 475 448 q 471 517 475 499 q 457 556 467 536 q 433 594 448 577 q 396 622 419 610 q 346 633 374 633 q 296 623 319 633 q 255 596 272 612 q 225 560 239 580 q 204 521 212 541 q 191 485 196 501 q 183 458 185 469 q 182 448 182 448 z "},"":{"ha":676,"x_min":63,"x_max":616,"o":"m 63 315 q 76 416 63 366 q 113 506 90 465 q 166 581 136 546 q 231 639 197 616 q 302 676 265 663 q 373 689 338 689 q 445 681 412 689 q 503 658 479 672 q 545 625 526 644 q 575 586 564 606 q 595 545 587 566 q 606 507 603 524 q 609 475 609 490 q 601 420 609 439 q 571 401 593 402 q 367 395 539 399 q 175 390 195 390 l 175 379 q 189 275 175 323 q 226 193 202 227 q 282 135 250 159 q 352 100 315 111 q 431 88 390 88 q 491 97 461 88 q 543 121 521 106 q 580 148 566 136 q 604 172 595 161 q 608 169 605 172 q 614 161 611 166 q 616 149 616 155 q 608 121 616 137 q 576 81 595 101 q 529 38 557 60 q 461 1 500 16 q 378 -13 421 -13 q 214 30 286 -13 q 102 148 142 73 q 63 315 63 222 m 182 448 l 439 448 q 475 485 475 448 q 471 517 475 499 q 457 556 467 536 q 433 594 448 577 q 396 622 419 610 q 346 633 374 633 q 296 623 319 633 q 255 596 272 612 q 225 560 239 580 q 204 521 212 541 q 191 485 196 501 q 183 458 185 469 q 182 448 182 448 m 277 798 q 334 887 277 805 q 429 1017 391 969 q 434 1019 431 1017 q 443 1023 437 1021 q 456 1027 448 1025 q 472 1029 465 1029 q 504 1023 491 1029 q 521 1009 517 1018 q 527 994 526 1000 q 529 983 529 989 q 494 930 529 966 q 416 861 459 895 q 335 803 372 828 q 291 777 297 777 q 277 798 277 777 z "},"":{"ha":676,"x_min":63,"x_max":616,"o":"m 63 315 q 76 416 63 366 q 113 506 90 465 q 166 581 136 546 q 231 639 197 616 q 302 676 265 663 q 373 689 338 689 q 445 681 412 689 q 503 658 479 672 q 545 625 526 644 q 575 586 564 606 q 595 545 587 566 q 606 507 603 524 q 609 475 609 490 q 601 420 609 439 q 571 401 593 402 q 367 395 539 399 q 175 390 195 390 l 175 379 q 189 275 175 323 q 226 193 202 227 q 282 135 250 159 q 352 100 315 111 q 431 88 390 88 q 491 97 461 88 q 543 121 521 106 q 580 148 566 136 q 604 172 595 161 q 608 169 605 172 q 614 161 611 166 q 616 149 616 155 q 608 121 616 137 q 576 81 595 101 q 529 38 557 60 q 461 1 500 16 q 378 -13 421 -13 q 214 30 286 -13 q 102 148 142 73 q 63 315 63 222 m 182 448 l 439 448 q 475 485 475 448 q 471 517 475 499 q 457 556 467 536 q 433 594 448 577 q 396 622 419 610 q 346 633 374 633 q 296 623 319 633 q 255 596 272 612 q 225 560 239 580 q 204 521 212 541 q 191 485 196 501 q 183 458 185 469 q 182 448 182 448 m 186 795 q 210 826 191 802 q 233 857 228 850 q 252 882 238 863 q 273 910 267 901 q 291 936 279 920 q 312 968 302 953 q 334 1002 322 984 q 351 1017 342 1017 q 368 1002 359 1017 q 389 968 379 984 q 411 936 399 953 q 429 910 422 920 q 450 882 435 901 q 469 857 464 863 q 492 826 473 850 q 516 795 511 802 q 511 780 516 787 q 498 774 505 774 l 351 894 q 203 774 258 818 q 191 780 197 774 q 186 795 186 787 z "},"":{"ha":676,"x_min":63,"x_max":616,"o":"m 63 315 q 76 416 63 366 q 113 506 90 465 q 166 581 136 546 q 231 639 197 616 q 302 676 265 663 q 373 689 338 689 q 445 681 412 689 q 503 658 479 672 q 545 625 526 644 q 575 586 564 606 q 595 545 587 566 q 606 507 603 524 q 609 475 609 490 q 601 420 609 439 q 571 401 593 402 q 367 395 539 399 q 175 390 195 390 l 175 379 q 189 275 175 323 q 226 193 202 227 q 282 135 250 159 q 352 100 315 111 q 431 88 390 88 q 491 97 461 88 q 543 121 521 106 q 580 148 566 136 q 604 172 595 161 q 608 169 605 172 q 614 161 611 166 q 616 149 616 155 q 608 121 616 137 q 576 81 595 101 q 529 38 557 60 q 461 1 500 16 q 378 -13 421 -13 q 214 30 286 -13 q 102 148 142 73 q 63 315 63 222 m 144 859 q 168 910 144 888 q 220 931 191 931 q 271 909 250 931 q 293 857 293 887 q 271 807 293 828 q 218 787 248 787 q 182 797 199 787 q 155 823 165 806 q 144 859 144 840 m 182 448 l 439 448 q 475 485 475 448 q 471 517 475 499 q 457 556 467 536 q 433 594 448 577 q 396 622 419 610 q 346 633 374 633 q 296 623 319 633 q 255 596 272 612 q 225 560 239 580 q 204 521 212 541 q 191 485 196 501 q 183 458 185 469 q 182 448 182 448 m 455 808 q 444 819 455 808 q 433 859 433 829 q 455 910 433 888 q 508 931 478 931 q 559 909 538 931 q 581 857 581 887 q 570 822 581 838 q 543 796 560 806 q 507 787 526 787 q 455 808 477 787 z "},"":{"ha":425,"x_min":31,"x_max":397,"o":"m 31 983 q 33 994 31 989 q 39 1009 34 1000 q 56 1023 43 1018 q 88 1029 69 1029 q 101 1028 94 1029 q 112 1025 107 1027 q 121 1022 117 1023 q 128 1019 125 1020 q 131 1017 130 1017 q 226 887 169 969 q 283 798 283 805 q 269 777 283 777 q 225 803 263 777 q 144 861 188 828 q 66 930 101 895 q 31 983 31 966 m 54 585 q 50 604 51 588 q 54 626 50 620 q 279 692 188 645 q 290 683 284 692 q 296 667 296 673 q 285 564 285 590 l 285 511 l 285 182 q 293 66 285 92 q 300 58 294 62 q 316 52 307 54 q 337 47 326 50 q 359 43 348 45 q 378 41 370 42 q 392 41 387 41 q 397 18 397 35 q 392 -5 397 1 q 336 -1 370 -3 q 277 2 302 1 q 223 3 251 3 q 171 2 196 3 q 112 -1 145 1 q 57 -5 79 -3 q 51 18 51 1 q 57 41 52 35 q 116 48 79 41 q 156 66 153 55 q 163 182 163 92 l 163 475 q 156 557 163 538 q 125 576 151 569 q 83 584 100 583 q 54 585 66 585 z "},"":{"ha":425,"x_min":50,"x_max":397,"o":"m 54 585 q 50 604 51 588 q 54 626 50 620 q 279 692 188 645 q 290 683 284 692 q 296 667 296 673 q 285 564 285 590 l 285 511 l 285 182 q 293 66 285 92 q 300 58 294 62 q 316 52 307 54 q 337 47 326 50 q 359 43 348 45 q 378 41 370 42 q 392 41 387 41 q 397 18 397 35 q 392 -5 397 1 q 336 -1 370 -3 q 277 2 302 1 q 223 3 251 3 q 171 2 196 3 q 112 -1 145 1 q 57 -5 79 -3 q 51 18 51 1 q 57 41 52 35 q 116 48 79 41 q 156 66 153 55 q 163 182 163 92 l 163 475 q 156 557 163 538 q 125 576 151 569 q 83 584 100 583 q 54 585 66 585 m 132 798 q 190 887 132 805 q 285 1017 247 969 q 291 1021 286 1018 q 307 1026 296 1023 q 328 1029 317 1029 q 359 1023 347 1029 q 376 1009 372 1018 q 382 994 381 1000 q 384 983 384 989 q 349 930 384 966 q 271 861 314 895 q 190 803 228 828 q 146 777 153 777 q 132 798 132 777 z "},"":{"ha":425,"x_min":50,"x_max":411,"o":"m 54 585 q 50 604 51 588 q 54 626 50 620 q 279 692 188 645 q 290 683 284 692 q 296 667 296 673 q 285 564 285 590 l 285 511 l 285 182 q 293 66 285 92 q 300 58 294 62 q 316 52 307 54 q 337 47 326 50 q 359 43 348 45 q 378 41 370 42 q 392 41 387 41 q 397 18 397 35 q 392 -5 397 1 q 336 -1 370 -3 q 277 2 302 1 q 223 3 251 3 q 171 2 196 3 q 112 -1 145 1 q 57 -5 79 -3 q 51 18 51 1 q 57 41 52 35 q 116 48 79 41 q 156 66 153 55 q 163 182 163 92 l 163 475 q 156 557 163 538 q 125 576 151 569 q 83 584 100 583 q 54 585 66 585 m 80 795 q 104 826 86 802 q 128 857 123 850 q 147 882 133 863 q 168 910 161 901 q 186 936 174 920 q 207 968 197 953 q 228 1002 217 984 q 245 1017 237 1017 q 262 1002 254 1017 q 284 968 274 984 q 305 936 294 953 q 323 910 317 920 q 344 882 330 901 q 363 857 358 863 q 387 826 368 850 q 411 795 405 802 q 405 780 411 787 q 393 774 399 774 l 245 894 q 98 774 153 818 q 86 780 92 774 q 80 795 80 787 z "},"":{"ha":428,"x_min":13,"x_max":422,"o":"m 23 820 q 18 829 23 820 q 13 859 13 838 q 24 898 13 880 q 53 926 35 916 q 93 936 72 936 q 148 913 125 936 q 170 857 170 890 q 147 804 170 826 q 92 782 123 782 q 52 792 71 782 q 23 820 34 802 m 54 585 q 50 604 51 588 q 54 626 50 620 q 279 692 188 645 q 290 683 284 692 q 296 667 296 673 q 285 564 285 590 l 285 511 l 285 182 q 293 66 285 92 q 300 58 294 62 q 316 52 307 54 q 337 47 326 50 q 359 43 348 45 q 378 41 370 42 q 392 41 387 41 q 397 18 397 35 q 392 -5 397 1 q 336 -1 370 -3 q 277 2 302 1 q 223 3 251 3 q 171 2 196 3 q 112 -1 145 1 q 57 -5 79 -3 q 51 18 51 1 q 57 41 52 35 q 116 48 79 41 q 156 66 153 55 q 163 182 163 92 l 163 475 q 156 557 163 538 q 125 576 151 569 q 83 584 100 583 q 54 585 66 585 m 264 859 q 276 898 264 880 q 305 926 287 916 q 345 936 323 936 q 399 913 376 936 q 422 857 422 890 q 398 804 422 826 q 343 782 375 782 q 288 805 311 782 q 264 859 264 827 z "},"":{"ha":813,"x_min":63,"x_max":727,"o":"m 63 332 q 72 418 63 375 q 99 500 81 460 q 144 575 116 541 q 207 635 172 610 q 289 676 242 661 q 389 690 336 690 q 522 665 480 690 q 506 706 512 691 q 485 750 500 720 q 454 802 469 779 q 414 853 439 824 q 359 908 389 882 l 201 801 q 179 827 191 808 q 175 851 168 845 l 313 944 q 127 1044 241 997 q 130 1059 127 1050 q 138 1075 133 1068 q 149 1082 144 1082 q 370 983 261 1056 l 545 1100 q 568 1075 556 1093 q 572 1051 580 1057 l 418 947 q 546 827 483 899 q 679 618 630 732 q 727 389 727 505 q 709 249 727 314 q 660 137 691 184 q 588 56 629 90 q 500 6 547 22 q 403 -11 452 -11 q 286 6 340 -11 q 191 55 231 24 q 121 130 150 87 q 78 224 92 172 q 63 332 63 275 m 198 357 q 213 243 198 299 q 255 141 229 186 q 321 68 281 96 q 408 41 361 41 q 509 78 467 41 q 571 177 551 116 q 590 318 590 239 q 581 437 590 381 q 559 517 572 492 q 479 609 526 580 q 368 639 432 639 q 289 615 323 639 q 236 552 255 592 q 207 463 216 511 q 198 357 198 414 z "},"":{"ha":837,"x_min":50,"x_max":822,"o":"m 54 585 q 50 604 51 588 q 54 626 50 620 q 279 692 188 645 q 290 683 284 692 q 296 667 296 673 q 286 577 286 601 q 290 571 286 571 q 294 574 291 571 q 331 607 307 589 q 384 644 354 625 q 447 676 413 663 q 507 689 480 689 q 581 681 549 689 q 635 653 612 672 q 672 608 657 634 q 695 543 686 583 q 706 460 703 504 q 709 355 709 416 l 709 182 q 718 66 709 92 q 741 52 720 58 q 783 43 762 46 q 817 41 804 41 q 822 18 821 35 q 817 -5 822 1 q 761 -1 795 -3 q 702 2 728 1 q 648 3 675 3 q 595 2 621 3 q 536 -1 570 1 q 481 -5 503 -3 q 476 18 476 1 q 481 41 477 35 q 541 48 504 41 q 581 66 578 55 q 589 182 589 92 l 589 340 q 582 463 589 416 q 557 542 575 510 q 510 586 539 573 q 434 598 481 598 q 371 579 408 598 q 310 539 334 560 q 285 511 285 519 l 285 182 q 293 66 285 92 q 300 58 294 62 q 316 52 307 54 q 337 47 326 50 q 359 43 348 45 q 378 41 370 42 q 392 41 387 41 q 397 18 397 35 q 392 -5 397 1 q 336 -1 370 -3 q 277 2 302 1 q 223 3 251 3 q 171 2 196 3 q 112 -1 145 1 q 57 -5 79 -3 q 51 18 51 1 q 57 41 52 35 q 116 48 79 41 q 156 66 153 55 q 163 182 163 92 l 163 469 q 156 557 163 538 q 125 576 151 569 q 83 584 100 583 q 54 585 66 585 m 216 813 q 235 871 216 844 q 332 928 276 928 q 370 922 350 928 q 398 910 389 915 q 428 892 406 905 q 519 854 488 854 q 555 863 538 854 q 581 883 572 872 q 597 904 589 893 q 608 916 604 914 q 616 901 616 916 q 595 842 616 875 q 497 783 552 783 q 474 786 486 783 q 456 790 463 788 q 436 799 448 793 q 420 808 425 805 q 403 818 416 810 q 310 857 340 857 q 275 848 290 857 q 252 829 259 840 q 238 808 244 819 q 228 796 231 798 q 219 802 222 796 q 216 813 216 808 z "},"":{"ha":800,"x_min":64,"x_max":736,"o":"m 64 335 q 90 476 64 410 q 160 589 116 542 q 267 663 205 636 q 399 690 330 690 q 578 646 501 690 q 696 524 656 601 q 736 348 736 446 q 711 206 736 273 q 641 92 685 140 q 535 17 597 44 q 403 -11 473 -11 q 262 16 326 -11 q 156 88 199 42 q 89 198 113 134 q 64 335 64 262 m 200 367 q 209 274 200 320 q 236 186 218 228 q 280 112 254 144 q 342 60 306 79 q 418 41 378 41 q 478 52 451 41 q 526 81 506 62 q 560 126 545 100 q 583 182 574 151 q 596 245 592 213 q 601 311 601 277 q 586 427 601 370 q 545 532 572 485 q 475 609 517 580 q 382 639 433 639 q 312 623 343 639 q 260 582 281 608 q 225 521 239 556 q 206 447 212 486 q 200 367 200 409 m 250 983 q 252 994 250 989 q 258 1009 253 1000 q 275 1023 262 1018 q 307 1029 288 1029 q 327 1026 317 1029 q 342 1021 337 1023 q 349 1017 348 1018 q 394 957 368 994 q 445 887 421 920 q 485 827 468 853 q 502 798 502 801 q 488 777 502 777 q 457 793 483 777 q 397 836 431 810 q 330 889 363 861 q 273 943 296 916 q 250 983 250 969 z "},"":{"ha":800,"x_min":64,"x_max":736,"o":"m 64 335 q 90 476 64 410 q 160 589 116 542 q 267 663 205 636 q 399 690 330 690 q 578 646 501 690 q 696 524 656 601 q 736 348 736 446 q 711 206 736 273 q 641 92 685 140 q 535 17 597 44 q 403 -11 473 -11 q 262 16 326 -11 q 156 88 199 42 q 89 198 113 134 q 64 335 64 262 m 200 367 q 209 274 200 320 q 236 186 218 228 q 280 112 254 144 q 342 60 306 79 q 418 41 378 41 q 478 52 451 41 q 526 81 506 62 q 560 126 545 100 q 583 182 574 151 q 596 245 592 213 q 601 311 601 277 q 586 427 601 370 q 545 532 572 485 q 475 609 517 580 q 382 639 433 639 q 312 623 343 639 q 260 582 281 608 q 225 521 239 556 q 206 447 212 486 q 200 367 200 409 m 335 798 q 392 887 335 805 q 488 1017 450 969 q 492 1019 488 1017 q 501 1023 496 1021 q 515 1027 507 1025 q 530 1029 523 1029 q 562 1023 549 1029 q 579 1009 575 1018 q 585 994 584 1000 q 587 983 587 989 q 564 943 587 969 q 508 889 541 916 q 440 836 474 861 q 380 793 406 810 q 349 777 354 777 q 335 798 335 777 z "},"":{"ha":800,"x_min":64,"x_max":736,"o":"m 64 335 q 90 476 64 410 q 160 589 116 542 q 267 663 205 636 q 399 690 330 690 q 578 646 501 690 q 696 524 656 601 q 736 348 736 446 q 711 206 736 273 q 641 92 685 140 q 535 17 597 44 q 403 -11 473 -11 q 262 16 326 -11 q 156 88 199 42 q 89 198 113 134 q 64 335 64 262 m 200 367 q 209 274 200 320 q 236 186 218 228 q 280 112 254 144 q 342 60 306 79 q 418 41 378 41 q 478 52 451 41 q 526 81 506 62 q 560 126 545 100 q 583 182 574 151 q 596 245 592 213 q 601 311 601 277 q 586 427 601 370 q 545 532 572 485 q 475 609 517 580 q 382 639 433 639 q 312 623 343 639 q 260 582 281 608 q 225 521 239 556 q 206 447 212 486 q 200 367 200 409 m 239 795 q 263 826 245 802 q 287 857 281 850 q 306 882 292 863 q 327 910 320 901 q 345 936 333 920 q 366 968 356 953 q 387 1002 376 984 q 404 1017 395 1017 q 422 1002 413 1017 q 443 968 433 984 q 465 936 453 953 q 483 910 476 920 q 503 882 489 901 q 522 857 517 863 q 546 826 527 850 q 570 795 564 802 q 564 780 570 787 q 552 774 558 774 l 404 894 q 256 774 311 818 q 245 780 250 774 q 239 795 239 787 z "},"":{"ha":800,"x_min":64,"x_max":736,"o":"m 64 335 q 90 476 64 410 q 160 589 116 542 q 267 663 205 636 q 399 690 330 690 q 578 646 501 690 q 696 524 656 601 q 736 348 736 446 q 711 206 736 273 q 641 92 685 140 q 535 17 597 44 q 403 -11 473 -11 q 262 16 326 -11 q 156 88 199 42 q 89 198 113 134 q 64 335 64 262 m 200 367 q 209 274 200 320 q 236 186 218 228 q 280 112 254 144 q 342 60 306 79 q 418 41 378 41 q 478 52 451 41 q 526 81 506 62 q 560 126 545 100 q 583 182 574 151 q 596 245 592 213 q 601 311 601 277 q 586 427 601 370 q 545 532 572 485 q 475 609 517 580 q 382 639 433 639 q 312 623 343 639 q 260 582 281 608 q 225 521 239 556 q 206 447 212 486 q 200 367 200 409 m 208 812 q 227 870 208 842 q 324 926 269 926 q 362 920 342 926 q 390 908 381 913 q 420 890 399 903 q 511 852 480 852 q 537 857 525 852 q 557 867 549 861 q 572 881 565 873 q 584 896 580 889 q 593 907 589 902 q 600 914 597 913 q 609 900 609 914 q 587 840 609 873 q 490 782 544 782 q 453 788 471 782 q 425 799 434 794 q 395 817 415 804 q 302 856 332 856 q 267 847 283 856 q 244 828 252 838 q 230 807 237 817 q 220 795 223 796 q 214 797 217 795 q 210 801 212 798 q 208 806 209 804 q 208 812 208 809 z "},"":{"ha":800,"x_min":64,"x_max":736,"o":"m 64 335 q 90 476 64 410 q 160 589 116 542 q 267 663 205 636 q 399 690 330 690 q 578 646 501 690 q 696 524 656 601 q 736 348 736 446 q 711 206 736 273 q 641 92 685 140 q 535 17 597 44 q 403 -11 473 -11 q 262 16 326 -11 q 156 88 199 42 q 89 198 113 134 q 64 335 64 262 m 204 808 q 193 819 204 808 q 182 859 182 829 q 205 910 182 888 q 258 931 229 931 q 309 909 288 931 q 330 857 330 887 q 320 822 330 838 q 293 796 310 806 q 256 787 276 787 q 204 808 227 787 m 200 367 q 209 274 200 320 q 236 186 218 228 q 280 112 254 144 q 342 60 306 79 q 418 41 378 41 q 478 52 451 41 q 526 81 506 62 q 560 126 545 100 q 583 182 574 151 q 596 245 592 213 q 601 311 601 277 q 586 427 601 370 q 545 532 572 485 q 475 609 517 580 q 382 639 433 639 q 312 623 343 639 q 260 582 281 608 q 225 521 239 556 q 206 447 212 486 q 200 367 200 409 m 471 859 q 493 910 471 888 q 546 931 516 931 q 582 921 565 931 q 609 894 599 911 q 618 857 618 877 q 608 822 618 838 q 581 796 598 806 q 544 787 564 787 q 508 797 525 787 q 481 823 491 806 q 471 859 471 840 z "},"":{"ha":942,"x_min":94,"x_max":850,"o":"m 94 360 q 96 373 94 363 q 101 394 98 382 q 110 417 104 406 q 121 433 115 429 l 836 433 q 845 428 841 433 q 850 414 850 422 q 842 375 850 395 q 825 345 834 354 l 104 345 q 94 360 94 345 m 419 31 q 408 42 419 31 q 397 86 397 54 q 419 142 397 119 q 475 165 442 165 q 531 142 508 165 q 554 86 554 119 q 531 31 554 54 q 475 8 508 8 q 419 31 442 8 m 419 633 q 408 644 419 633 q 397 689 397 656 q 419 745 397 722 q 475 768 442 768 q 531 745 508 768 q 554 689 554 722 q 531 633 554 656 q 475 610 508 610 q 419 633 442 610 z "},"":{"ha":800,"x_min":66,"x_max":738,"o":"m 66 335 q 92 476 66 410 q 162 589 117 542 q 269 663 207 636 q 401 690 331 690 q 580 646 503 690 q 697 524 657 601 q 738 348 738 446 q 712 206 738 273 q 643 92 687 140 q 537 17 599 44 q 404 -11 475 -11 q 264 16 328 -11 q 157 88 200 42 q 90 198 114 134 q 66 335 66 262 m 161 20 l 585 688 q 615 671 600 681 q 628 656 631 662 l 203 -13 q 190 -6 195 -9 q 176 3 184 -3 q 163 13 167 8 q 161 20 159 17 m 201 367 q 216 251 201 309 q 257 147 231 194 q 327 70 284 100 q 420 41 369 41 q 472 49 448 41 q 515 71 496 57 q 548 105 533 85 q 573 149 563 125 q 590 199 583 172 q 600 254 597 227 q 603 311 603 282 q 588 427 603 370 q 546 532 573 485 q 477 609 519 580 q 384 639 434 639 q 314 623 345 639 q 262 582 282 608 q 228 521 241 556 q 208 447 214 486 q 201 367 201 409 z "},"":{"ha":810,"x_min":22,"x_max":781,"o":"m 26 620 q 23 639 23 624 q 26 661 22 654 q 242 692 156 666 q 254 680 248 692 q 260 661 260 668 q 254 637 256 654 q 250 598 252 621 q 249 552 249 575 l 249 485 l 249 321 q 286 136 249 195 q 406 77 323 77 q 474 91 439 77 q 529 125 508 104 q 551 163 551 145 l 551 503 q 538 589 551 565 q 502 613 528 607 q 450 620 475 620 q 446 639 446 624 q 450 661 446 654 q 665 692 579 666 q 673 685 669 692 q 680 668 677 677 q 683 654 683 659 q 672 552 672 633 l 672 480 l 672 222 q 683 102 672 154 q 700 86 686 92 q 730 78 715 79 q 761 75 746 76 q 776 74 775 74 q 781 57 781 72 q 779 49 781 54 q 774 37 778 43 q 768 31 771 31 q 715 25 745 30 q 661 14 686 20 q 613 1 635 7 q 577 -9 591 -5 q 564 -13 564 -13 q 554 -5 557 -13 q 551 13 551 3 l 551 85 l 547 93 q 446 22 511 54 q 324 -11 380 -11 q 274 -4 297 -11 q 232 13 250 2 q 199 41 214 24 q 173 76 184 57 q 155 117 163 95 q 141 162 146 140 q 133 210 136 184 q 129 257 130 235 q 127 302 127 279 l 127 503 q 115 589 127 565 q 78 613 104 607 q 26 620 52 620 m 205 983 q 206 994 205 989 q 212 1009 208 1000 q 229 1023 216 1018 q 261 1029 242 1029 q 281 1026 271 1029 q 297 1021 292 1023 q 304 1017 302 1018 q 399 887 342 969 q 456 798 456 805 q 442 777 456 777 q 412 793 437 777 q 352 836 386 810 q 284 889 317 861 q 228 943 250 916 q 205 983 205 969 z "},"":{"ha":810,"x_min":22,"x_max":781,"o":"m 26 620 q 23 639 23 624 q 26 661 22 654 q 242 692 156 666 q 254 680 248 692 q 260 661 260 668 q 254 637 256 654 q 250 598 252 621 q 249 552 249 575 l 249 485 l 249 321 q 286 136 249 195 q 406 77 323 77 q 474 91 439 77 q 529 125 508 104 q 551 163 551 145 l 551 503 q 538 589 551 565 q 502 613 528 607 q 450 620 475 620 q 446 639 446 624 q 450 661 446 654 q 665 692 579 666 q 673 685 669 692 q 680 668 677 677 q 683 654 683 659 q 672 552 672 633 l 672 480 l 672 222 q 683 102 672 154 q 700 86 686 92 q 730 78 715 79 q 761 75 746 76 q 776 74 775 74 q 781 57 781 72 q 779 49 781 54 q 774 37 778 43 q 768 31 771 31 q 715 25 745 30 q 661 14 686 20 q 613 1 635 7 q 577 -9 591 -5 q 564 -13 564 -13 q 554 -5 557 -13 q 551 13 551 3 l 551 85 l 547 93 q 446 22 511 54 q 324 -11 380 -11 q 274 -4 297 -11 q 232 13 250 2 q 199 41 214 24 q 173 76 184 57 q 155 117 163 95 q 141 162 146 140 q 133 210 136 184 q 129 257 130 235 q 127 302 127 279 l 127 503 q 115 589 127 565 q 78 613 104 607 q 26 620 52 620 m 346 798 q 403 887 346 805 q 498 1017 460 969 q 503 1019 500 1017 q 512 1023 507 1021 q 526 1027 517 1025 q 541 1029 534 1029 q 573 1023 560 1029 q 591 1009 586 1018 q 597 994 595 1000 q 598 983 598 989 q 563 930 598 966 q 485 861 528 895 q 404 803 441 828 q 360 777 366 777 q 346 798 346 777 z "},"":{"ha":810,"x_min":22,"x_max":781,"o":"m 26 620 q 23 639 23 624 q 26 661 22 654 q 242 692 156 666 q 254 680 248 692 q 260 661 260 668 q 254 637 256 654 q 250 598 252 621 q 249 552 249 575 l 249 485 l 249 321 q 286 136 249 195 q 406 77 323 77 q 474 91 439 77 q 529 125 508 104 q 551 163 551 145 l 551 503 q 538 589 551 565 q 502 613 528 607 q 450 620 475 620 q 446 639 446 624 q 450 661 446 654 q 665 692 579 666 q 673 685 669 692 q 680 668 677 677 q 683 654 683 659 q 672 552 672 633 l 672 480 l 672 222 q 683 102 672 154 q 700 86 686 92 q 730 78 715 79 q 761 75 746 76 q 776 74 775 74 q 781 57 781 72 q 779 49 781 54 q 774 37 778 43 q 768 31 771 31 q 715 25 745 30 q 661 14 686 20 q 613 1 635 7 q 577 -9 591 -5 q 564 -13 564 -13 q 554 -5 557 -13 q 551 13 551 3 l 551 85 l 547 93 q 446 22 511 54 q 324 -11 380 -11 q 274 -4 297 -11 q 232 13 250 2 q 199 41 214 24 q 173 76 184 57 q 155 117 163 95 q 141 162 146 140 q 133 210 136 184 q 129 257 130 235 q 127 302 127 279 l 127 503 q 115 589 127 565 q 78 613 104 607 q 26 620 52 620 m 236 795 q 260 826 241 802 q 283 857 279 850 q 302 882 288 863 q 323 910 317 901 q 341 936 330 920 q 362 968 353 953 q 384 1002 372 984 q 401 1017 393 1017 q 418 1002 410 1017 q 440 968 430 984 q 461 936 450 953 q 479 910 473 920 q 500 882 486 901 q 519 857 514 863 q 543 826 524 850 q 566 795 561 802 q 561 780 566 787 q 549 774 555 774 l 401 894 q 254 774 309 818 q 241 780 247 774 q 236 795 236 787 z "},"":{"ha":810,"x_min":22,"x_max":781,"o":"m 26 620 q 23 639 23 624 q 26 661 22 654 q 242 692 156 666 q 254 680 248 692 q 260 661 260 668 q 254 637 256 654 q 250 598 252 621 q 249 552 249 575 l 249 485 l 249 321 q 286 136 249 195 q 406 77 323 77 q 474 91 439 77 q 529 125 508 104 q 551 163 551 145 l 551 503 q 538 589 551 565 q 502 613 528 607 q 450 620 475 620 q 446 639 446 624 q 450 661 446 654 q 665 692 579 666 q 673 685 669 692 q 680 668 677 677 q 683 654 683 659 q 672 552 672 633 l 672 480 l 672 222 q 683 102 672 154 q 700 86 686 92 q 730 78 715 79 q 761 75 746 76 q 776 74 775 74 q 781 57 781 72 q 779 49 781 54 q 774 37 778 43 q 768 31 771 31 q 715 25 745 30 q 661 14 686 20 q 613 1 635 7 q 577 -9 591 -5 q 564 -13 564 -13 q 554 -5 557 -13 q 551 13 551 3 l 551 85 l 547 93 q 446 22 511 54 q 324 -11 380 -11 q 274 -4 297 -11 q 232 13 250 2 q 199 41 214 24 q 173 76 184 57 q 155 117 163 95 q 141 162 146 140 q 133 210 136 184 q 129 257 130 235 q 127 302 127 279 l 127 503 q 115 589 127 565 q 78 613 104 607 q 26 620 52 620 m 189 808 q 178 819 189 808 q 167 859 167 829 q 190 910 167 888 q 242 931 212 931 q 293 909 272 931 q 315 857 315 887 q 304 822 315 838 q 277 796 294 806 q 241 787 260 787 q 189 808 211 787 m 454 859 q 477 910 454 888 q 530 931 500 931 q 581 909 559 931 q 603 857 603 887 q 592 822 603 838 q 565 796 582 806 q 529 787 548 787 q 500 792 514 787 q 477 808 487 798 q 460 831 467 818 q 454 859 454 844 z "},"":{"ha":738,"x_min":1,"x_max":738,"o":"m 3 631 q 1 652 1 631 q 3 677 1 674 q 161 669 78 669 q 318 677 251 669 q 319 650 321 669 q 311 631 317 631 q 286 629 301 631 q 251 622 270 628 q 233 604 233 615 q 236 598 233 604 l 403 173 q 541 530 481 382 q 551 581 551 553 q 526 617 551 604 q 459 631 500 631 q 454 651 454 631 q 459 677 454 671 q 601 669 518 669 q 733 677 654 669 q 736 650 738 669 q 730 631 735 631 q 711 628 724 631 q 683 621 699 626 q 651 604 666 616 q 629 577 636 593 q 393 9 461 176 q 359 -80 385 -12 q 314 -190 334 -147 q 269 -271 294 -233 q 206 -335 241 -312 q 132 -359 170 -359 q 109 -356 119 -359 q 87 -347 98 -353 q 70 -326 76 -340 q 63 -291 63 -311 q 82 -245 63 -268 q 123 -244 108 -245 q 158 -238 139 -243 q 193 -224 178 -233 q 225 -198 208 -214 q 261 -156 243 -181 q 305 -74 278 -134 q 336 3 332 -15 q 205 331 259 201 q 88 600 152 461 q 74 615 83 609 q 57 625 65 622 q 36 629 50 628 q 18 631 22 631 q 3 631 14 631 m 365 798 q 422 887 365 805 q 517 1017 479 969 q 522 1019 518 1017 q 531 1023 526 1021 q 545 1027 536 1025 q 560 1029 553 1029 q 592 1023 579 1029 q 609 1009 605 1018 q 615 994 614 1000 q 616 983 616 989 q 594 943 616 969 q 537 889 571 916 q 470 836 504 861 q 410 793 435 810 q 379 777 384 777 q 365 798 365 777 z "},"":{"ha":779,"x_min":-1,"x_max":718,"o":"m 5 -355 q 0 -333 -1 -349 q 5 -310 0 -316 q 64 -303 27 -310 q 104 -285 101 -296 q 112 -168 112 -260 l 112 878 q 104 960 112 941 q 8 988 92 988 q 6 998 7 988 q 6 1018 5 1008 q 9 1029 7 1028 q 233 1092 117 1040 q 244 1083 239 1092 q 250 1067 250 1075 q 233 930 233 1016 l 233 604 q 236 596 233 596 q 241 600 237 596 q 294 638 263 618 q 364 673 324 657 q 433 689 404 689 q 537 668 489 689 q 617 614 585 648 q 673 537 650 581 q 707 451 696 494 q 718 365 718 407 q 685 221 718 291 q 600 100 652 151 q 481 18 548 49 q 349 -13 415 -13 q 239 5 294 -13 q 233 -16 233 -3 l 233 -168 q 241 -285 233 -260 q 280 -303 243 -296 q 340 -310 317 -310 q 345 -333 345 -316 q 340 -355 345 -349 q 284 -352 318 -355 q 225 -349 251 -350 q 172 -348 199 -348 q 119 -349 144 -348 q 60 -352 93 -350 q 5 -355 26 -355 m 233 157 q 248 105 233 128 q 286 69 262 82 q 333 49 309 56 q 379 43 357 43 q 466 66 427 43 q 531 127 506 89 q 571 212 557 165 q 585 307 585 258 q 568 431 585 375 q 520 522 550 486 q 450 577 490 558 q 365 596 410 596 q 303 586 334 596 q 252 561 271 575 q 233 535 233 546 l 233 157 z "},"":{"ha":738,"x_min":1,"x_max":738,"o":"m 3 631 q 1 652 1 631 q 3 677 1 674 q 161 669 78 669 q 318 677 251 669 q 319 650 321 669 q 311 631 317 631 q 286 629 301 631 q 251 622 270 628 q 233 604 233 615 q 236 598 233 604 l 403 173 q 541 530 481 382 q 551 581 551 553 q 526 617 551 604 q 459 631 500 631 q 454 651 454 631 q 459 677 454 671 q 601 669 518 669 q 733 677 654 669 q 736 650 738 669 q 730 631 735 631 q 711 628 724 631 q 683 621 699 626 q 651 604 666 616 q 629 577 636 593 q 393 9 461 176 q 359 -80 385 -12 q 314 -190 334 -147 q 269 -271 294 -233 q 206 -335 241 -312 q 132 -359 170 -359 q 109 -356 119 -359 q 87 -347 98 -353 q 70 -326 76 -340 q 63 -291 63 -311 q 82 -245 63 -268 q 123 -244 108 -245 q 158 -238 139 -243 q 193 -224 178 -233 q 225 -198 208 -214 q 261 -156 243 -181 q 305 -74 278 -134 q 336 3 332 -15 q 205 331 259 201 q 88 600 152 461 q 74 615 83 609 q 57 625 65 622 q 36 629 50 628 q 18 631 22 631 q 3 631 14 631 m 200 808 q 189 819 200 808 q 178 859 178 829 q 201 910 178 888 q 254 931 224 931 q 304 909 283 931 q 326 857 326 887 q 315 822 326 838 q 288 796 305 806 q 252 787 271 787 q 200 808 222 787 m 466 859 q 489 910 466 888 q 541 931 511 931 q 592 909 570 931 q 614 857 614 887 q 604 822 614 838 q 576 796 593 806 q 539 787 559 787 q 503 797 520 787 q 476 823 486 806 q 466 859 466 840 z "},"":{"ha":1600,"x_min":77,"x_max":1556,"o":"m 77 516 q 96 657 77 588 q 148 785 115 727 q 228 893 181 844 q 331 977 275 943 q 450 1030 386 1011 q 579 1049 513 1049 q 730 1041 587 1049 q 933 1034 873 1033 q 1177 1039 1004 1034 q 1440 1044 1351 1044 q 1464 924 1446 999 q 1485 831 1482 849 q 1457 823 1477 823 q 1435 834 1437 823 q 1404 910 1422 880 q 1361 955 1385 940 q 1312 976 1337 970 q 1253 982 1286 982 l 1117 982 q 1092 981 1106 982 q 1058 979 1078 981 q 1024 974 1038 977 q 1008 964 1010 970 q 1001 852 1001 939 l 1001 559 q 1068 549 1001 549 l 1152 549 q 1199 549 1181 549 q 1236 552 1218 549 q 1263 556 1253 555 q 1282 565 1272 558 q 1295 577 1291 572 q 1305 595 1299 581 q 1313 618 1311 609 q 1321 649 1316 627 q 1324 663 1324 658 q 1348 673 1327 673 q 1375 665 1367 673 l 1375 368 q 1350 362 1369 362 q 1324 374 1330 362 q 1306 439 1314 418 q 1294 467 1298 461 q 1280 478 1289 473 q 1114 491 1261 491 q 1001 477 1001 491 l 1001 178 q 1001 169 1001 172 q 1001 158 1001 165 q 1001 145 1001 151 q 1001 132 1001 140 q 1002 117 1002 123 q 1003 104 1002 111 q 1004 92 1003 97 q 1005 81 1004 86 q 1007 74 1006 77 q 1010 69 1008 71 q 1045 56 1024 58 q 1122 54 1066 54 l 1198 54 q 1309 65 1254 54 q 1396 96 1363 77 q 1428 122 1413 106 q 1455 162 1442 138 q 1475 204 1468 186 q 1495 255 1482 222 q 1516 264 1497 264 q 1533 263 1525 264 q 1547 259 1541 262 q 1556 255 1554 257 q 1532 190 1549 235 q 1506 117 1516 144 q 1486 53 1496 89 q 1471 -6 1475 18 q 1217 -3 1390 -6 q 935 0 1044 0 q 749 -5 817 0 q 571 -11 654 -11 q 377 31 469 -11 q 220 142 286 72 q 116 310 154 212 q 77 516 77 408 m 233 551 q 244 428 233 490 q 276 310 255 367 q 331 203 298 252 q 404 117 363 153 q 498 59 445 80 q 610 38 551 38 q 676 40 648 38 q 736 48 705 42 q 790 66 768 54 q 826 99 813 79 q 848 140 840 120 q 859 188 856 160 q 863 234 863 215 q 864 294 864 254 l 864 779 q 860 833 864 809 q 843 884 856 857 q 808 933 831 911 q 715 984 773 971 q 562 996 656 996 q 458 978 507 996 q 375 927 410 960 q 312 852 340 895 q 267 760 284 810 q 241 657 250 709 q 233 551 233 604 z "},"":{"ha":1223,"x_min":64,"x_max":1164,"o":"m 64 335 q 90 476 64 410 q 160 589 116 542 q 267 663 205 636 q 399 690 330 690 q 568 652 494 690 q 684 545 641 613 q 795 650 732 611 q 920 689 859 689 q 993 681 960 689 q 1050 658 1026 672 q 1093 625 1074 644 q 1123 586 1112 606 q 1142 545 1135 566 q 1153 507 1150 524 q 1156 475 1156 490 q 1148 420 1156 439 q 1119 401 1140 402 q 722 390 1016 397 q 733 288 722 334 q 764 209 744 241 q 808 153 783 176 q 862 115 833 129 q 920 95 891 101 q 979 88 949 88 q 1039 97 1009 88 q 1090 121 1068 106 q 1127 148 1113 136 q 1152 172 1142 161 q 1153 171 1152 172 q 1156 169 1154 170 q 1159 165 1157 168 q 1161 161 1160 163 q 1163 156 1162 159 q 1164 149 1164 153 q 1155 121 1164 137 q 1123 81 1142 101 q 1076 38 1105 60 q 1008 1 1048 16 q 925 -13 968 -13 q 774 23 842 -13 q 665 123 707 59 q 551 25 620 60 q 403 -11 483 -11 q 262 16 326 -11 q 156 88 199 42 q 89 198 113 134 q 64 335 64 262 m 200 367 q 209 274 200 320 q 236 186 218 228 q 280 112 254 144 q 342 60 306 79 q 418 41 378 41 q 478 52 451 41 q 526 81 506 62 q 560 126 545 100 q 583 182 574 151 q 596 245 592 213 q 601 311 601 277 q 586 427 601 370 q 545 532 572 485 q 475 609 517 580 q 382 639 433 639 q 312 623 343 639 q 260 582 281 608 q 225 521 239 556 q 206 447 212 486 q 200 367 200 409 m 730 448 l 987 448 q 1023 485 1021 448 q 1020 509 1023 494 q 1011 540 1017 523 q 995 573 1005 557 q 970 603 984 589 q 937 624 956 616 q 894 633 917 633 q 843 623 867 633 q 803 596 819 612 q 773 560 786 580 q 751 521 760 541 q 738 485 743 501 q 731 458 733 469 q 730 448 729 448 z "},"":{"ha":941,"x_min":-22,"x_max":951,"o":"m -16 996 q -22 1016 -22 996 q -16 1042 -22 1036 q 48 1038 11 1040 q 116 1035 86 1036 q 181 1034 146 1034 q 382 1042 225 1034 q 385 1015 385 1034 q 379 996 385 996 q 355 994 369 996 q 324 986 340 991 q 296 970 307 981 q 285 945 285 960 q 304 899 285 929 l 522 521 q 571 611 545 561 q 621 708 597 661 q 667 800 645 755 q 704 878 688 844 q 727 928 720 911 q 732 952 732 943 q 727 965 732 958 q 710 979 722 972 q 675 990 699 986 q 621 994 652 994 q 617 1015 618 994 q 618 1040 616 1036 q 669 1037 637 1039 q 725 1033 701 1034 q 776 1032 749 1032 q 840 1033 812 1032 q 898 1037 867 1034 q 949 1040 928 1039 q 950 1014 951 1033 q 945 994 949 994 q 933 994 939 994 q 912 992 927 994 q 884 986 897 991 q 856 976 871 982 q 827 958 840 969 q 806 931 814 946 q 557 473 758 847 q 553 465 555 469 q 551 456 551 460 q 550 448 550 453 q 549 440 549 442 q 549 432 549 438 q 549 425 549 426 l 547 182 q 555 66 547 92 q 599 48 558 55 q 664 41 640 41 q 669 18 669 35 q 664 -5 669 1 q 606 -2 647 -4 q 536 2 564 1 q 480 3 507 3 q 424 2 452 3 q 352 -2 395 1 q 294 -5 310 -4 q 289 18 288 1 q 294 41 290 35 q 359 48 318 41 q 403 66 399 55 q 411 182 411 92 l 411 420 q 399 464 411 442 q 284 670 351 553 q 176 862 218 788 q 129 928 152 905 q 73 970 106 951 q 27 989 54 982 q -16 996 0 996 m 303 1168 q 291 1180 303 1168 q 280 1224 280 1191 q 303 1280 280 1257 q 359 1303 326 1303 q 415 1280 392 1303 q 437 1224 437 1257 q 415 1168 437 1191 q 359 1145 392 1145 q 303 1168 326 1145 m 588 1168 q 576 1180 588 1168 q 565 1224 565 1191 q 588 1280 565 1257 q 644 1303 610 1303 q 700 1280 677 1303 q 722 1224 722 1257 q 700 1168 722 1191 q 644 1145 677 1145 q 588 1168 610 1145 z "},"":{"ha":488,"x_min":79,"x_max":409,"o":"m 79 834 q 103 865 84 841 q 126 896 121 889 q 145 921 131 903 q 166 949 159 940 q 184 976 172 959 q 205 1008 195 992 q 227 1042 215 1023 q 244 1056 235 1056 q 261 1042 253 1056 q 282 1008 273 1023 q 304 976 292 992 q 322 949 315 959 q 342 921 328 940 q 362 896 357 903 q 385 865 367 889 q 409 834 404 841 q 404 820 409 826 q 392 813 398 813 l 244 933 q 96 813 151 857 q 84 820 90 813 q 79 834 79 826 z "},"":{"ha":558,"x_min":79,"x_max":480,"o":"m 79 823 q 98 881 79 852 q 195 938 140 938 q 233 931 214 938 q 261 920 252 924 q 291 901 269 915 q 382 864 351 864 q 418 873 401 864 q 444 892 435 882 q 460 913 452 903 q 471 925 468 924 q 480 911 480 925 q 458 851 480 884 q 360 793 415 793 q 323 799 342 793 q 296 810 305 805 q 266 827 286 815 q 173 867 203 867 q 138 858 153 867 q 115 839 123 849 q 101 818 107 828 q 92 806 94 807 q 84 809 87 806 q 80 815 81 812 q 79 823 79 819 z "},"":{"ha":677,"x_min":0,"x_max":0,"o":""},"":{"ha":1355,"x_min":0,"x_max":0,"o":""},"":{"ha":677,"x_min":0,"x_max":0,"o":""},"":{"ha":1355,"x_min":0,"x_max":0,"o":""},"":{"ha":452,"x_min":0,"x_max":0,"o":""},"":{"ha":338,"x_min":0,"x_max":0,"o":""},"":{"ha":226,"x_min":0,"x_max":0,"o":""},"":{"ha":226,"x_min":0,"x_max":0,"o":""},"":{"ha":169,"x_min":0,"x_max":0,"o":""},"":{"ha":271,"x_min":0,"x_max":0,"o":""},"":{"ha":75,"x_min":0,"x_max":0,"o":""},"":{"ha":593,"x_min":92,"x_max":502,"o":"m 92 330 q 112 411 92 367 q 491 429 439 428 q 499 427 496 429 q 502 415 502 424 q 481 330 502 374 q 102 313 449 328 q 96 315 98 313 q 93 320 94 316 q 92 330 92 323 z "}}}
